<svg width="26" height="26" viewBox="0 0 26 26" fill="none" xmlns="http://www.w3.org/2000/svg">
<g clip-path="url(#clip0_457_624)">
<path d="M19.8108 11.4149C19.757 11.343 19.7912 11.2598 19.7749 11.183C19.6886 10.9991 19.6788 10.7928 19.6088 10.604C19.5762 10.5289 19.5437 10.4537 19.5388 10.3689C19.5371 10.3593 19.5355 10.3497 19.5339 10.3386C19.3482 9.90992 19.1609 9.48448 18.9084 9.08784C18.2878 8.11542 17.4734 7.34132 16.4473 6.79753C15.3446 6.21376 14.1686 5.93546 12.903 6.04102C12.4697 6.07781 12.0446 6.13219 11.6244 6.24254C10.2448 6.604 9.12414 7.35571 8.22666 8.43209C7.56536 9.22698 7.13698 10.137 6.91221 11.1414C6.85194 11.4101 6.84054 11.6852 6.78353 11.9523C6.78353 11.9667 6.7819 11.9795 6.7819 11.9939C6.78027 12.0691 6.77865 12.1443 6.77865 12.221C6.77702 12.2354 6.77702 12.2498 6.77702 12.2658C6.77702 12.3394 6.77539 12.4145 6.77539 12.4897C6.77865 13.1998 6.87963 13.894 7.12395 14.5657C7.19399 14.7592 7.11418 14.9384 7.06043 15.1191C6.91221 15.6245 6.76236 16.1299 6.61088 16.6337C6.59459 16.6865 6.5669 16.7345 6.5441 16.7856C6.44148 17.1727 6.29652 17.5438 6.1092 17.8956C5.95447 18.1851 5.94795 18.4378 6.19553 18.6729C6.32583 18.7305 6.45125 18.8009 6.60436 18.7593C6.70698 18.7321 6.81122 18.7049 6.91547 18.6793C7.8048 18.4538 8.70879 18.2843 9.60464 18.0827C9.7724 18.0444 9.93854 18.0284 10.0982 18.1243C10.5722 18.4042 11.0787 18.6041 11.6097 18.7497C11.6521 18.7609 11.696 18.7721 11.7384 18.7833C12.6131 19.004 13.4991 19.0392 14.3917 18.8968C15.1361 18.7769 15.8381 18.5258 16.4994 18.1707C17.0711 17.8652 17.5777 17.4718 18.0321 17.0192C18.3921 16.6593 18.695 16.2515 18.9605 15.8164C19.5257 14.8872 19.8254 13.8844 19.8808 12.808C19.9053 12.3426 19.8776 11.8772 19.8108 11.4149ZM13.9927 13.1822H12.6065V11.81H13.9927V13.1822ZM15.4439 11.8196H16.8431V13.1822H15.4439V11.8196ZM11.1504 13.1918H9.761V11.8164H11.1504V13.1918Z" fill="white"/>
</g>
<path d="M13.0001 26C20.1798 26 26 20.1798 26 13.0001C26 5.82046 20.1798 0 13.0001 0C5.82046 0 0 5.82046 0 13.0001C0.00809288 20.1764 5.82356 25.9919 13.0001 26ZM13.0001 1.30015C19.4619 1.30015 24.7001 6.53838 24.7001 13.0001C24.7001 19.4619 19.4619 24.7001 13.0001 24.7001C6.53838 24.7001 1.30015 19.4619 1.30015 13.0001C1.30753 6.54148 6.54148 1.30753 13.0001 1.30015Z" fill="white"/>
<path d="M13.0001 26C20.1798 26 26 20.1798 26 13.0001C26 5.82046 20.1798 0 13.0001 0C5.82046 0 0 5.82046 0 13.0001C0.00809288 20.1764 5.82356 25.9919 13.0001 26ZM13.0001 1.30015C19.4619 1.30015 24.7001 6.53838 24.7001 13.0001C24.7001 19.4619 19.4619 24.7001 13.0001 24.7001C6.53838 24.7001 1.30015 19.4619 1.30015 13.0001C1.30753 6.54148 6.54148 1.30753 13.0001 1.30015Z" stroke="white"/>
<defs>
<clipPath id="clip0_457_624">
<rect width="13.8889" height="12.963" fill="white" transform="translate(6 6.01855)"/>
</clipPath>
</defs>
</svg>
