<svg width="28" height="28" viewBox="0 0 28 28" fill="none" xmlns="http://www.w3.org/2000/svg">
<path d="M13.9999 27.15H14.0001C21.2626 27.15 27.15 21.2626 27.15 14.0001C27.15 6.73763 21.2626 0.85 14.0001 0.85C6.73762 0.85 0.85 6.73762 0.85 14.0001V14.0003C0.858187 21.2593 6.74068 27.1418 13.9999 27.15ZM14.0003 2.45015C20.3791 2.45024 25.5501 7.62128 25.5501 14.0001C25.5501 20.379 20.379 25.5501 14.0001 25.5501C7.62128 25.5501 2.45024 20.3791 2.45015 14.0003C2.45744 7.62436 7.62436 2.45744 14.0003 2.45015Z" fill="white" stroke="#0A133A" stroke-width="0.3"/>
<g clip-path="url(#clip0_1280_63)">
<path d="M20.624 23.5194C20.4432 22.6393 20.1238 21.8565 19.609 21.1684C18.5186 19.7111 17.1045 18.8979 15.2693 18.9215C14.4278 18.9326 13.5862 18.932 12.7447 18.9233C10.6935 18.9023 9.17594 19.8653 8.11961 21.5945C7.80137 22.1166 7.64925 22.7433 7.42107 23.3224C7.39917 23.3782 7.3803 23.4358 7.3584 23.4971C7.23548 23.3868 7.11622 23.2735 7 23.1571C8.49748 25.4721 11.0732 27 14 27C16.9268 27 19.5025 25.4721 21 23.1571C20.8783 23.2809 20.753 23.4017 20.624 23.5194Z" fill="white"/>
<path d="M14.0047 10C16.1009 9.99133 17.8254 11.7236 17.8339 13.846C17.843 16.0162 16.1551 17.7992 14.0832 17.8085C11.9091 17.8178 10.1713 16.1097 10.1646 13.9563C10.1585 11.7304 11.83 10.0087 14.0047 10Z" fill="white"/>
</g>
<defs>
<clipPath id="clip0_1280_63">
<rect width="14" height="17" fill="white" transform="translate(7 10)"/>
</clipPath>
</defs>
</svg>
