<svg width="27" height="27" viewBox="0 0 27 27" fill="none" xmlns="http://www.w3.org/2000/svg">
<path d="M13.5001 27C20.9559 27 27 20.9559 27 13.5001C27 6.04433 20.9559 -1.90735e-06 13.5001 -1.90735e-06C6.04433 -1.90735e-06 -1.90735e-06 6.04433 -1.90735e-06 13.5001C0.00840378 20.9525 6.04754 26.9916 13.5001 27ZM13.5001 1.35016C20.2104 1.35016 25.6501 6.78986 25.6501 13.5001C25.6501 20.2104 20.2104 25.6501 13.5001 25.6501C6.78986 25.6501 1.35016 20.2104 1.35016 13.5001C1.35782 6.79307 6.79307 1.35782 13.5001 1.35016Z" fill="white"/>
<path d="M13.5001 27C20.9559 27 27 20.9559 27 13.5001C27 6.04433 20.9559 -1.90735e-06 13.5001 -1.90735e-06C6.04433 -1.90735e-06 -1.90735e-06 6.04433 -1.90735e-06 13.5001C0.00840378 20.9525 6.04754 26.9916 13.5001 27ZM13.5001 1.35016C20.2104 1.35016 25.6501 6.78986 25.6501 13.5001C25.6501 20.2104 20.2104 25.6501 13.5001 25.6501C6.78986 25.6501 1.35016 20.2104 1.35016 13.5001C1.35782 6.79307 6.79307 1.35782 13.5001 1.35016Z" stroke="white"/>
<path d="M11.8635 15.8911V15.6738C11.8678 14.928 11.9338 14.3336 12.0617 13.8904C12.1938 13.4472 12.3856 13.0892 12.637 12.8165C12.8884 12.5438 13.1909 12.2966 13.5446 12.075C13.8088 11.9046 14.0454 11.7277 14.2542 11.5445C14.463 11.3613 14.6292 11.1588 14.7527 10.9372C14.8763 10.7114 14.9381 10.46 14.9381 10.183C14.9381 9.88895 14.8678 9.63114 14.7272 9.40955C14.5865 9.18795 14.3969 9.0175 14.1583 8.89818C13.9239 8.77886 13.664 8.7192 13.3784 8.7192C13.1015 8.7192 12.8394 8.78099 12.5922 8.90457C12.3451 9.02389 12.1427 9.20287 11.985 9.44151C11.8273 9.67588 11.7421 9.96778 11.7293 10.3172H9.12135C9.14265 9.46494 9.3472 8.76182 9.73498 8.20784C10.1228 7.6496 10.6363 7.23412 11.2755 6.96139C11.9147 6.6844 12.6199 6.54591 13.3912 6.54591C14.2392 6.54591 14.9892 6.68653 15.6412 6.96778C16.2932 7.24477 16.8046 7.64747 17.1753 8.17588C17.5461 8.70429 17.7314 9.34136 17.7314 10.0871C17.7314 10.5857 17.6483 11.0289 17.4821 11.4166C17.3202 11.8002 17.0922 12.1411 16.7982 12.4394C16.5042 12.7334 16.1569 12.9997 15.7563 13.2384C15.4196 13.4387 15.1427 13.6475 14.9253 13.8648C14.7123 14.0821 14.5525 14.3336 14.4459 14.6191C14.3436 14.9046 14.2904 15.2561 14.2861 15.6738V15.8911H11.8635ZM13.1292 19.982C12.703 19.982 12.3387 19.8328 12.0361 19.5345C11.7378 19.232 11.5908 18.8698 11.5951 18.4479C11.5908 18.0303 11.7378 17.6723 12.0361 17.374C12.3387 17.0757 12.703 16.9266 13.1292 16.9266C13.534 16.9266 13.8898 17.0757 14.1966 17.374C14.5034 17.6723 14.659 18.0303 14.6632 18.4479C14.659 18.7291 14.5844 18.987 14.4395 19.2213C14.2989 19.4514 14.1135 19.6368 13.8834 19.7774C13.6533 19.9138 13.4019 19.982 13.1292 19.982Z" fill="white"/>
</svg>
