<svg width="34" height="33" viewBox="0 0 34 33" fill="none" xmlns="http://www.w3.org/2000/svg">
<g filter="url(#filter0_d_457_616)">
<path d="M17.7284 0C10.9615 0 5.45676 5.53992 5.45676 12.35C5.45676 13.1483 5.53306 13.9466 5.68486 14.7241C5.76037 15.112 5.85574 15.5 5.96781 15.8775C5.98847 15.9479 6.01073 16.0159 6.03219 16.0831C6.11723 16.347 6.17843 16.5382 6.14346 16.755C6.10372 17.0053 6.02503 17.2629 5.94237 17.5356C5.90025 17.6748 5.85654 17.818 5.81839 17.962C5.51319 19.101 5.22785 20.04 4.92027 20.9167C4.71044 21.5142 4.45055 22.2157 4.10719 22.8852C3.93313 23.2243 3.97367 23.6363 4.20972 23.9346C4.39253 24.1666 4.66752 24.3002 4.96398 24.3002C5.04664 24.3002 5.1285 24.2898 5.20639 24.269C6.09974 24.0322 7.11311 23.7906 8.30371 23.5291C8.82827 23.4139 9.36714 23.3011 9.90442 23.1931C10.0499 23.1643 10.1985 23.1275 10.3424 23.0924C10.6801 23.01 11.0306 22.9252 11.3207 22.9348C11.4423 22.9388 11.5393 22.9956 11.715 23.1043C11.7825 23.1459 11.8588 23.1939 11.9431 23.2387C12.195 23.3755 12.4557 23.5043 12.7172 23.6227C13.2338 23.8562 13.7703 24.0546 14.3131 24.2138C15.4187 24.5369 16.568 24.7001 17.7292 24.7001C24.4953 24.7001 30 19.1602 30 12.35C30 5.53992 24.4945 0 17.7284 0ZM7.48825 15.3712C7.42069 15.1728 7.35711 14.9848 7.31498 14.8033C7.129 14.0034 7.03442 13.1779 7.03442 12.35C7.03442 6.41579 11.8318 1.58855 17.7276 1.58855C23.6234 1.58855 28.4199 6.41659 28.4199 12.35C28.4199 18.2835 23.6234 23.1115 17.7276 23.1115C16.6077 23.1115 15.5037 22.9372 14.4467 22.5932C13.9348 22.4269 13.4317 22.2197 12.9501 21.9765C12.8348 21.9181 12.718 21.8405 12.594 21.7582C12.4088 21.635 12.199 21.495 11.9534 21.399C11.7483 21.3182 11.5481 21.291 11.3549 21.291C11.1356 21.291 10.9257 21.3262 10.7302 21.3598C10.6857 21.367 10.6412 21.375 10.5959 21.3822C9.27256 21.5934 7.43102 22.0557 6.05444 22.4101C6.66882 20.9103 7.09959 19.3377 7.51845 17.8076C7.57647 17.5964 7.6337 17.3861 7.69172 17.1757C7.87452 16.515 7.66867 15.9071 7.48666 15.3712H7.48825Z" fill="white"/>
</g>
<defs>
<filter id="filter0_d_457_616" x="0" y="0" width="34" height="32.7001" filterUnits="userSpaceOnUse" color-interpolation-filters="sRGB">
<feFlood flood-opacity="0" result="BackgroundImageFix"/>
<feColorMatrix in="SourceAlpha" type="matrix" values="0 0 0 0 0 0 0 0 0 0 0 0 0 0 0 0 0 0 127 0" result="hardAlpha"/>
<feOffset dy="4"/>
<feGaussianBlur stdDeviation="2"/>
<feComposite in2="hardAlpha" operator="out"/>
<feColorMatrix type="matrix" values="0 0 0 0 0 0 0 0 0 0 0 0 0 0 0 0 0 0 0.25 0"/>
<feBlend mode="normal" in2="BackgroundImageFix" result="effect1_dropShadow_457_616"/>
<feBlend mode="normal" in="SourceGraphic" in2="effect1_dropShadow_457_616" result="shape"/>
</filter>
</defs>
</svg>
