<svg width="26" height="26" viewBox="0 0 26 26" fill="none" xmlns="http://www.w3.org/2000/svg">
<path d="M13.0001 26C20.1798 26 26 20.1798 26 13.0001C26 5.82046 20.1798 0 13.0001 0C5.82046 0 0 5.82046 0 13.0001C0.00809288 20.1764 5.82356 25.9919 13.0001 26ZM13.0001 1.30015C19.4619 1.30015 24.7001 6.53838 24.7001 13.0001C24.7001 19.4619 19.4619 24.7001 13.0001 24.7001C6.53838 24.7001 1.30015 19.4619 1.30015 13.0001C1.30753 6.54148 6.54148 1.30753 13.0001 1.30015Z" fill="white"/>
<path d="M13.0001 26C20.1798 26 26 20.1798 26 13.0001C26 5.82046 20.1798 0 13.0001 0C5.82046 0 0 5.82046 0 13.0001C0.00809288 20.1764 5.82356 25.9919 13.0001 26ZM13.0001 1.30015C19.4619 1.30015 24.7001 6.53838 24.7001 13.0001C24.7001 19.4619 19.4619 24.7001 13.0001 24.7001C6.53838 24.7001 1.30015 19.4619 1.30015 13.0001C1.30753 6.54148 6.54148 1.30753 13.0001 1.30015Z" stroke="white"/>
<g clip-path="url(#clip0_457_602)">
<path d="M13.259 10.4429C13.7839 10.1704 14.2344 9.83775 14.7403 9.69454C15.6873 9.42661 16.6849 9.86239 17.1908 10.6493C17.6935 11.4284 17.654 12.5802 17.001 13.2793C16.356 13.9723 15.6272 14.5898 14.8921 15.2796C14.6992 15.0717 14.4842 14.8407 14.2012 14.5374C14.8304 13.9446 15.4928 13.3579 16.1078 12.7281C16.6042 12.2199 16.5789 11.433 16.1157 10.9911C15.6399 10.5368 14.9047 10.5522 14.3388 11.0342C14.1743 11.1743 14.0178 11.3268 13.8724 11.4854C13.7127 11.6609 13.5688 11.8503 13.3364 12.1321C12.946 11.7025 12.6661 11.3407 12.331 11.0373C11.7792 10.5384 11.0299 10.5384 10.5572 10.9926C10.094 11.4377 10.0655 12.2245 10.5698 12.7296C11.8377 14 13.1341 15.2442 14.4225 16.493C14.7877 16.8472 15.1593 16.8102 15.5118 16.4638C16.2991 15.6908 17.1149 14.9439 17.869 14.1417C19.0183 12.9175 19.0863 11.1297 18.0856 9.84545C17.0959 8.57661 15.281 8.18548 13.7807 8.95387C13.4519 9.12326 13.2289 9.12941 12.8954 8.95695C11.4235 8.1901 9.64339 8.55813 8.6316 9.79463C7.60083 11.0542 7.62296 12.8697 8.76439 14.0878C9.75248 15.1441 10.8212 16.1281 11.8535 17.1459C12.0006 17.2922 12.1413 17.4447 12.3436 17.6541C11.5958 17.8743 11.0077 17.7588 10.5208 17.2968C9.67185 16.4946 8.81815 15.6923 8.01819 14.8454C6.608 13.3486 6.45623 11.0296 7.61664 9.39889C8.79285 7.74508 10.9398 7.1122 12.9175 7.80206C13.1689 7.88983 13.5088 7.89137 13.7601 7.8036C15.7458 7.1122 17.8879 7.742 19.061 9.39427C20.2261 11.0358 20.0791 13.3317 18.6626 14.8377C17.8642 15.6877 17.0137 16.4915 16.1584 17.2891C15.4185 17.9774 14.4494 17.9513 13.6922 17.2291C12.41 16.0033 11.1358 14.7684 9.88053 13.5149C8.92723 12.5618 8.90194 11.162 9.78251 10.292C10.69 9.39427 12.018 9.39889 13.0803 10.3028C13.161 10.3705 13.2463 10.4337 13.2574 10.4414L13.259 10.4429Z" fill="white"/>
</g>
<defs>
<clipPath id="clip0_457_602">
<rect width="13" height="10.2632" fill="white" transform="translate(6.8418 7.52637)"/>
</clipPath>
</defs>
</svg>
