<svg width="26" height="26" viewBox="0 0 26 26" fill="none" xmlns="http://www.w3.org/2000/svg">
<path d="M13.0001 26C20.1798 26 26 20.1798 26 13.0001C26 5.82047 20.1798 0 13.0001 0C5.82047 0 0 5.82047 0 13.0001C0.00809288 20.1764 5.82356 25.9919 13.0001 26ZM13.0001 1.30015C19.4619 1.30015 24.7001 6.53838 24.7001 13.0001C24.7001 19.4619 19.4619 24.7001 13.0001 24.7001C6.53838 24.7001 1.30015 19.4619 1.30015 13.0001C1.30753 6.54148 6.54148 1.30753 13.0001 1.30015Z" fill="white"/>
<path d="M13.0001 26C20.1798 26 26 20.1798 26 13.0001C26 5.82047 20.1798 0 13.0001 0C5.82047 0 0 5.82047 0 13.0001C0.00809288 20.1764 5.82356 25.9919 13.0001 26ZM13.0001 1.30015C19.4619 1.30015 24.7001 6.53838 24.7001 13.0001C24.7001 19.4619 19.4619 24.7001 13.0001 24.7001C6.53838 24.7001 1.30015 19.4619 1.30015 13.0001C1.30753 6.54148 6.54148 1.30753 13.0001 1.30015Z" stroke="white"/>
<path d="M15.5534 8.21457C15.9361 8.21457 16.2395 8.30115 16.4637 8.47636C16.6879 8.64951 16.8522 8.87213 16.9527 9.14217C17.0532 9.4122 17.1054 9.68017 17.1054 9.94402C17.1054 10.4367 16.974 10.8324 16.7092 11.1313C16.4444 11.4323 16.0984 11.5807 15.6713 11.5807C15.2209 11.5807 14.8788 11.4694 14.6411 11.2468C14.4053 11.0241 14.2874 10.7273 14.2874 10.3563C14.2874 9.98524 14.3628 9.67811 14.5155 9.439C14.6682 9.19988 14.8556 8.99581 15.0798 8.82678C14.9117 8.80205 14.7474 8.82678 14.5908 8.89893C14.4111 8.94634 14.2429 9.03704 14.0845 9.16896C13.926 9.30089 13.7926 9.45755 13.6786 9.63688C13.5665 9.81622 13.4795 10.012 13.4176 10.2223C13.3558 10.4326 13.3249 10.6449 13.3249 10.8613V15.9363C13.3249 16.5114 13.4447 16.903 13.6882 17.1071C13.9298 17.3112 14.3145 17.4122 14.844 17.4122V17.7894C14.585 17.777 14.2024 17.7626 13.696 17.744C13.1896 17.7255 12.6658 17.7173 12.1265 17.7173C11.6433 17.7173 11.1563 17.7255 10.6673 17.744C10.1783 17.7626 9.8149 17.777 9.5791 17.7894V17.4122C9.9502 17.4122 10.2111 17.3215 10.3638 17.1421C10.5165 16.9628 10.5919 16.6206 10.5919 16.1156V10.4284C10.5919 9.88836 10.5184 9.49053 10.3735 9.2308C10.2266 8.97314 9.9618 8.84327 9.58103 8.84327V8.46605C9.94053 8.5011 10.2904 8.51965 10.6267 8.51965C11.1331 8.51965 11.6143 8.49903 12.0685 8.45575C12.5247 8.41452 12.9441 8.35062 13.3249 8.2661V9.74201C13.4602 9.43075 13.638 9.16072 13.8564 8.93191C14.0748 8.70517 14.328 8.52789 14.616 8.40009C14.902 8.27435 15.2151 8.21045 15.5534 8.21045V8.21457Z" fill="white"/>
</svg>
