<svg width="13" height="13" viewBox="0 0 13 13" fill="none" xmlns="http://www.w3.org/2000/svg">
<circle cx="6.6626" cy="6.33746" r="4.0625" fill="#F1EDE9"/>
<path d="M6.5 0C2.91689 0 0 2.91524 0 6.5C0 10.0848 2.91689 13 6.5 13C10.0831 13 13 10.0848 13 6.5C13 2.91524 10.0847 0 6.5 0ZM9.32261 8.04205C9.22024 8.36058 9.11952 8.68067 9.01383 8.99911C8.93905 9.2218 8.73596 9.35498 8.4418 9.34201C8.01602 9.31598 7.5529 9.20064 7.1044 9.02348C6.3634 8.72933 5.69875 8.31174 5.14632 7.73161C4.41995 6.9678 3.93732 6.06925 3.72604 5.03244C3.6887 4.85528 3.67242 4.67335 3.65779 4.49297C3.64151 4.26872 3.77967 4.06242 3.99417 3.99085C4.31757 3.88194 4.64254 3.77801 4.96916 3.67563C5.19828 3.60573 5.41766 3.73248 5.49078 3.96813C5.5915 4.29641 5.69387 4.6246 5.79625 4.95288C5.80922 4.99354 5.82384 5.0341 5.83847 5.07309C5.86772 5.15597 5.85143 5.22588 5.79137 5.28759C5.67603 5.40138 5.56225 5.51672 5.44691 5.6304C5.42419 5.65322 5.42253 5.67106 5.43394 5.69865C5.81419 6.56152 6.43497 7.18386 7.29784 7.56411C7.32875 7.57873 7.34825 7.57708 7.37418 7.55114C7.48631 7.4358 7.60009 7.32368 7.71377 7.21155C7.77227 7.15149 7.84218 7.13521 7.92174 7.16124C8.29224 7.27824 8.66108 7.39524 9.03158 7.51058C9.18757 7.55933 9.29161 7.65683 9.33217 7.81771C9.35167 7.89249 9.34679 7.96727 9.32242 8.04195L9.32261 8.04205Z" fill="#0A133A"/>
</svg>
