<svg width="30" height="28" viewBox="0 0 30 28" fill="none" xmlns="http://www.w3.org/2000/svg">
<g clip-path="url(#clip0_1556_1027)">
<path d="M29.8313 11.6561C29.7152 11.5006 29.7891 11.321 29.7539 11.1552C29.5674 10.7579 29.5463 10.3122 29.395 9.90459C29.3247 9.74222 29.2543 9.57985 29.2437 9.39676C29.2402 9.37603 29.2367 9.3553 29.2332 9.33112C28.8321 8.40527 28.4275 7.48633 27.8822 6.62958C26.5417 4.52914 24.7826 2.85709 22.5661 1.68251C20.1843 0.421556 17.6441 -0.179555 14.9104 0.0484527C13.9746 0.12791 13.0563 0.245368 12.1486 0.483739C9.16868 1.26449 6.74813 2.88818 4.80959 5.21317C3.38118 6.93013 2.45589 8.89583 1.97037 11.0654C1.84019 11.6457 1.81557 12.2399 1.69243 12.8169C1.69243 12.848 1.68891 12.8756 1.68891 12.9067C1.68539 13.0691 1.68187 13.2314 1.68187 13.3972C1.67835 13.4283 1.67835 13.4594 1.67835 13.494C1.67835 13.6529 1.67484 13.8153 1.67484 13.9776C1.68187 15.5115 1.9 17.0108 2.42774 18.4618C2.57902 18.8798 2.40663 19.2667 2.29053 19.6571C1.97037 20.7488 1.64669 21.8404 1.31949 22.9287C1.28431 23.0427 1.2245 23.1463 1.17525 23.2568C0.953598 24.0929 0.640475 24.8944 0.235878 25.6544C-0.0983544 26.2797 -0.112427 26.8255 0.422345 27.3333C0.703803 27.4577 0.974708 27.6097 1.30542 27.5199C1.52707 27.4612 1.75224 27.4024 1.9774 27.3472C3.89836 26.8601 5.85098 26.4939 7.78601 26.0586C8.14839 25.9757 8.50725 25.9411 8.85204 26.1484C9.87585 26.753 10.97 27.1848 12.117 27.4992C12.2084 27.5233 12.3034 27.5475 12.3949 27.5717C14.2842 28.0485 16.1981 28.1245 18.1261 27.817C19.7339 27.5579 21.2503 27.0155 22.6787 26.2486C23.9136 25.5887 25.0078 24.7389 25.9894 23.7612C26.7669 22.9839 27.4213 22.103 27.9948 21.1633C29.2156 19.1562 29.8629 16.9901 29.9826 14.6651C30.0353 13.6598 29.9755 12.6545 29.8313 11.6561ZM17.2641 15.4735H14.2701V12.5094H17.2641V15.4735ZM20.3989 12.5301H23.4211V15.4735H20.3989V12.5301ZM11.1248 15.4942H8.12376V12.5232H11.1248V15.4942Z" fill="white"/>
</g>
<defs>
<clipPath id="clip0_1556_1027">
<rect width="30" height="28" fill="white"/>
</clipPath>
</defs>
</svg>
