<svg width="418" height="175" viewBox="0 0 418 175" fill="none" xmlns="http://www.w3.org/2000/svg">
<g clip-path="url(#clip0_386_1030)">
<path d="M50.9117 35.3931C54.173 35.3931 56.7589 36.0823 58.6696 37.477C60.5802 38.8553 61.9802 40.6274 62.8367 42.7769C63.6932 44.9264 64.1379 47.0595 64.1379 49.1598C64.1379 53.0815 63.0179 56.2319 60.7614 58.6111C58.5048 61.0068 55.5565 62.1882 51.9165 62.1882C48.0787 62.1882 45.1634 61.3021 43.1374 59.53C41.128 57.7579 40.1233 55.3951 40.1233 52.4415C40.1233 49.488 40.7656 47.0431 42.0668 45.1398C43.368 43.2364 44.9657 41.6119 46.8764 40.2664C45.4434 40.0695 44.0434 40.2664 42.7092 40.8407C41.1774 41.2181 39.7444 41.9401 38.3938 42.9902C37.0432 44.0404 35.9067 45.2874 34.9349 46.715C33.9796 48.1425 33.2384 49.7013 32.7113 51.375C32.1843 53.0486 31.9207 54.7387 31.9207 56.4616V96.8593C31.9207 101.437 32.9419 104.555 35.0173 106.179C37.0761 107.804 40.3539 108.608 44.8669 108.608V111.611C42.6598 111.512 39.3985 111.397 35.0831 111.25C30.7678 111.102 26.3041 111.036 21.7087 111.036C17.591 111.036 13.4403 111.102 9.27315 111.25C5.106 111.397 2.00946 111.512 0 111.611V108.608C3.16242 108.608 5.386 107.886 6.68721 106.458C7.98842 105.031 8.63078 102.307 8.63078 98.2869V53.0158C8.63078 48.7168 8.00489 45.55 6.76957 43.4825C5.51777 41.4314 3.26125 40.3977 0.016471 40.3977V37.3949C3.08007 37.6739 6.06131 37.8216 8.92726 37.8216C13.2427 37.8216 17.3439 37.6575 21.2146 37.3129C25.1017 36.9847 28.6759 36.4761 31.9207 35.8033V47.5518C33.0737 45.0741 34.589 42.9246 36.4502 41.1033C38.3115 39.2983 40.4692 37.8872 42.9233 36.8699C45.361 35.869 48.0293 35.3603 50.9117 35.3603V35.3931Z" fill="white"/>
<path d="M104.261 35.3931C112.694 35.3931 119.316 37.8708 124.109 42.8426C128.902 47.8143 131.307 55.9693 131.307 67.3404H85.1386L84.9903 64.6166H111.739C111.937 59.9402 111.739 55.6084 111.163 51.6539C110.586 47.6995 109.647 44.5162 108.363 42.1206C107.061 39.7413 105.365 38.5435 103.257 38.5435C100.374 38.5435 97.9365 40.5946 95.927 44.6967C93.9176 48.7988 92.6658 55.7724 92.1881 65.6175L92.7646 66.6185C92.567 67.6686 92.4846 68.7516 92.4846 69.8345V73.3459C92.4846 79.9422 93.374 85.1929 95.1364 89.0981C96.9153 93.0197 99.1389 95.7763 101.824 97.4008C104.508 99.0252 107.292 99.8292 110.158 99.8292C111.789 99.8292 113.617 99.5995 115.626 99.1073C117.636 98.6314 119.744 97.6305 121.951 96.1045C124.158 94.5785 126.267 92.3306 128.276 89.377L130.714 90.2303C129.66 93.955 127.864 97.6141 125.328 101.191C122.791 104.768 119.546 107.738 115.626 110.068C111.69 112.415 106.946 113.58 101.395 113.58C95.0705 113.58 89.4045 112.267 84.4303 109.642C79.4396 107.016 75.4866 102.865 72.5712 97.1711C69.6394 91.4937 68.1899 84.0607 68.1899 74.8883C68.1899 65.716 69.7711 58.365 72.9336 52.54C76.096 46.715 80.4114 42.3995 85.8797 39.5773C91.3481 36.755 97.4753 35.3439 104.294 35.3439L104.261 35.3931Z" fill="white"/>
<path d="M209.824 103.472C207.172 100.436 203.548 98.2376 198.953 96.8921C194.341 95.5466 189.054 94.8739 183.058 94.8739H167.609C163.804 94.8739 161.893 93.2823 161.893 90.099C161.893 88.0972 162.569 86.5056 163.919 85.3078C164.891 84.4381 165.896 83.6669 166.95 82.9613C168.086 83.0434 169.256 83.0762 170.442 83.0762C176.338 83.0762 181.642 82.223 186.336 80.5329C191.03 78.8428 194.736 76.2174 197.438 72.6732C200.139 69.1454 201.489 64.633 201.489 59.1526C201.489 53.6722 200.139 49.1763 197.438 45.6977C197.092 45.271 196.746 44.828 196.367 44.4342C195.626 43.5974 194.819 42.8426 193.962 42.1206C191.805 40.3813 189.268 38.9702 186.336 37.92C181.642 36.23 176.322 35.3767 170.442 35.3767C164.562 35.3767 159.126 36.23 154.465 37.92C149.804 39.6101 146.147 42.2026 143.429 45.6977C140.728 49.1763 139.377 53.6558 139.377 59.1526C139.377 64.6495 140.728 69.1454 143.429 72.6732C146.131 76.2174 149.804 78.8428 154.465 80.5329C157.166 81.5174 160.114 82.2065 163.26 82.6332C158.747 84.8483 155.091 87.2275 152.274 89.7216C148.782 92.8721 147.036 96.6788 147.036 101.158C147.036 104.145 147.86 106.639 149.507 108.624C151.154 110.626 153.526 112.168 156.639 113.268C159.736 114.367 163.425 114.909 167.724 114.909H176.437C182.927 114.909 187.259 115.893 189.416 117.895C191.574 119.88 192.645 122.325 192.645 125.213C192.645 128.298 191.739 130.989 189.943 133.286C188.148 135.583 185.595 137.339 182.284 138.586C178.99 139.833 175.087 140.457 170.59 140.457C164.084 140.457 158.978 139.357 155.272 137.175C151.582 134.993 149.721 131.842 149.721 127.757C149.721 126.148 150.084 124.54 150.775 122.9C151.467 121.259 152.686 119.585 154.383 117.895L153.032 115.499C147.234 116.894 142.919 118.797 140.135 121.242C137.319 123.671 135.935 126.411 135.935 129.397C135.935 132.384 137.286 134.747 139.987 136.798C142.672 138.832 146.476 140.391 151.385 141.441C156.293 142.475 161.976 143 168.498 143C179.007 143 187.572 141.737 194.226 139.193C200.88 136.65 205.805 133.286 209.017 129.102C212.212 124.934 213.81 120.34 213.81 115.352C213.81 110.364 212.476 106.508 209.84 103.472H209.824ZM163.096 59.1526C163.096 51.1781 163.738 45.6648 165.039 42.6293C166.34 39.5937 168.136 38.0677 170.442 38.0677C172.748 38.0677 174.411 39.5937 175.762 42.6293C177.129 45.6648 177.788 51.1617 177.788 59.1526C177.788 67.1435 177.129 72.6568 175.762 75.7252C174.411 78.8264 172.632 80.3688 170.442 80.3688C168.136 80.3688 166.34 78.8264 165.039 75.7252C163.738 72.6404 163.096 67.1107 163.096 59.1526Z" fill="white"/>
<path d="M234.793 112.595C230.379 112.595 226.739 111.758 223.857 110.085C220.974 108.411 218.866 106.196 217.532 103.423C216.181 100.65 215.522 97.6961 215.522 94.5457C215.522 90.542 216.461 87.2439 218.323 84.6678C220.184 82.0916 222.605 80.0078 225.586 78.4326C228.551 76.8573 231.68 75.5447 234.925 74.4945C238.187 73.4444 241.299 72.4106 244.281 71.4097C247.246 70.4088 249.65 69.211 251.479 67.8327C253.29 66.4544 254.213 64.6658 254.213 62.4671V50.5709C254.213 48.4707 253.9 46.4852 253.274 44.6311C252.648 42.7769 251.544 41.2345 249.963 40.0531C248.382 38.8553 246.208 38.2646 243.424 38.2646C241.695 38.2646 240.015 38.5107 238.384 38.9865C236.754 39.4624 235.321 40.2336 234.069 41.2837C237.132 42.3339 239.405 43.9091 240.904 46.0094C242.387 48.1097 243.128 50.4561 243.128 53.0322C243.128 56.56 241.909 59.3659 239.455 61.417C237.017 63.468 234.102 64.5018 230.758 64.5018C227.118 64.5018 224.301 63.3532 222.341 61.056C220.381 58.7588 219.393 56.0022 219.393 52.7533C219.393 49.8818 220.118 47.4697 221.551 45.5171C222.984 43.5645 225.092 41.776 227.876 40.1515C230.659 38.5271 234.003 37.3293 237.939 36.5745C241.876 35.8197 246.043 35.4259 250.457 35.4259C254.872 35.4259 259.105 35.8853 262.893 36.7878C266.681 37.6903 269.91 39.4952 272.594 42.1534C274.703 44.3521 276.053 47.0267 276.63 50.1771C277.206 53.3276 277.486 57.3476 277.486 62.2046V100.879C277.486 103.275 277.7 104.916 278.129 105.818C278.557 106.721 279.249 107.18 280.22 107.18C281.077 107.18 281.9 106.951 282.658 106.458C283.432 105.982 284.19 105.457 284.964 104.883L286.545 107.312C284.437 109.034 281.95 110.347 279.067 111.25C276.185 112.152 273.072 112.611 269.728 112.611C265.891 112.611 262.893 112.103 260.735 111.102C258.578 110.101 257.046 108.739 256.14 107.016C255.234 105.293 254.723 103.39 254.625 101.29C252.516 104.735 249.881 107.476 246.718 109.527C243.556 111.578 239.57 112.611 234.777 112.611L234.793 112.595ZM246.735 102.274C248.267 102.274 249.634 101.962 250.836 101.339C252.039 100.715 253.159 99.6487 254.213 98.1227V68.3249C253.439 69.6704 252.417 70.9339 251.116 72.1153C249.815 73.3131 248.448 74.5109 247.015 75.6923C245.582 76.8902 244.215 78.2028 242.914 79.6304C241.612 81.0579 240.558 82.7644 239.751 84.717C238.944 86.6696 238.532 89.0324 238.532 91.8055C238.532 95.5302 239.29 98.2048 240.838 99.8292C242.37 101.454 244.33 102.258 246.735 102.258V102.274Z" fill="white"/>
<path d="M320.92 35.8197V98.2869C320.92 102.291 321.562 105.014 322.864 106.458C324.165 107.886 326.388 108.608 329.551 108.608V111.611C327.723 111.512 324.923 111.397 321.134 111.25C317.346 111.102 313.541 111.036 309.703 111.036C305.866 111.036 301.962 111.102 297.976 111.25C293.99 111.397 291.009 111.512 288.983 111.611V108.608C292.145 108.608 294.369 107.886 295.67 106.458C296.971 105.031 297.614 102.307 297.614 98.2869V53.0158C297.614 48.7168 297.021 45.55 295.818 43.4825C294.616 41.4314 292.343 40.3977 288.983 40.3977V37.395C292.047 37.6739 295.028 37.8216 297.894 37.8216C302.209 37.8216 306.31 37.6575 310.181 37.3129C314.068 36.9847 317.642 36.4761 320.887 35.8033L320.92 35.8197ZM308.27 0C312.783 0 316.292 1.00092 318.845 3.00275C321.381 5.00459 322.65 7.9253 322.65 11.7485C322.65 15.5717 321.381 18.476 318.845 20.4942C316.308 22.496 312.783 23.497 308.27 23.497C303.757 23.497 300.249 22.496 297.696 20.4942C295.16 18.4924 293.891 15.5717 293.891 11.7485C293.891 7.9253 295.16 5.021 297.696 3.00275C300.233 1.00092 303.757 0 308.27 0Z" fill="white"/>
<path d="M388.945 35.3931C393.162 35.3931 396.538 35.9182 399.091 36.9683C401.628 38.0185 403.572 39.3639 404.922 40.972C406.454 42.7933 407.574 45.1233 408.299 47.9948C409.023 50.8663 409.369 54.7223 409.369 59.5956V98.2704C409.369 102.274 410.012 104.998 411.313 106.442C412.614 107.869 414.838 108.591 418 108.591V111.594C416.089 111.496 413.224 111.381 409.452 111.233C405.663 111.085 401.99 111.02 398.449 111.02C394.513 111.02 390.724 111.085 387.084 111.233C383.444 111.381 380.71 111.496 378.882 111.594V108.591C381.566 108.591 383.428 107.869 384.498 106.442C385.552 105.014 386.079 102.291 386.079 98.2704V52.7205C386.079 50.5217 385.832 48.6347 385.355 47.0595C384.877 45.4843 384.053 44.2865 382.917 43.4825C381.764 42.6785 380.133 42.2683 378.025 42.2683C375.917 42.2683 373.776 42.8426 371.914 43.9911C370.053 45.1397 368.554 46.7314 367.451 48.7824C366.347 50.8335 365.804 53.1471 365.804 55.7232V98.2704C365.804 102.274 366.331 104.998 367.385 106.442C368.439 107.869 370.3 108.591 373.001 108.591V111.594C371.173 111.496 368.538 111.381 365.095 111.233C361.637 111.085 358.145 111.02 354.603 111.02C350.667 111.02 346.747 111.085 342.81 111.233C338.874 111.381 335.909 111.496 333.899 111.594V108.591C337.062 108.591 339.285 107.869 340.587 106.442C341.888 105.014 342.53 102.291 342.53 98.2704V52.9994C342.53 48.7004 341.904 45.5335 340.669 43.4661C339.417 41.415 337.161 40.3813 333.916 40.3813V37.3785C336.979 37.6575 339.961 37.8051 342.827 37.8051C347.142 37.8051 351.243 37.6411 355.114 37.2965C359.001 36.9683 362.575 36.4596 365.82 35.7869V47.3877C368.126 42.9902 371.256 39.889 375.242 38.0677C379.211 36.2627 383.79 35.3439 388.978 35.3439L388.945 35.3931Z" fill="white"/>
</g>
<g clip-path="url(#clip1_386_1030)">
<path d="M10.1486 157.426L15.3198 169.675C15.5177 170.146 15.7404 170.472 15.9878 170.646C16.2353 170.821 16.4579 170.919 16.6559 170.927V171.321C16.227 171.299 15.7322 171.276 15.1548 171.276C14.5775 171.276 14.0002 171.268 13.4229 171.268C12.7713 171.268 12.1527 171.268 11.5754 171.276C10.9898 171.276 10.5362 171.299 10.1898 171.321V170.927C10.9156 170.904 11.3692 170.79 11.5589 170.586C11.7486 170.381 11.7074 169.949 11.4187 169.281L7.80627 160.187L8.18566 159.679L4.95262 167.43C4.63921 168.151 4.44952 168.735 4.39179 169.19C4.32581 169.645 4.36705 170.002 4.49901 170.244C4.63097 170.495 4.85365 170.661 5.15881 170.76C5.46397 170.859 5.82686 170.912 6.25573 170.927V171.321C5.78562 171.299 5.34026 171.276 4.91138 171.276C4.48251 171.276 4.05364 171.268 3.61652 171.268C3.30311 171.268 3.0062 171.268 2.73403 171.276C2.45362 171.276 2.21444 171.299 2 171.321V170.927C2.29691 170.874 2.60207 170.699 2.91548 170.396C3.22888 170.093 3.53404 169.584 3.83096 168.871L8.68051 157.426C8.9032 157.441 9.15062 157.449 9.41454 157.449C9.67847 157.449 9.91764 157.449 10.1486 157.426ZM11.6414 165.686V166.08H5.29902L5.51345 165.686H11.6414Z" fill="white"/>
<path d="M21.4479 160.93C22.0418 160.93 22.5614 160.998 23.015 161.135C23.4603 161.271 23.782 161.408 23.9799 161.537C24.4583 161.84 24.7635 161.643 24.8707 160.953H25.316C25.2913 161.317 25.2666 161.765 25.2501 162.295C25.2336 162.826 25.2253 163.524 25.2253 164.396H24.78C24.7057 163.911 24.5738 163.441 24.3758 162.97C24.1779 162.5 23.8892 162.113 23.5181 161.818C23.1387 161.514 22.6603 161.37 22.0583 161.37C21.6459 161.37 21.2995 161.476 21.0191 161.696C20.7387 161.909 20.5902 162.22 20.5902 162.629C20.5902 163.039 20.7139 163.365 20.9696 163.653C21.2253 163.941 21.5552 164.23 21.9593 164.495C22.3634 164.761 22.784 165.049 23.2212 165.345C23.6913 165.671 24.1119 165.997 24.4995 166.315C24.8789 166.634 25.1841 166.983 25.415 167.362C25.6377 167.741 25.7532 168.189 25.7532 168.712C25.7532 169.296 25.5717 169.812 25.2006 170.252C24.8294 170.692 24.3428 171.026 23.7408 171.261C23.1387 171.496 22.4706 171.61 21.7284 171.61C21.2995 171.61 20.9201 171.572 20.5902 171.496C20.2603 171.42 19.9716 171.321 19.7325 171.2C19.551 171.124 19.3778 171.048 19.2129 170.972C19.0479 170.904 18.8995 170.836 18.7592 170.783C18.619 170.745 18.4953 170.783 18.3881 170.919C18.2809 171.048 18.1984 171.23 18.1407 171.466H17.6953C17.7201 171.048 17.7448 170.54 17.7613 169.941C17.7778 169.342 17.786 168.545 17.786 167.552H18.2314C18.3139 168.257 18.4706 168.879 18.7015 169.418C18.9242 169.956 19.2376 170.381 19.6252 170.692C20.0129 170.995 20.5077 171.155 21.1015 171.155C21.3407 171.155 21.5799 171.109 21.8026 171.018C22.0253 170.927 22.215 170.775 22.3634 170.57C22.5119 170.366 22.5861 170.093 22.5861 169.767C22.5861 169.19 22.3882 168.72 21.9758 168.341C21.5717 167.961 21.0603 167.552 20.4335 167.104C19.9799 166.763 19.551 166.429 19.1469 166.095C18.7428 165.762 18.4128 165.398 18.1572 165.003C17.9015 164.609 17.7778 164.154 17.7778 163.646C17.7778 163.062 17.951 162.561 18.2891 162.159C18.6273 161.757 19.0809 161.454 19.6417 161.249C20.2026 161.044 20.8046 160.945 21.4397 160.945L21.4479 160.93Z" fill="white"/>
<path d="M31.4934 160.93C32.0872 160.93 32.6068 160.998 33.0604 161.135C33.5058 161.271 33.8274 161.408 34.0254 161.537C34.5037 161.84 34.8089 161.643 34.9161 160.953H35.3615C35.3367 161.317 35.312 161.765 35.2955 162.295C35.279 162.826 35.2707 163.524 35.2707 164.396H34.8254C34.7511 163.911 34.6192 163.441 34.4212 162.97C34.2233 162.5 33.9346 162.113 33.5635 161.818C33.1841 161.514 32.7057 161.37 32.1037 161.37C31.6913 161.37 31.3449 161.476 31.0645 161.696C30.7841 161.909 30.6356 162.22 30.6356 162.629C30.6356 163.039 30.7593 163.365 31.015 163.653C31.2707 163.941 31.6006 164.23 32.0047 164.495C32.4088 164.761 32.8295 165.049 33.2666 165.345C33.7367 165.671 34.1573 165.997 34.5449 166.315C34.9243 166.634 35.2295 166.983 35.4604 167.362C35.6831 167.741 35.7986 168.189 35.7986 168.712C35.7986 169.296 35.6171 169.812 35.246 170.252C34.8749 170.692 34.3882 171.026 33.7862 171.261C33.1841 171.496 32.5161 171.61 31.7738 171.61C31.3449 171.61 30.9655 171.572 30.6356 171.496C30.3057 171.42 30.017 171.321 29.7779 171.2C29.5964 171.124 29.4232 171.048 29.2583 170.972C29.0933 170.904 28.9449 170.836 28.8047 170.783C28.6644 170.745 28.5407 170.783 28.4335 170.919C28.3263 171.048 28.2438 171.23 28.1861 171.466H27.7407C27.7655 171.048 27.7902 170.54 27.8067 169.941C27.8232 169.342 27.8314 168.545 27.8314 167.552H28.2768C28.3593 168.257 28.516 168.879 28.7469 169.418C28.9696 169.956 29.283 170.381 29.6706 170.692C30.0583 170.995 30.5531 171.155 31.147 171.155C31.3861 171.155 31.6253 171.109 31.848 171.018C32.0707 170.927 32.2604 170.775 32.4088 170.57C32.5573 170.366 32.6315 170.093 32.6315 169.767C32.6315 169.19 32.4336 168.72 32.0212 168.341C31.6171 167.961 31.1057 167.552 30.4789 167.104C30.0253 166.763 29.5964 166.429 29.1923 166.095C28.7882 165.762 28.4583 165.398 28.2026 165.003C27.9469 164.609 27.8232 164.154 27.8232 163.646C27.8232 163.062 27.9964 162.561 28.3345 162.159C28.6727 161.757 29.1263 161.454 29.6871 161.249C30.248 161.044 30.85 160.945 31.4851 160.945L31.4934 160.93Z" fill="white"/>
<path d="M42.8086 160.93C44.054 160.93 45.0355 161.271 45.7448 161.947C46.4541 162.622 46.8087 163.737 46.8087 165.276H39.8065L39.7653 164.905H44.1282C44.1447 164.267 44.1035 163.676 44.0045 163.137C43.9056 162.599 43.7489 162.159 43.5344 161.833C43.32 161.507 43.0396 161.347 42.6849 161.347C42.1901 161.347 41.7694 161.636 41.4231 162.212C41.0767 162.788 40.8622 163.737 40.7962 165.071L40.8622 165.185C40.8457 165.345 40.8375 165.504 40.8292 165.671C40.8292 165.838 40.821 166.02 40.821 166.202C40.821 167.104 40.9612 167.832 41.2334 168.394C41.5138 168.955 41.8602 169.364 42.289 169.615C42.7179 169.865 43.1468 169.994 43.5839 169.994C43.8808 169.994 44.1942 169.949 44.5076 169.865C44.8293 169.782 45.1509 169.622 45.4726 169.395C45.8025 169.167 46.1077 168.841 46.3881 168.424L46.7675 168.538C46.5943 169.031 46.3303 169.516 45.9592 169.986C45.5881 170.457 45.118 170.844 44.5571 171.139C43.988 171.443 43.3117 171.587 42.5117 171.587C41.5468 171.587 40.6973 171.397 39.955 171.018C39.221 170.639 38.6354 170.062 38.223 169.296C37.8024 168.53 37.5962 167.552 37.5962 166.361C37.5962 165.17 37.8189 164.139 38.2642 163.327C38.7096 162.515 39.3282 161.916 40.1117 161.514C40.8952 161.12 41.7942 160.915 42.8004 160.915L42.8086 160.93Z" fill="white"/>
<path d="M52.4665 160.93C53.0603 160.93 53.5799 160.998 54.0335 161.135C54.4789 161.271 54.8006 161.408 54.9985 161.537C55.4769 161.84 55.782 161.643 55.8892 160.953H56.3346C56.3099 161.317 56.2851 161.765 56.2686 162.295C56.2521 162.826 56.2439 163.524 56.2439 164.396H55.7985C55.7243 163.911 55.5923 163.441 55.3944 162.97C55.1964 162.5 54.9078 162.113 54.5366 161.818C54.1572 161.514 53.6789 161.37 53.0768 161.37C52.6644 161.37 52.318 161.476 52.0376 161.696C51.7572 161.909 51.6088 162.22 51.6088 162.629C51.6088 163.039 51.7325 163.365 51.9881 163.653C52.2438 163.941 52.5737 164.23 52.9778 164.495C53.382 164.761 53.8026 165.049 54.2397 165.345C54.7098 165.671 55.1305 165.997 55.5181 166.315C55.8975 166.634 56.2026 166.983 56.4336 167.362C56.6563 167.741 56.7717 168.189 56.7717 168.712C56.7717 169.296 56.5903 169.812 56.2191 170.252C55.848 170.692 55.3614 171.026 54.7593 171.261C54.1572 171.496 53.4892 171.61 52.7469 171.61C52.318 171.61 51.9387 171.572 51.6088 171.496C51.2789 171.42 50.9902 171.321 50.751 171.2C50.5696 171.124 50.3964 171.048 50.2314 170.972C50.0665 170.904 49.918 170.836 49.7778 170.783C49.6376 170.745 49.5139 170.783 49.4067 170.919C49.2994 171.048 49.217 171.23 49.1592 171.466H48.7139C48.7386 171.048 48.7634 170.54 48.7798 169.941C48.7963 169.342 48.8046 168.545 48.8046 167.552H49.25C49.3324 168.257 49.4891 168.879 49.7201 169.418C49.9428 169.956 50.2562 170.381 50.6438 170.692C51.0314 170.995 51.5263 171.155 52.1201 171.155C52.3593 171.155 52.5985 171.109 52.8211 171.018C53.0438 170.927 53.2335 170.775 53.382 170.57C53.5304 170.366 53.6047 170.093 53.6047 169.767C53.6047 169.19 53.4067 168.72 52.9943 168.341C52.5902 167.961 52.0789 167.552 51.4521 167.104C50.9984 166.763 50.5696 166.429 50.1654 166.095C49.7613 165.762 49.4314 165.398 49.1757 165.003C48.9201 164.609 48.7963 164.154 48.7963 163.646C48.7963 163.062 48.9695 162.561 49.3077 162.159C49.6458 161.757 50.0995 161.454 50.6603 161.249C51.2211 161.044 51.8232 160.945 52.4583 160.945L52.4665 160.93Z" fill="white"/>
<path d="M62.5124 160.93C63.1062 160.93 63.6258 160.998 64.0794 161.135C64.5248 161.271 64.8465 161.408 65.0444 161.537C65.5228 161.84 65.8279 161.643 65.9351 160.953H66.3805C66.3558 161.317 66.331 161.765 66.3145 162.295C66.298 162.826 66.2898 163.524 66.2898 164.396H65.8444C65.7702 163.911 65.6382 163.441 65.4403 162.97C65.2423 162.5 64.9537 162.113 64.5825 161.818C64.2031 161.514 63.7248 161.37 63.1227 161.37C62.7103 161.37 62.3639 161.476 62.0835 161.696C61.8031 161.909 61.6547 162.22 61.6547 162.629C61.6547 163.039 61.7784 163.365 62.034 163.653C62.2897 163.941 62.6196 164.23 63.0237 164.495C63.4279 164.761 63.8485 165.049 64.2856 165.345C64.7557 165.671 65.1764 165.997 65.564 166.315C65.9434 166.634 66.2485 166.983 66.4795 167.362C66.7022 167.741 66.8176 168.189 66.8176 168.712C66.8176 169.296 66.6362 169.812 66.265 170.252C65.8939 170.692 65.4073 171.026 64.8052 171.261C64.2031 171.496 63.5351 171.61 62.7928 171.61C62.3639 171.61 61.9846 171.572 61.6547 171.496C61.3248 171.42 61.0361 171.321 60.7969 171.2C60.6155 171.124 60.4423 171.048 60.2773 170.972C60.1124 170.904 59.9639 170.836 59.8237 170.783C59.6835 170.745 59.5598 170.783 59.4526 170.919C59.3453 171.048 59.2629 171.23 59.2051 171.466H58.7598C58.7845 171.048 58.8093 170.54 58.8257 169.941C58.8422 169.342 58.8505 168.545 58.8505 167.552H59.2959C59.3783 168.257 59.535 168.879 59.766 169.418C59.9887 169.956 60.3021 170.381 60.6897 170.692C61.0773 170.995 61.5722 171.155 62.166 171.155C62.4052 171.155 62.6444 171.109 62.867 171.018C63.0897 170.927 63.2794 170.775 63.4279 170.57C63.5763 170.366 63.6506 170.093 63.6506 169.767C63.6506 169.19 63.4526 168.72 63.0402 168.341C62.6361 167.961 62.1248 167.552 61.498 167.104C61.0443 166.763 60.6155 166.429 60.2113 166.095C59.8072 165.762 59.4773 165.398 59.2216 165.003C58.966 164.609 58.8422 164.154 58.8422 163.646C58.8422 163.062 59.0154 162.561 59.3536 162.159C59.6917 161.757 60.1454 161.454 60.7062 161.249C61.267 161.044 61.8691 160.945 62.5042 160.945L62.5124 160.93Z" fill="white"/>
<path d="M78.6772 157.464C79.0318 157.479 79.5102 157.487 80.1123 157.502C80.7143 157.517 81.3164 157.525 81.9102 157.525C82.5948 157.525 83.2546 157.525 83.8896 157.502C84.5247 157.479 84.9783 157.479 85.2505 157.479C86.5701 157.479 87.667 157.616 88.5413 157.881C89.4155 158.147 90.0671 158.533 90.4959 159.049C90.9248 159.557 91.1475 160.172 91.1475 160.892C91.1475 161.332 91.0485 161.78 90.8506 162.235C90.6526 162.69 90.3145 163.099 89.8361 163.486C89.3578 163.873 88.7145 164.176 87.8897 164.404C87.0649 164.632 86.034 164.745 84.7804 164.745H82.735V164.351H84.5659C85.3989 164.351 86.034 164.207 86.4711 163.911C86.9 163.615 87.2052 163.228 87.3619 162.735C87.5268 162.25 87.6093 161.704 87.6093 161.105C87.6093 160.073 87.4113 159.277 87.0155 158.708C86.6196 158.139 85.935 157.858 84.9701 157.858C84.4175 157.858 84.0546 157.972 83.8979 158.192C83.7329 158.412 83.6505 158.867 83.6505 159.542V169.251C83.6505 169.721 83.6917 170.07 83.7659 170.305C83.8402 170.54 83.9969 170.699 84.2195 170.775C84.4422 170.851 84.7886 170.904 85.2422 170.935V171.329C84.8629 171.306 84.3762 171.283 83.7989 171.283C83.2133 171.283 82.6278 171.276 82.0339 171.276C81.3494 171.276 80.7143 171.276 80.1123 171.283C79.5102 171.283 79.0318 171.306 78.6772 171.329V170.935C79.1308 170.912 79.469 170.859 79.6999 170.775C79.9226 170.699 80.0793 170.54 80.1535 170.305C80.2277 170.07 80.269 169.721 80.269 169.251V159.542C80.269 159.057 80.2277 158.708 80.1535 158.473C80.0793 158.245 79.9226 158.086 79.6834 158.002C79.4525 157.919 79.1143 157.866 78.6689 157.858V157.464H78.6772ZM82.702 164.412C83.3123 164.427 83.8402 164.449 84.2855 164.487C84.7309 164.525 85.1268 164.563 85.4649 164.594C85.8031 164.624 86.1082 164.647 86.3804 164.662C87.6753 164.768 88.6237 165.018 89.2423 165.428C89.8609 165.83 90.2567 166.437 90.4464 167.248L90.933 169.266C91.0568 169.789 91.197 170.153 91.3372 170.358C91.4774 170.57 91.6836 170.669 91.9557 170.669C92.1372 170.654 92.2939 170.616 92.4094 170.54C92.5331 170.472 92.665 170.358 92.8052 170.214L93.1021 170.449C92.7228 170.851 92.3104 171.147 91.865 171.321C91.4279 171.496 90.8918 171.587 90.2732 171.587C89.5062 171.587 88.8794 171.435 88.3763 171.139C87.8815 170.836 87.5516 170.282 87.3948 169.478L87.0155 167.521C86.9165 166.975 86.7928 166.497 86.6526 166.08C86.5124 165.671 86.3144 165.345 86.067 165.102C85.8196 164.859 85.4732 164.738 85.0361 164.738H82.735L82.6937 164.404L82.702 164.412Z" fill="white"/>
<path d="M98.8921 160.93C100.138 160.93 101.119 161.271 101.828 161.947C102.538 162.622 102.892 163.737 102.892 165.276H95.89L95.8488 164.905H100.212C100.228 164.267 100.187 163.676 100.088 163.137C99.9891 162.599 99.8324 162.159 99.6179 161.833C99.4035 161.507 99.1231 161.347 98.7684 161.347C98.2736 161.347 97.8529 161.636 97.5065 162.212C97.1602 162.788 96.9457 163.737 96.8797 165.071L96.9457 165.185C96.9292 165.345 96.921 165.504 96.9127 165.671C96.9127 165.838 96.9045 166.02 96.9045 166.202C96.9045 167.104 97.0447 167.832 97.3169 168.394C97.5973 168.955 97.9437 169.364 98.3725 169.615C98.8014 169.865 99.2303 169.994 99.6674 169.994C99.9643 169.994 100.278 169.949 100.591 169.865C100.913 169.782 101.234 169.622 101.556 169.395C101.886 169.167 102.191 168.841 102.472 168.424L102.851 168.538C102.678 169.031 102.414 169.516 102.043 169.986C101.672 170.457 101.201 170.844 100.641 171.139C100.072 171.443 99.3952 171.587 98.5952 171.587C97.6303 171.587 96.7808 171.397 96.0385 171.018C95.3044 170.639 94.7189 170.062 94.3065 169.296C93.8859 168.53 93.6797 167.552 93.6797 166.361C93.6797 165.17 93.9024 164.139 94.3477 163.327C94.7931 162.515 95.4117 161.916 96.1952 161.514C96.9787 161.12 97.8777 160.915 98.8839 160.915L98.8921 160.93Z" fill="white"/>
<path d="M108.657 156.023V162.751C109.012 162.075 109.49 161.598 110.092 161.332C110.694 161.067 111.37 160.93 112.121 160.93C112.731 160.93 113.218 160.998 113.589 161.135C113.96 161.271 114.249 161.461 114.463 161.696C114.702 161.947 114.876 162.265 114.983 162.652C115.09 163.039 115.139 163.57 115.139 164.237V169.501C115.139 170.047 115.238 170.419 115.445 170.616C115.651 170.813 115.997 170.912 116.5 170.912V171.321C116.228 171.306 115.824 171.291 115.28 171.276C114.735 171.261 114.207 171.246 113.696 171.246C113.144 171.246 112.607 171.253 112.088 171.276C111.568 171.299 111.181 171.314 110.925 171.321V170.912C111.354 170.912 111.651 170.813 111.816 170.616C111.989 170.419 112.071 170.047 112.071 169.501V163.418C112.071 163.092 112.038 162.811 111.964 162.568C111.89 162.326 111.758 162.136 111.568 162C111.379 161.863 111.106 161.795 110.752 161.795C110.372 161.795 110.018 161.886 109.696 162.075C109.374 162.265 109.119 162.531 108.929 162.864C108.739 163.206 108.64 163.592 108.64 164.04V169.501C108.64 170.047 108.723 170.419 108.896 170.616C109.069 170.813 109.366 170.912 109.787 170.912V171.321C109.531 171.306 109.152 171.291 108.657 171.276C108.162 171.253 107.659 171.246 107.148 171.246C106.595 171.246 106.034 171.253 105.473 171.276C104.912 171.299 104.492 171.314 104.211 171.321V170.912C104.706 170.912 105.061 170.813 105.267 170.616C105.473 170.419 105.572 170.047 105.572 169.501V158.366C105.572 157.782 105.473 157.343 105.284 157.062C105.094 156.781 104.731 156.645 104.211 156.645V156.235C104.665 156.273 105.102 156.296 105.531 156.296C106.117 156.296 106.669 156.273 107.189 156.228C107.717 156.182 108.195 156.114 108.632 156.023H108.657Z" fill="white"/>
<path d="M120.426 171.458C119.791 171.458 119.255 171.344 118.834 171.124C118.414 170.904 118.1 170.608 117.894 170.237C117.696 169.865 117.597 169.455 117.597 169.016C117.597 168.454 117.737 167.999 118.01 167.643C118.29 167.294 118.645 167.006 119.082 166.778C119.519 166.558 119.989 166.376 120.476 166.232C120.962 166.088 121.432 165.951 121.878 165.815C122.323 165.678 122.686 165.511 122.966 165.329C123.247 165.14 123.379 164.897 123.379 164.594V163.069C123.379 162.728 123.321 162.424 123.197 162.159C123.074 161.893 122.892 161.689 122.645 161.545C122.397 161.4 122.076 161.332 121.68 161.332C121.399 161.332 121.111 161.37 120.83 161.438C120.55 161.507 120.311 161.628 120.129 161.802C120.525 161.931 120.838 162.129 121.053 162.402C121.276 162.667 121.383 162.97 121.383 163.312C121.383 163.752 121.218 164.108 120.88 164.366C120.55 164.624 120.154 164.76 119.7 164.76C119.189 164.76 118.801 164.616 118.537 164.321C118.273 164.025 118.142 163.668 118.142 163.251C118.142 162.872 118.24 162.561 118.447 162.311C118.653 162.06 118.942 161.825 119.304 161.605C119.7 161.4 120.179 161.234 120.739 161.12C121.3 161.006 121.902 160.945 122.562 160.945C123.222 160.945 123.799 161.006 124.327 161.127C124.855 161.249 125.292 161.476 125.647 161.802C125.977 162.106 126.183 162.47 126.282 162.91C126.381 163.35 126.43 163.896 126.43 164.563V169.888C126.43 170.214 126.463 170.442 126.538 170.563C126.612 170.684 126.727 170.752 126.9 170.752C127.024 170.752 127.156 170.722 127.272 170.654C127.395 170.586 127.527 170.51 127.667 170.419L127.882 170.752C127.585 170.988 127.239 171.17 126.851 171.291C126.463 171.412 126.026 171.481 125.54 171.481C125.012 171.481 124.599 171.412 124.286 171.276C123.973 171.139 123.75 170.95 123.618 170.715C123.486 170.479 123.412 170.206 123.412 169.895C123.074 170.388 122.661 170.783 122.175 171.063C121.696 171.344 121.102 171.481 120.41 171.481L120.426 171.458ZM121.935 170.206C122.216 170.206 122.48 170.146 122.711 170.017C122.942 169.895 123.164 169.691 123.379 169.402V165.39C123.255 165.587 123.074 165.762 122.851 165.921C122.62 166.08 122.381 166.24 122.125 166.399C121.869 166.566 121.622 166.74 121.391 166.937C121.16 167.135 120.97 167.377 120.83 167.658C120.69 167.946 120.616 168.287 120.616 168.697C120.616 169.205 120.739 169.584 120.979 169.835C121.218 170.085 121.539 170.206 121.935 170.206Z" fill="white"/>
<path d="M132.764 156.023V170.935C132.41 170.881 132.047 170.881 131.676 170.935C131.305 170.988 130.966 171.071 130.653 171.2C130.34 171.321 130.076 171.473 129.869 171.64L129.548 171.465C129.606 171.283 129.647 171.101 129.663 170.919C129.688 170.737 129.696 170.555 129.696 170.373V158.366C129.696 157.782 129.597 157.343 129.408 157.062C129.218 156.781 128.855 156.645 128.335 156.645V156.235C128.789 156.273 129.226 156.296 129.655 156.296C130.241 156.296 130.793 156.273 131.313 156.228C131.841 156.182 132.319 156.114 132.756 156.023H132.764ZM136.022 160.938C137.127 160.938 138.043 161.355 138.777 162.182C139.511 163.008 139.874 164.283 139.874 166.004C139.874 167.362 139.651 168.447 139.206 169.273C138.76 170.093 138.167 170.692 137.433 171.056C136.698 171.42 135.89 171.602 135.008 171.602C134.422 171.602 133.886 171.511 133.391 171.329C132.896 171.147 132.467 170.844 132.113 170.426L132.41 170.328C132.665 170.616 132.962 170.828 133.317 170.972C133.663 171.117 134.01 171.185 134.348 171.185C135.131 171.185 135.709 170.783 136.096 169.971C136.476 169.16 136.674 167.931 136.674 166.27C136.674 165.147 136.599 164.26 136.451 163.6C136.303 162.94 136.088 162.47 135.799 162.189C135.519 161.909 135.173 161.772 134.777 161.772C134.282 161.772 133.828 161.962 133.416 162.333C133.004 162.705 132.773 163.221 132.715 163.888L132.608 163.206C132.863 162.462 133.292 161.901 133.903 161.514C134.513 161.127 135.222 160.938 136.03 160.938H136.022Z" fill="white"/>
<path d="M145.829 160.991V169.501C145.829 170.047 145.928 170.419 146.134 170.616C146.34 170.813 146.687 170.912 147.19 170.912V171.321C146.918 171.306 146.522 171.291 145.986 171.276C145.449 171.261 144.913 171.246 144.361 171.246C143.808 171.246 143.247 171.253 142.678 171.276C142.109 171.299 141.689 171.314 141.4 171.321V170.912C141.895 170.912 142.249 170.813 142.456 170.616C142.662 170.419 142.761 170.047 142.761 169.501V163.335C142.761 162.751 142.662 162.311 142.472 162.03C142.282 161.749 141.919 161.613 141.4 161.613V161.203C141.854 161.241 142.291 161.264 142.72 161.264C143.313 161.264 143.874 161.241 144.394 161.196C144.913 161.15 145.392 161.082 145.829 160.991ZM144.171 156.159C144.765 156.159 145.235 156.296 145.59 156.561C145.936 156.827 146.109 157.198 146.109 157.669C146.109 158.139 145.936 158.511 145.59 158.776C145.243 159.042 144.773 159.178 144.171 159.178C143.569 159.178 143.107 159.042 142.752 158.776C142.406 158.511 142.233 158.139 142.233 157.669C142.233 157.198 142.406 156.834 142.752 156.561C143.099 156.296 143.569 156.159 144.171 156.159Z" fill="white"/>
<path d="M152.658 156V169.501C152.658 170.047 152.757 170.419 152.963 170.616C153.169 170.813 153.516 170.912 154.019 170.912V171.321C153.747 171.306 153.342 171.291 152.806 171.276C152.27 171.253 151.718 171.246 151.165 171.246C150.612 171.246 150.052 171.253 149.491 171.276C148.93 171.299 148.509 171.314 148.221 171.321V170.912C148.716 170.912 149.07 170.813 149.276 170.616C149.483 170.419 149.582 170.047 149.582 169.501V158.351C149.582 157.767 149.483 157.327 149.293 157.047C149.103 156.766 148.74 156.63 148.221 156.63V156.212C148.674 156.25 149.111 156.273 149.54 156.273C150.118 156.273 150.678 156.25 151.198 156.205C151.726 156.159 152.204 156.091 152.641 156H152.658Z" fill="white"/>
<path d="M159.577 160.991V169.501C159.577 170.047 159.676 170.419 159.883 170.616C160.089 170.813 160.435 170.912 160.938 170.912V171.321C160.666 171.306 160.27 171.291 159.734 171.276C159.198 171.261 158.662 171.246 158.109 171.246C157.557 171.246 156.996 171.253 156.427 171.276C155.858 171.299 155.437 171.314 155.148 171.321V170.912C155.643 170.912 155.998 170.813 156.204 170.616C156.41 170.419 156.509 170.047 156.509 169.501V163.335C156.509 162.751 156.41 162.311 156.221 162.03C156.031 161.749 155.668 161.613 155.148 161.613V161.203C155.602 161.241 156.039 161.264 156.468 161.264C157.062 161.264 157.623 161.241 158.142 161.196C158.662 161.15 159.14 161.082 159.577 160.991ZM157.92 156.159C158.513 156.159 158.984 156.296 159.338 156.561C159.685 156.827 159.858 157.198 159.858 157.669C159.858 158.139 159.685 158.511 159.338 158.776C158.992 159.042 158.522 159.178 157.92 159.178C157.318 159.178 156.856 159.042 156.501 158.776C156.155 158.511 155.981 158.139 155.981 157.669C155.981 157.198 156.155 156.834 156.501 156.561C156.847 156.296 157.318 156.159 157.92 156.159Z" fill="white"/>
<path d="M166.382 157.995V161.203H168.889V161.598H166.382V169.501C166.382 169.895 166.456 170.168 166.613 170.335C166.769 170.502 167 170.578 167.314 170.578C167.569 170.578 167.825 170.487 168.081 170.313C168.336 170.138 168.559 169.835 168.765 169.402L169.128 169.577C168.897 170.161 168.559 170.646 168.097 171.026C167.635 171.405 167.009 171.594 166.217 171.594C165.747 171.594 165.334 171.541 164.98 171.428C164.625 171.314 164.328 171.147 164.089 170.927C163.776 170.639 163.569 170.282 163.47 169.857C163.371 169.433 163.322 168.879 163.322 168.204V161.598H161.532V161.203H163.322V158.617C163.916 158.617 164.468 158.571 164.971 158.473C165.475 158.374 165.945 158.215 166.39 157.995H166.382Z" fill="white"/>
<path d="M172.699 171.458C172.064 171.458 171.528 171.344 171.107 171.124C170.687 170.904 170.373 170.608 170.167 170.237C169.969 169.865 169.87 169.455 169.87 169.016C169.87 168.454 170.01 167.999 170.282 167.643C170.563 167.294 170.918 167.006 171.355 166.778C171.792 166.558 172.262 166.376 172.749 166.232C173.235 166.088 173.705 165.951 174.151 165.815C174.596 165.678 174.959 165.511 175.239 165.329C175.52 165.14 175.652 164.897 175.652 164.594V163.069C175.652 162.728 175.594 162.424 175.47 162.159C175.346 161.893 175.165 161.689 174.918 161.545C174.67 161.4 174.349 161.332 173.953 161.332C173.672 161.332 173.384 161.37 173.103 161.438C172.823 161.507 172.584 161.628 172.402 161.802C172.798 161.931 173.111 162.129 173.326 162.402C173.549 162.667 173.656 162.97 173.656 163.312C173.656 163.752 173.491 164.108 173.153 164.366C172.823 164.624 172.427 164.76 171.973 164.76C171.462 164.76 171.074 164.616 170.81 164.321C170.546 164.025 170.414 163.668 170.414 163.251C170.414 162.872 170.513 162.561 170.72 162.311C170.926 162.06 171.214 161.825 171.577 161.605C171.973 161.4 172.452 161.234 173.012 161.12C173.573 161.006 174.175 160.945 174.835 160.945C175.495 160.945 176.072 161.006 176.6 161.127C177.128 161.249 177.565 161.476 177.92 161.802C178.25 162.106 178.456 162.47 178.555 162.91C178.654 163.35 178.703 163.896 178.703 164.563V169.888C178.703 170.214 178.736 170.442 178.81 170.563C178.885 170.684 179 170.752 179.173 170.752C179.297 170.752 179.429 170.722 179.544 170.654C179.668 170.586 179.8 170.51 179.94 170.419L180.155 170.752C179.858 170.988 179.511 171.17 179.124 171.291C178.736 171.412 178.299 171.481 177.813 171.481C177.285 171.481 176.872 171.412 176.559 171.276C176.245 171.139 176.023 170.95 175.891 170.715C175.759 170.479 175.685 170.206 175.685 169.895C175.346 170.388 174.934 170.783 174.448 171.063C173.969 171.344 173.375 171.481 172.683 171.481L172.699 171.458ZM174.208 170.206C174.489 170.206 174.753 170.146 174.984 170.017C175.215 169.895 175.437 169.691 175.652 169.402V165.39C175.528 165.587 175.346 165.762 175.124 165.921C174.893 166.08 174.654 166.24 174.398 166.399C174.142 166.566 173.895 166.74 173.664 166.937C173.433 167.135 173.243 167.377 173.103 167.658C172.963 167.946 172.889 168.287 172.889 168.697C172.889 169.205 173.012 169.584 173.252 169.835C173.491 170.085 173.812 170.206 174.208 170.206Z" fill="white"/>
<path d="M185.318 157.995V161.203H187.825V161.598H185.318V169.501C185.318 169.895 185.392 170.168 185.549 170.335C185.705 170.502 185.936 170.578 186.25 170.578C186.505 170.578 186.761 170.487 187.017 170.313C187.272 170.138 187.495 169.835 187.701 169.402L188.064 169.577C187.833 170.161 187.495 170.646 187.033 171.026C186.571 171.405 185.945 171.594 185.153 171.594C184.683 171.594 184.27 171.541 183.916 171.428C183.561 171.314 183.264 171.147 183.025 170.927C182.712 170.639 182.505 170.282 182.406 169.857C182.307 169.433 182.258 168.879 182.258 168.204V161.598H180.468V161.203H182.258V158.617C182.852 158.617 183.404 158.571 183.907 158.473C184.411 158.374 184.881 158.215 185.326 157.995H185.318Z" fill="white"/>
<path d="M194.192 160.93C195.438 160.93 196.419 161.271 197.129 161.947C197.838 162.622 198.192 163.737 198.192 165.276H191.19L191.149 164.905H195.512C195.529 164.267 195.487 163.676 195.388 163.137C195.289 162.599 195.133 162.159 194.918 161.833C194.704 161.507 194.423 161.347 194.069 161.347C193.574 161.347 193.153 161.636 192.807 162.212C192.46 162.788 192.246 163.737 192.18 165.071L192.246 165.185C192.23 165.345 192.221 165.504 192.213 165.671C192.213 165.838 192.205 166.02 192.205 166.202C192.205 167.104 192.345 167.832 192.617 168.394C192.898 168.955 193.244 169.364 193.673 169.615C194.102 169.865 194.531 169.994 194.968 169.994C195.265 169.994 195.578 169.949 195.891 169.865C196.213 169.782 196.535 169.622 196.856 169.395C197.186 169.167 197.491 168.841 197.772 168.424L198.151 168.538C197.978 169.031 197.714 169.516 197.343 169.986C196.972 170.457 196.502 170.844 195.941 171.139C195.372 171.443 194.696 171.587 193.896 171.587C192.931 171.587 192.081 171.397 191.339 171.018C190.605 170.639 190.019 170.062 189.607 169.296C189.186 168.53 188.98 167.552 188.98 166.361C188.98 165.17 189.203 164.139 189.648 163.327C190.093 162.515 190.712 161.916 191.495 161.514C192.279 161.12 193.178 160.915 194.184 160.915L194.192 160.93Z" fill="white"/>
<path d="M214.919 157.214C215.752 157.214 216.403 157.297 216.857 157.456C217.311 157.623 217.698 157.79 218.028 157.972C218.201 158.063 218.333 158.131 218.44 158.177C218.548 158.222 218.647 158.245 218.746 158.245C218.886 158.245 218.993 158.177 219.051 158.033C219.117 157.889 219.166 157.676 219.208 157.388H219.694C219.678 157.638 219.661 157.934 219.645 158.275C219.62 158.624 219.612 159.072 219.603 159.633C219.603 160.194 219.595 160.93 219.595 161.848H219.109C219.051 161.173 218.878 160.513 218.597 159.868C218.317 159.231 217.913 158.7 217.393 158.291C216.873 157.881 216.238 157.676 215.488 157.676C214.803 157.676 214.242 157.851 213.805 158.207C213.368 158.556 213.146 159.049 213.146 159.671C213.146 160.194 213.286 160.642 213.574 161.014C213.855 161.385 214.275 161.749 214.82 162.098C215.364 162.447 216.032 162.872 216.807 163.372C217.492 163.774 218.094 164.184 218.638 164.586C219.175 164.988 219.612 165.451 219.933 165.959C220.263 166.467 220.42 167.074 220.42 167.779C220.42 168.636 220.172 169.349 219.686 169.911C219.199 170.472 218.556 170.889 217.764 171.17C216.972 171.45 216.098 171.587 215.15 171.587C214.267 171.587 213.566 171.511 213.047 171.352C212.519 171.192 212.082 171.033 211.727 170.866C211.414 170.684 211.174 170.593 211.001 170.593C210.861 170.593 210.754 170.661 210.696 170.806C210.63 170.95 210.581 171.162 210.539 171.45H210.053C210.077 171.139 210.102 170.775 210.102 170.358C210.102 169.941 210.119 169.395 210.127 168.727C210.127 168.052 210.135 167.203 210.135 166.171H210.622C210.68 167.028 210.836 167.84 211.1 168.591C211.364 169.342 211.768 169.941 212.313 170.404C212.857 170.859 213.583 171.086 214.49 171.086C214.985 171.086 215.43 171.003 215.818 170.844C216.205 170.684 216.527 170.434 216.766 170.108C217.005 169.782 217.129 169.38 217.129 168.894C217.129 168.348 216.989 167.87 216.717 167.468C216.436 167.066 216.065 166.687 215.587 166.331C215.108 165.982 214.564 165.618 213.937 165.253C213.269 164.851 212.642 164.442 212.065 164.04C211.48 163.638 211.018 163.175 210.671 162.652C210.325 162.129 210.152 161.514 210.152 160.794C210.152 159.974 210.374 159.299 210.82 158.768C211.265 158.238 211.859 157.851 212.585 157.593C213.319 157.335 214.094 157.214 214.911 157.214H214.919Z" fill="white"/>
<path d="M232.618 160.991V169.19C232.618 169.774 232.717 170.214 232.915 170.495C233.113 170.775 233.468 170.912 233.979 170.912V171.321C233.542 171.283 233.096 171.261 232.659 171.261C232.066 171.261 231.513 171.283 231.002 171.321C230.49 171.359 230.012 171.435 229.558 171.534V169.774C229.22 170.426 228.75 170.897 228.14 171.17C227.538 171.45 226.87 171.587 226.127 171.587C225.533 171.587 225.047 171.519 224.684 171.374C224.313 171.23 224.024 171.048 223.81 170.828C223.571 170.578 223.397 170.252 223.298 169.85C223.199 169.448 223.15 168.925 223.15 168.287V163.334C223.15 162.75 223.051 162.311 222.861 162.03C222.672 161.749 222.309 161.613 221.789 161.613V161.203C222.243 161.241 222.68 161.264 223.109 161.264C223.702 161.264 224.263 161.241 224.783 161.196C225.303 161.15 225.781 161.082 226.218 160.991V169.091C226.218 169.418 226.251 169.706 226.317 169.956C226.383 170.206 226.507 170.396 226.688 170.533C226.87 170.669 227.142 170.737 227.496 170.737C227.876 170.737 228.222 170.639 228.527 170.441C228.832 170.244 229.08 169.979 229.27 169.63C229.459 169.281 229.558 168.894 229.558 168.469V163.342C229.558 162.758 229.459 162.318 229.27 162.037C229.08 161.757 228.717 161.62 228.197 161.62V161.211C228.651 161.249 229.088 161.271 229.517 161.271C230.111 161.271 230.672 161.249 231.191 161.203C231.711 161.158 232.189 161.089 232.626 160.998L232.618 160.991Z" fill="white"/>
<path d="M239.472 160.991V172.929C239.472 173.544 239.645 173.953 239.983 174.15C240.321 174.355 240.792 174.454 241.385 174.454V174.863C241.014 174.848 240.511 174.833 239.868 174.818C239.225 174.795 238.54 174.788 237.814 174.788C237.286 174.788 236.775 174.795 236.272 174.818C235.769 174.841 235.389 174.856 235.134 174.863V174.454C235.604 174.454 235.934 174.363 236.123 174.181C236.313 173.999 236.412 173.642 236.412 173.127V163.342C236.412 162.758 236.313 162.318 236.115 162.038C235.917 161.757 235.563 161.62 235.051 161.62V161.211C235.505 161.249 235.942 161.271 236.371 161.271C236.948 161.271 237.509 161.249 238.029 161.203C238.556 161.158 239.035 161.089 239.472 160.998V160.991ZM242.771 160.93C243.497 160.93 244.14 161.112 244.709 161.469C245.278 161.825 245.732 162.371 246.07 163.092C246.408 163.812 246.581 164.723 246.581 165.8C246.581 166.755 246.466 167.59 246.227 168.303C245.996 169.023 245.658 169.622 245.229 170.115C244.8 170.601 244.28 170.972 243.678 171.223C243.076 171.473 242.4 171.594 241.649 171.594C241.097 171.594 240.594 171.503 240.14 171.329C239.686 171.154 239.34 170.904 239.101 170.578L239.315 170.32C239.455 170.555 239.662 170.737 239.926 170.866C240.189 170.995 240.486 171.063 240.833 171.063C241.468 171.063 241.971 170.866 242.342 170.464C242.713 170.07 242.977 169.509 243.142 168.78C243.307 168.06 243.39 167.195 243.39 166.186C243.39 165.064 243.315 164.184 243.159 163.547C243.002 162.91 242.787 162.455 242.524 162.174C242.251 161.901 241.93 161.764 241.542 161.764C241.031 161.764 240.569 161.946 240.148 162.311C239.728 162.675 239.488 163.198 239.439 163.873L239.332 163.19C239.587 162.447 240.025 161.886 240.643 161.499C241.262 161.112 241.979 160.923 242.804 160.923L242.771 160.93Z" fill="white"/>
<path d="M252.445 160.991V172.929C252.445 173.544 252.618 173.953 252.956 174.15C253.295 174.355 253.765 174.454 254.359 174.454V174.863C253.987 174.848 253.484 174.833 252.841 174.818C252.198 174.795 251.513 174.788 250.787 174.788C250.26 174.788 249.748 174.795 249.245 174.818C248.742 174.841 248.363 174.856 248.107 174.863V174.454C248.577 174.454 248.907 174.363 249.097 174.181C249.286 173.999 249.385 173.642 249.385 173.127V163.342C249.385 162.758 249.286 162.318 249.088 162.038C248.89 161.757 248.536 161.62 248.024 161.62V161.211C248.478 161.249 248.915 161.271 249.344 161.271C249.921 161.271 250.482 161.249 251.002 161.203C251.53 161.158 252.008 161.089 252.445 160.998V160.991ZM255.744 160.93C256.47 160.93 257.113 161.112 257.682 161.469C258.251 161.825 258.705 162.371 259.043 163.092C259.381 163.812 259.554 164.723 259.554 165.8C259.554 166.755 259.439 167.59 259.2 168.303C258.969 169.023 258.631 169.622 258.202 170.115C257.773 170.601 257.253 170.972 256.651 171.223C256.049 171.473 255.373 171.594 254.622 171.594C254.07 171.594 253.567 171.503 253.113 171.329C252.66 171.154 252.313 170.904 252.074 170.578L252.288 170.32C252.429 170.555 252.635 170.737 252.899 170.866C253.163 170.995 253.46 171.063 253.806 171.063C254.441 171.063 254.944 170.866 255.315 170.464C255.686 170.07 255.95 169.509 256.115 168.78C256.28 168.06 256.363 167.195 256.363 166.186C256.363 165.064 256.288 164.184 256.132 163.547C255.975 162.91 255.761 162.455 255.497 162.174C255.225 161.901 254.903 161.764 254.515 161.764C254.004 161.764 253.542 161.946 253.121 162.311C252.701 162.675 252.462 163.198 252.412 163.873L252.305 163.19C252.561 162.447 252.998 161.886 253.616 161.499C254.235 161.112 254.952 160.923 255.777 160.923L255.744 160.93Z" fill="white"/>
<path d="M266.573 160.93C267.613 160.93 268.52 161.105 269.295 161.461C270.079 161.81 270.689 162.379 271.126 163.16C271.563 163.941 271.786 164.98 271.786 166.27C271.786 167.559 271.563 168.598 271.126 169.372C270.689 170.146 270.079 170.715 269.295 171.063C268.512 171.412 267.604 171.594 266.573 171.594C265.542 171.594 264.668 171.42 263.885 171.063C263.101 170.707 262.483 170.146 262.037 169.372C261.592 168.598 261.369 167.559 261.369 166.27C261.369 164.98 261.592 163.941 262.037 163.16C262.483 162.379 263.101 161.81 263.885 161.461C264.668 161.112 265.567 160.93 266.573 160.93ZM266.573 161.325C266.004 161.325 265.534 161.711 265.147 162.485C264.767 163.259 264.569 164.525 264.569 166.27C264.569 168.014 264.759 169.273 265.147 170.047C265.526 170.821 266.004 171.2 266.573 171.2C267.142 171.2 267.637 170.813 268.008 170.047C268.388 169.281 268.569 168.022 268.569 166.27C268.569 164.518 268.38 163.259 268.008 162.485C267.629 161.711 267.151 161.325 266.573 161.325Z" fill="white"/>
<path d="M280.644 160.93C281.097 160.93 281.468 161.021 281.749 161.196C282.029 161.37 282.244 161.598 282.376 161.871C282.508 162.144 282.582 162.432 282.582 162.728C282.582 163.213 282.425 163.608 282.128 163.911C281.823 164.214 281.419 164.374 280.924 164.374C280.429 164.374 280.042 164.26 279.761 164.032C279.481 163.805 279.349 163.501 279.349 163.122C279.349 162.743 279.44 162.455 279.613 162.212C279.786 161.969 280.017 161.764 280.281 161.598C280.083 161.544 279.885 161.552 279.687 161.62C279.415 161.658 279.159 161.757 278.92 161.924C278.681 162.091 278.475 162.288 278.301 162.531C278.128 162.773 277.996 163.031 277.897 163.312C277.798 163.592 277.749 163.865 277.749 164.123V169.311C277.749 169.941 277.914 170.358 278.252 170.586C278.582 170.806 279.085 170.919 279.753 170.919V171.329C279.423 171.314 278.953 171.299 278.326 171.283C277.699 171.261 277.048 171.253 276.371 171.253C275.802 171.253 275.233 171.261 274.648 171.283C274.062 171.306 273.625 171.321 273.328 171.329V170.919C273.823 170.919 274.178 170.821 274.384 170.624C274.59 170.426 274.689 170.055 274.689 169.509V163.342C274.689 162.758 274.59 162.318 274.4 162.038C274.211 161.757 273.848 161.62 273.328 161.62V161.211C273.782 161.249 274.219 161.271 274.648 161.271C275.242 161.271 275.802 161.249 276.322 161.203C276.842 161.158 277.32 161.089 277.757 160.998V162.819C277.93 162.47 278.153 162.144 278.442 161.863C278.722 161.575 279.052 161.355 279.423 161.188C279.794 161.029 280.207 160.945 280.66 160.945L280.644 160.93Z" fill="white"/>
<path d="M287.786 157.995V161.203H290.293V161.598H287.786V169.501C287.786 169.895 287.86 170.168 288.017 170.335C288.174 170.502 288.405 170.578 288.718 170.578C288.974 170.578 289.229 170.487 289.485 170.313C289.741 170.138 289.963 169.835 290.17 169.402L290.533 169.577C290.302 170.161 289.963 170.646 289.502 171.026C289.04 171.405 288.413 171.594 287.621 171.594C287.151 171.594 286.739 171.541 286.384 171.428C286.029 171.314 285.732 171.147 285.493 170.927C285.18 170.639 284.974 170.282 284.875 169.857C284.776 169.433 284.726 168.879 284.726 168.204V161.598H282.937V161.203H284.726V158.617C285.32 158.617 285.873 158.571 286.376 158.473C286.879 158.374 287.349 158.215 287.794 157.995H287.786Z" fill="white"/>
<path d="M302.384 157.464C302.738 157.479 303.217 157.487 303.819 157.502C304.421 157.517 305.023 157.525 305.617 157.525C306.301 157.525 306.961 157.525 307.596 157.502C308.231 157.479 308.685 157.479 308.957 157.479C310.277 157.479 311.374 157.616 312.248 157.881C313.122 158.147 313.774 158.533 314.202 159.049C314.631 159.557 314.854 160.172 314.854 160.892C314.854 161.332 314.755 161.78 314.557 162.235C314.359 162.69 314.021 163.099 313.543 163.486C313.064 163.873 312.421 164.176 311.596 164.404C310.771 164.632 309.741 164.745 308.487 164.745H306.442V164.351H308.272C309.105 164.351 309.741 164.207 310.178 163.911C310.607 163.615 310.912 163.228 311.068 162.735C311.233 162.25 311.316 161.704 311.316 161.105C311.316 160.073 311.118 159.277 310.722 158.708C310.326 158.139 309.642 157.858 308.677 157.858C308.124 157.858 307.761 157.972 307.604 158.192C307.439 158.412 307.357 158.867 307.357 159.542V169.251C307.357 169.721 307.398 170.07 307.472 170.305C307.547 170.54 307.703 170.699 307.926 170.775C308.149 170.851 308.495 170.904 308.949 170.935V171.329C308.569 171.306 308.083 171.283 307.505 171.283C306.92 171.283 306.334 171.276 305.74 171.276C305.056 171.276 304.421 171.276 303.819 171.283C303.217 171.283 302.738 171.306 302.384 171.329V170.935C302.837 170.912 303.176 170.859 303.406 170.775C303.629 170.699 303.786 170.54 303.86 170.305C303.934 170.07 303.976 169.721 303.976 169.251V159.542C303.976 159.057 303.934 158.708 303.86 158.473C303.786 158.245 303.629 158.086 303.39 158.002C303.159 157.919 302.821 157.866 302.375 157.858V157.464H302.384ZM306.409 164.412C307.019 164.427 307.547 164.449 307.992 164.487C308.437 164.525 308.833 164.563 309.171 164.594C309.51 164.624 309.815 164.647 310.087 164.662C311.382 164.768 312.33 165.018 312.949 165.428C313.567 165.83 313.963 166.437 314.153 167.248L314.64 169.266C314.763 169.789 314.903 170.153 315.044 170.358C315.184 170.57 315.39 170.669 315.662 170.669C315.844 170.654 316 170.616 316.116 170.54C316.24 170.472 316.372 170.358 316.512 170.214L316.809 170.449C316.429 170.851 316.017 171.147 315.572 171.321C315.134 171.496 314.598 171.587 313.98 171.587C313.213 171.587 312.586 171.435 312.083 171.139C311.588 170.836 311.258 170.282 311.101 169.478L310.722 167.521C310.623 166.975 310.499 166.497 310.359 166.08C310.219 165.671 310.021 165.345 309.774 165.102C309.526 164.859 309.18 164.738 308.743 164.738H306.442L306.4 164.404L306.409 164.412Z" fill="white"/>
<path d="M322.599 160.93C323.844 160.93 324.826 161.271 325.535 161.947C326.244 162.622 326.599 163.737 326.599 165.276H319.597L319.555 164.905H323.918C323.935 164.267 323.894 163.676 323.795 163.137C323.696 162.599 323.539 162.159 323.324 161.833C323.11 161.507 322.83 161.347 322.475 161.347C321.98 161.347 321.56 161.636 321.213 162.212C320.867 162.788 320.652 163.737 320.586 165.071L320.652 165.185C320.636 165.345 320.628 165.504 320.619 165.671C320.619 165.838 320.611 166.02 320.611 166.202C320.611 167.104 320.751 167.832 321.023 168.394C321.304 168.955 321.65 169.364 322.079 169.615C322.508 169.865 322.937 169.994 323.374 169.994C323.671 169.994 323.984 169.949 324.298 169.865C324.619 169.782 324.941 169.622 325.263 169.395C325.593 169.167 325.898 168.841 326.178 168.424L326.557 168.538C326.384 169.031 326.12 169.516 325.749 169.986C325.378 170.457 324.908 170.844 324.347 171.139C323.778 171.443 323.102 171.587 322.302 171.587C321.337 171.587 320.487 171.397 319.745 171.018C319.011 170.639 318.425 170.062 318.013 169.296C317.592 168.53 317.386 167.552 317.386 166.361C317.386 165.17 317.609 164.139 318.054 163.327C318.5 162.515 319.118 161.916 319.902 161.514C320.685 161.12 321.584 160.915 322.59 160.915L322.599 160.93Z" fill="white"/>
<path d="M332.471 160.991V169.501C332.471 170.047 332.57 170.419 332.776 170.616C332.982 170.813 333.329 170.912 333.832 170.912V171.321C333.56 171.306 333.164 171.291 332.628 171.276C332.092 171.261 331.555 171.246 331.003 171.246C330.45 171.246 329.889 171.253 329.32 171.276C328.751 171.299 328.331 171.314 328.042 171.321V170.912C328.537 170.912 328.891 170.813 329.098 170.616C329.304 170.419 329.403 170.047 329.403 169.501V163.335C329.403 162.751 329.304 162.311 329.114 162.03C328.924 161.749 328.562 161.613 328.042 161.613V161.203C328.496 161.241 328.933 161.264 329.362 161.264C329.955 161.264 330.516 161.241 331.036 161.196C331.555 161.15 332.034 161.082 332.471 160.991ZM330.813 156.159C331.407 156.159 331.877 156.296 332.232 156.561C332.578 156.827 332.751 157.198 332.751 157.669C332.751 158.139 332.578 158.511 332.232 158.776C331.885 159.042 331.415 159.178 330.813 159.178C330.211 159.178 329.749 159.042 329.395 158.776C329.048 158.511 328.875 158.139 328.875 157.669C328.875 157.198 329.048 156.834 329.395 156.561C329.741 156.296 330.211 156.159 330.813 156.159Z" fill="white"/>
<path d="M342.871 160.93C343.465 160.93 343.951 160.998 344.331 161.135C344.71 161.271 344.999 161.461 345.213 161.696C345.444 161.947 345.609 162.265 345.716 162.652C345.823 163.039 345.873 163.57 345.873 164.237V169.501C345.873 170.047 345.972 170.419 346.178 170.616C346.384 170.813 346.731 170.912 347.234 170.912V171.321C346.962 171.306 346.557 171.291 346.021 171.276C345.485 171.253 344.949 171.246 344.43 171.246C343.91 171.246 343.366 171.253 342.846 171.276C342.326 171.299 341.931 171.314 341.667 171.321V170.912C342.096 170.912 342.392 170.813 342.557 170.616C342.731 170.419 342.813 170.047 342.813 169.501V163.418C342.813 163.092 342.78 162.811 342.706 162.568C342.632 162.326 342.508 162.136 342.327 162C342.145 161.863 341.865 161.795 341.493 161.795C341.122 161.795 340.759 161.893 340.438 162.091C340.116 162.288 339.86 162.561 339.671 162.902C339.481 163.251 339.382 163.638 339.382 164.07V169.509C339.382 170.055 339.473 170.426 339.646 170.624C339.819 170.821 340.116 170.919 340.529 170.919V171.329C340.273 171.314 339.902 171.299 339.415 171.283C338.928 171.261 338.417 171.253 337.898 171.253C337.378 171.253 336.809 171.261 336.24 171.283C335.671 171.306 335.25 171.321 334.961 171.329V170.919C335.456 170.919 335.811 170.821 336.017 170.624C336.223 170.426 336.322 170.055 336.322 169.509V163.342C336.322 162.758 336.223 162.318 336.034 162.038C335.844 161.757 335.481 161.62 334.961 161.62V161.211C335.415 161.249 335.852 161.271 336.281 161.271C336.875 161.271 337.436 161.249 337.955 161.203C338.475 161.158 338.953 161.089 339.39 160.998V162.758C339.745 162.091 340.223 161.62 340.834 161.347C341.444 161.074 342.12 160.938 342.879 160.938L342.871 160.93Z" fill="white"/>
<path d="M352.554 157.995V161.203H355.061V161.598H352.554V169.501C352.554 169.895 352.628 170.168 352.785 170.335C352.941 170.502 353.172 170.578 353.486 170.578C353.741 170.578 353.997 170.487 354.253 170.313C354.508 170.138 354.731 169.835 354.937 169.402L355.3 169.577C355.069 170.161 354.731 170.646 354.269 171.026C353.807 171.405 353.18 171.594 352.389 171.594C351.919 171.594 351.506 171.541 351.152 171.428C350.797 171.314 350.5 171.147 350.261 170.927C349.947 170.639 349.741 170.282 349.642 169.857C349.543 169.433 349.494 168.879 349.494 168.204V161.598H347.704V161.203H349.494V158.617C350.088 158.617 350.64 158.571 351.143 158.473C351.646 158.374 352.117 158.215 352.562 157.995H352.554Z" fill="white"/>
<path d="M361.428 160.93C362.673 160.93 363.655 161.271 364.364 161.947C365.073 162.622 365.428 163.737 365.428 165.276H358.426L358.384 164.905H362.747C362.764 164.267 362.723 163.676 362.624 163.137C362.525 162.599 362.368 162.159 362.154 161.833C361.939 161.507 361.659 161.347 361.304 161.347C360.809 161.347 360.389 161.636 360.042 162.212C359.696 162.788 359.481 163.737 359.415 165.071L359.481 165.185C359.465 165.345 359.457 165.504 359.448 165.671C359.448 165.838 359.44 166.02 359.44 166.202C359.44 167.104 359.58 167.832 359.853 168.394C360.133 168.955 360.479 169.364 360.908 169.615C361.337 169.865 361.766 169.994 362.203 169.994C362.5 169.994 362.813 169.949 363.127 169.865C363.448 169.782 363.77 169.622 364.092 169.395C364.422 169.167 364.727 168.841 365.007 168.424L365.387 168.538C365.213 169.031 364.949 169.516 364.578 169.986C364.207 170.457 363.737 170.844 363.176 171.139C362.607 171.443 361.931 171.587 361.131 171.587C360.166 171.587 359.316 171.397 358.574 171.018C357.84 170.639 357.255 170.062 356.842 169.296C356.422 168.53 356.215 167.552 356.215 166.361C356.215 165.17 356.438 164.139 356.883 163.327C357.329 162.515 357.947 161.916 358.731 161.514C359.514 161.12 360.413 160.915 361.42 160.915L361.428 160.93Z" fill="white"/>
<path d="M371.003 175C370.121 175 369.337 174.932 368.653 174.795C367.968 174.659 367.424 174.446 367.036 174.166C366.649 173.885 366.451 173.544 366.451 173.142C366.451 172.74 366.649 172.376 367.044 172.057C367.44 171.739 368.034 171.488 368.809 171.306L368.999 171.617C368.727 171.814 368.537 172.027 368.414 172.254C368.29 172.482 368.232 172.717 368.232 172.967C368.232 173.513 368.504 173.938 369.049 174.226C369.593 174.522 370.335 174.666 371.275 174.666C371.911 174.666 372.488 174.59 372.991 174.431C373.494 174.272 373.89 174.037 374.179 173.726C374.467 173.415 374.616 173.028 374.616 172.573C374.616 172.178 374.459 171.852 374.146 171.587C373.832 171.321 373.214 171.185 372.273 171.185H370.954C370.368 171.185 369.865 171.124 369.436 171.01C369.007 170.897 368.669 170.707 368.422 170.449C368.183 170.191 368.059 169.873 368.059 169.478C368.059 168.932 368.29 168.447 368.76 168.03C369.23 167.612 369.923 167.218 370.847 166.854L371.061 167.013C370.789 167.172 370.541 167.339 370.302 167.514C370.071 167.688 369.948 167.916 369.948 168.189C369.948 168.606 370.228 168.818 370.797 168.818H373.115C373.898 168.818 374.591 168.902 375.21 169.076C375.828 169.243 376.315 169.524 376.678 169.911C377.041 170.297 377.222 170.798 377.222 171.405C377.222 172.012 376.999 172.641 376.554 173.187C376.109 173.733 375.424 174.173 374.5 174.507C373.577 174.841 372.405 175.008 370.987 175.008L371.003 175ZM371.218 167.157C370.41 167.157 369.684 167.044 369.049 166.824C368.414 166.604 367.91 166.262 367.539 165.807C367.168 165.352 366.987 164.76 366.987 164.048C366.987 163.335 367.168 162.743 367.539 162.28C367.91 161.818 368.414 161.476 369.049 161.264C369.684 161.052 370.41 160.938 371.218 160.938C372.026 160.938 372.752 161.044 373.387 161.264C374.022 161.476 374.525 161.818 374.896 162.28C375.267 162.743 375.449 163.335 375.449 164.048C375.449 164.76 375.267 165.352 374.896 165.807C374.525 166.262 374.022 166.604 373.387 166.824C372.752 167.044 372.026 167.157 371.218 167.157ZM371.218 166.808C371.597 166.808 371.902 166.611 372.108 166.209C372.323 165.815 372.43 165.094 372.43 164.048C372.43 163.001 372.323 162.28 372.108 161.886C371.894 161.491 371.597 161.287 371.218 161.287C370.838 161.287 370.558 161.484 370.335 161.886C370.113 162.28 370.005 163.001 370.005 164.048C370.005 165.094 370.113 165.815 370.335 166.209C370.558 166.611 370.847 166.808 371.218 166.808Z" fill="white"/>
<path d="M385.742 160.93C386.195 160.93 386.567 161.021 386.847 161.196C387.127 161.37 387.342 161.598 387.474 161.871C387.606 162.144 387.68 162.432 387.68 162.728C387.68 163.213 387.523 163.608 387.226 163.911C386.921 164.214 386.517 164.374 386.022 164.374C385.527 164.374 385.14 164.26 384.859 164.032C384.579 163.805 384.447 163.501 384.447 163.122C384.447 162.743 384.538 162.455 384.711 162.212C384.884 161.969 385.115 161.765 385.379 161.598C385.181 161.545 384.983 161.552 384.785 161.62C384.513 161.658 384.257 161.757 384.018 161.924C383.779 162.091 383.573 162.288 383.4 162.531C383.226 162.773 383.094 163.031 382.995 163.312C382.896 163.592 382.847 163.866 382.847 164.123V169.311C382.847 169.941 383.012 170.358 383.35 170.586C383.68 170.806 384.183 170.919 384.851 170.919V171.329C384.521 171.314 384.051 171.299 383.424 171.283C382.797 171.261 382.146 171.253 381.47 171.253C380.901 171.253 380.331 171.261 379.746 171.283C379.16 171.306 378.723 171.321 378.426 171.329V170.919C378.921 170.919 379.276 170.821 379.482 170.624C379.688 170.426 379.787 170.055 379.787 169.509V163.342C379.787 162.758 379.688 162.318 379.498 162.038C379.309 161.757 378.946 161.62 378.426 161.62V161.211C378.88 161.249 379.317 161.271 379.746 161.271C380.34 161.271 380.901 161.249 381.42 161.203C381.94 161.158 382.418 161.089 382.855 160.998V162.819C383.028 162.47 383.251 162.144 383.54 161.863C383.82 161.575 384.15 161.355 384.521 161.188C384.892 161.029 385.305 160.945 385.758 160.945L385.742 160.93Z" fill="white"/>
<path d="M391.515 171.458C390.88 171.458 390.344 171.344 389.923 171.124C389.503 170.904 389.189 170.608 388.983 170.237C388.785 169.865 388.686 169.455 388.686 169.016C388.686 168.454 388.826 167.999 389.098 167.643C389.379 167.294 389.733 167.006 390.171 166.778C390.608 166.558 391.078 166.376 391.564 166.232C392.051 166.088 392.521 165.951 392.967 165.815C393.412 165.678 393.775 165.511 394.055 165.329C394.336 165.14 394.468 164.897 394.468 164.594V163.069C394.468 162.728 394.41 162.424 394.286 162.159C394.162 161.893 393.981 161.689 393.734 161.545C393.486 161.4 393.164 161.332 392.769 161.332C392.488 161.332 392.199 161.37 391.919 161.438C391.639 161.507 391.399 161.628 391.218 161.802C391.614 161.931 391.927 162.129 392.142 162.402C392.364 162.667 392.472 162.97 392.472 163.312C392.472 163.752 392.307 164.108 391.969 164.366C391.639 164.624 391.243 164.76 390.789 164.76C390.278 164.76 389.89 164.616 389.626 164.321C389.362 164.025 389.23 163.668 389.23 163.251C389.23 162.872 389.329 162.561 389.536 162.311C389.742 162.06 390.03 161.825 390.393 161.605C390.789 161.4 391.268 161.234 391.828 161.12C392.389 161.006 392.991 160.945 393.651 160.945C394.311 160.945 394.888 161.006 395.416 161.127C395.944 161.249 396.381 161.476 396.736 161.802C397.066 162.106 397.272 162.47 397.371 162.91C397.47 163.35 397.519 163.896 397.519 164.563V169.888C397.519 170.214 397.552 170.442 397.626 170.563C397.701 170.684 397.816 170.752 397.989 170.752C398.113 170.752 398.245 170.722 398.36 170.654C398.484 170.586 398.616 170.51 398.756 170.419L398.971 170.752C398.674 170.988 398.327 171.17 397.94 171.291C397.552 171.412 397.115 171.481 396.628 171.481C396.101 171.481 395.688 171.412 395.375 171.276C395.061 171.139 394.839 170.95 394.707 170.715C394.575 170.479 394.501 170.206 394.501 169.895C394.162 170.388 393.75 170.783 393.263 171.063C392.785 171.344 392.191 171.481 391.498 171.481L391.515 171.458ZM393.024 170.206C393.305 170.206 393.569 170.146 393.799 170.017C394.03 169.895 394.253 169.691 394.468 169.402V165.39C394.344 165.587 394.162 165.762 393.94 165.921C393.709 166.08 393.47 166.24 393.214 166.399C392.958 166.566 392.711 166.74 392.48 166.937C392.249 167.135 392.059 167.377 391.919 167.658C391.779 167.946 391.705 168.287 391.705 168.697C391.705 169.205 391.828 169.584 392.068 169.835C392.307 170.085 392.628 170.206 393.024 170.206Z" fill="white"/>
<path d="M404.125 157.995V161.203H406.633V161.598H404.125V169.501C404.125 169.895 404.2 170.168 404.356 170.335C404.513 170.502 404.744 170.578 405.057 170.578C405.313 170.578 405.569 170.487 405.824 170.313C406.08 170.138 406.303 169.835 406.509 169.402L406.872 169.577C406.641 170.161 406.303 170.646 405.841 171.026C405.379 171.405 404.752 171.594 403.96 171.594C403.49 171.594 403.078 171.541 402.723 171.428C402.369 171.314 402.072 171.147 401.833 170.927C401.519 170.639 401.313 170.282 401.214 169.857C401.115 169.433 401.066 168.879 401.066 168.204V161.598H399.276V161.203H401.066V158.617C401.659 158.617 402.212 158.571 402.715 158.473C403.218 158.374 403.688 158.215 404.134 157.995H404.125Z" fill="white"/>
<path d="M413 160.93C414.245 160.93 415.226 161.271 415.936 161.947C416.645 162.622 417 163.737 417 165.276H409.997L409.956 164.905H414.319C414.336 164.267 414.294 163.676 414.195 163.137C414.096 162.599 413.94 162.159 413.725 161.833C413.511 161.507 413.23 161.347 412.876 161.347C412.381 161.347 411.96 161.636 411.614 162.212C411.268 162.788 411.053 163.737 410.987 165.071L411.053 165.185C411.037 165.345 411.028 165.504 411.02 165.671C411.02 165.838 411.012 166.02 411.012 166.202C411.012 167.104 411.152 167.832 411.424 168.394C411.705 168.955 412.051 169.364 412.48 169.615C412.909 169.865 413.338 169.994 413.775 169.994C414.072 169.994 414.385 169.949 414.699 169.865C415.02 169.782 415.342 169.622 415.664 169.395C415.993 169.167 416.299 168.841 416.579 168.424L416.958 168.538C416.785 169.031 416.521 169.516 416.15 169.986C415.779 170.457 415.309 170.844 414.748 171.139C414.179 171.443 413.503 171.587 412.703 171.587C411.738 171.587 410.888 171.397 410.146 171.018C409.412 170.639 408.826 170.062 408.414 169.296C407.993 168.53 407.787 167.552 407.787 166.361C407.787 165.17 408.01 164.139 408.455 163.327C408.901 162.515 409.519 161.916 410.303 161.514C411.086 161.12 411.985 160.915 412.991 160.915L413 160.93Z" fill="white"/>
<path d="M72.7555 166.907C73.6665 166.907 74.405 166.228 74.405 165.39C74.405 164.552 73.6665 163.873 72.7555 163.873C71.8445 163.873 71.106 164.552 71.106 165.39C71.106 166.228 71.8445 166.907 72.7555 166.907Z" fill="white"/>
<path d="M204.114 166.907C205.025 166.907 205.764 166.228 205.764 165.39C205.764 164.552 205.025 163.873 204.114 163.873C203.203 163.873 202.465 164.552 202.465 165.39C202.465 166.228 203.203 166.907 204.114 166.907Z" fill="white"/>
<path d="M296.462 166.907C297.373 166.907 298.112 166.228 298.112 165.39C298.112 164.552 297.373 163.873 296.462 163.873C295.551 163.873 294.812 164.552 294.812 165.39C294.812 166.228 295.551 166.907 296.462 166.907Z" fill="white"/>
</g>
<defs>
<clipPath id="clip0_386_1030">
<rect width="418" height="143" fill="white"/>
</clipPath>
<clipPath id="clip1_386_1030">
<rect width="415" height="19" fill="white" transform="translate(2 156)"/>
</clipPath>
</defs>
</svg>
