<svg width="130" height="46" viewBox="0 0 130 46" fill="none" xmlns="http://www.w3.org/2000/svg">
<g clip-path="url(#clip0_449_129)">
<path d="M15.8338 10.8797C16.8481 10.8797 17.6523 11.0814 18.2465 11.4895C18.8407 11.8928 19.2761 12.4114 19.5425 13.0404C19.8089 13.6694 19.9472 14.2935 19.9472 14.9081C19.9472 16.0557 19.5989 16.9775 18.8971 17.6738C18.1953 18.3748 17.2784 18.7205 16.1463 18.7205C14.9527 18.7205 14.046 18.4612 13.416 17.9426C12.791 17.4241 12.4785 16.7327 12.4785 15.8684C12.4785 15.0042 12.6783 14.2887 13.083 13.7318C13.4877 13.1748 13.9846 12.6995 14.5788 12.3057C14.1331 12.2481 13.6977 12.3057 13.2828 12.4738C12.8064 12.5842 12.3607 12.7955 11.9407 13.1028C11.5206 13.4101 11.1672 13.775 10.8649 14.1927C10.5678 14.6104 10.3373 15.0666 10.1734 15.5563C10.0095 16.0461 9.9275 16.5406 9.9275 17.0448V28.8659C9.9275 30.2055 10.2451 31.1178 10.8905 31.5931C11.5309 32.0685 12.5502 32.3037 13.9538 32.3037V33.1824C13.2674 33.1536 12.2531 33.12 10.911 33.0768C9.56892 33.0335 8.18071 33.0143 6.75152 33.0143C5.47088 33.0143 4.18 33.0335 2.88399 33.0768C1.58799 33.12 0.624951 33.1536 0 33.1824V32.3037C0.983529 32.3037 1.67507 32.0925 2.07975 31.6747C2.48444 31.257 2.68421 30.46 2.68421 29.2836V16.0365C2.68421 14.7785 2.48956 13.8518 2.10537 13.2468C1.71605 12.6466 1.01426 12.3442 0.00512255 12.3442V11.4655C0.957916 11.5471 1.8851 11.5903 2.77642 11.5903C4.11853 11.5903 5.39404 11.5423 6.59784 11.4415C7.80676 11.3455 8.91835 11.1966 9.9275 10.9998V14.4376C10.2861 13.7126 10.7573 13.0836 11.3362 12.5506C11.915 12.0225 12.5861 11.6095 13.3494 11.3118C14.1075 11.019 14.9373 10.8701 15.8338 10.8701V10.8797Z" fill="#0A133A"/>
<path d="M32.4257 10.8801C35.0484 10.8801 37.1077 11.6051 38.5983 13.06C40.089 14.5148 40.8369 16.9011 40.8369 20.2285H26.4784L26.4323 19.4315H34.7513C34.8128 18.0631 34.7513 16.7955 34.572 15.6384C34.3927 14.4812 34.1007 13.5497 33.7012 12.8487C33.2965 12.1525 32.7689 11.802 32.1132 11.802C31.2167 11.802 30.4586 12.4022 29.8336 13.6025C29.2087 14.8029 28.8194 16.8435 28.6708 19.7244L28.8501 20.0173C28.7886 20.3246 28.763 20.6414 28.763 20.9583V21.9859C28.763 23.916 29.0396 25.4525 29.5878 26.5952C30.141 27.7428 30.8325 28.5494 31.6675 29.0248C32.5025 29.5001 33.3682 29.7354 34.2595 29.7354C34.7667 29.7354 35.3353 29.6682 35.9602 29.5241C36.5852 29.3849 37.2409 29.092 37.9273 28.6454C38.6137 28.1989 39.2694 27.5411 39.8943 26.6769L40.6525 26.9265C40.3246 28.0165 39.7663 29.0872 38.9774 30.1339C38.1885 31.1806 37.1794 32.0497 35.9602 32.7315C34.7359 33.4181 33.2606 33.759 31.5343 33.759C29.5673 33.759 27.8051 33.3749 26.2581 32.6066C24.706 31.8384 23.4766 30.6236 22.5699 28.9575C21.6581 27.2962 21.2073 25.1212 21.2073 22.4372C21.2073 19.7532 21.699 17.6021 22.6826 15.8976C23.6661 14.1931 25.0082 12.9303 26.7089 12.1045C28.4096 11.2786 30.3152 10.8657 32.4359 10.8657L32.4257 10.8801Z" fill="#0A133A"/>
<path d="M65.2561 30.801C64.4314 29.9127 63.3044 29.2693 61.8752 28.8756C60.4409 28.4819 58.7966 28.285 56.932 28.285H52.127C50.9437 28.285 50.3495 27.8193 50.3495 26.8878C50.3495 26.302 50.5595 25.8363 50.9796 25.4858C51.2818 25.2313 51.5943 25.0056 51.9221 24.7992C52.2756 24.8232 52.6393 24.8328 53.0081 24.8328C54.842 24.8328 56.4914 24.5831 57.9514 24.0886C59.4113 23.594 60.5639 22.8258 61.404 21.7887C62.2441 20.7564 62.6641 19.436 62.6641 17.8323C62.6641 16.2286 62.2441 14.913 61.404 13.8951C61.2964 13.7703 61.1888 13.6406 61.071 13.5254C60.8405 13.2805 60.5895 13.0597 60.3231 12.8484C59.652 12.3394 58.8632 11.9265 57.9514 11.6192C56.4914 11.1247 54.8369 10.875 53.0081 10.875C51.1794 10.875 49.4889 11.1247 48.0392 11.6192C46.5896 12.1138 45.4523 12.8724 44.6071 13.8951C43.767 14.913 43.347 16.2238 43.347 17.8323C43.347 19.4408 43.767 20.7564 44.6071 21.7887C45.4472 22.8258 46.5896 23.594 48.0392 24.0886C48.8793 24.3766 49.7963 24.5783 50.7747 24.7031C49.3711 25.3513 48.2339 26.0475 47.3579 26.7774C46.272 27.6992 45.729 28.8132 45.729 30.124C45.729 30.9978 45.9851 31.7276 46.4973 32.3086C47.0096 32.8944 47.7472 33.3457 48.7154 33.6674C49.6784 33.9891 50.8259 34.1476 52.1629 34.1476H54.8727C56.891 34.1476 58.2382 34.4356 58.9093 35.0214C59.5803 35.6024 59.9133 36.3178 59.9133 37.1629C59.9133 38.0655 59.6316 38.853 59.0732 39.5252C58.5148 40.1974 57.7208 40.7111 56.6912 41.076C55.6667 41.4409 54.4527 41.6234 53.0542 41.6234C51.0308 41.6234 49.4428 41.3017 48.2902 40.6631C47.1428 40.0245 46.5639 39.1026 46.5639 37.9071C46.5639 37.4365 46.6766 36.966 46.8918 36.4859C47.1069 36.0057 47.486 35.516 48.0136 35.0214L47.5936 34.3204C45.7904 34.7285 44.4483 35.2855 43.5826 36.0009C42.7067 36.7115 42.2764 37.5134 42.2764 38.3872C42.2764 39.2611 42.6964 39.9525 43.5365 40.5527C44.3715 41.1481 45.5548 41.6042 47.0813 41.9115C48.6078 42.214 50.3751 42.3676 52.4036 42.3676C55.6718 42.3676 58.3356 41.9979 60.4051 41.2537C62.4746 40.5095 64.0062 39.5252 65.0051 38.3008C65.9989 37.0812 66.4958 35.7368 66.4958 34.2772C66.4958 32.8176 66.0808 31.6892 65.2612 30.801H65.2561ZM50.7234 17.8323C50.7234 15.4988 50.9232 13.8855 51.3279 12.9972C51.7326 12.109 52.2909 11.6624 53.0081 11.6624C53.7253 11.6624 54.2426 12.109 54.6627 12.9972C55.0879 13.8855 55.2928 15.494 55.2928 17.8323C55.2928 20.1706 55.0879 21.7839 54.6627 22.6817C54.2426 23.5892 53.6894 24.0405 53.0081 24.0405C52.2909 24.0405 51.7326 23.5892 51.3279 22.6817C50.9232 21.7791 50.7234 20.161 50.7234 17.8323Z" fill="#0A133A"/>
<path d="M73.0219 33.4708C71.6491 33.4708 70.517 33.2259 69.6206 32.7362C68.7241 32.2464 68.0684 31.5982 67.6535 30.7868C67.2335 29.9754 67.0286 29.1111 67.0286 28.1892C67.0286 27.0177 67.3205 26.0526 67.8994 25.2988C68.4782 24.5449 69.2313 23.9352 70.1584 23.4742C71.0805 23.0133 72.0538 22.6292 73.0629 22.3219C74.0772 22.0146 75.0453 21.7121 75.9725 21.4192C76.8946 21.1263 77.6425 20.7758 78.2111 20.3725C78.7746 19.9692 79.0614 19.4458 79.0614 18.8024V15.3214C79.0614 14.7068 78.9641 14.1258 78.7694 13.5833C78.5748 13.0407 78.2316 12.5894 77.7398 12.2437C77.248 11.8931 76.5719 11.7203 75.7062 11.7203C75.1683 11.7203 74.6458 11.7923 74.1387 11.9316C73.6315 12.0708 73.1859 12.2965 72.7966 12.6038C73.7493 12.9111 74.4563 13.372 74.9224 13.9866C75.3834 14.6012 75.614 15.2878 75.614 16.0416C75.614 17.0739 75.2349 17.8949 74.4716 18.4951C73.7135 19.0953 72.8068 19.3978 71.7669 19.3978C70.6348 19.3978 69.7589 19.0617 69.1493 18.3895C68.5397 17.7173 68.2324 16.9107 68.2324 15.96C68.2324 15.1197 68.4577 14.4139 68.9034 13.8425C69.3491 13.2712 70.0048 12.7478 70.8705 12.2725C71.7362 11.7971 72.7761 11.4466 74.0004 11.2257C75.2246 11.0049 76.5206 10.8896 77.8935 10.8896C79.2663 10.8896 80.5828 11.0241 81.761 11.2882C82.9392 11.5522 83.9432 12.0804 84.7782 12.8582C85.4339 13.5016 85.8539 14.2843 86.0332 15.2061C86.2125 16.128 86.2996 17.3044 86.2996 18.7256V30.0426C86.2996 30.7436 86.3662 31.2237 86.4994 31.4878C86.6326 31.7519 86.8477 31.8863 87.1499 31.8863C87.4163 31.8863 87.6724 31.8191 87.9081 31.6751C88.1488 31.5358 88.3845 31.3822 88.6252 31.2141L89.117 31.9247C88.4613 32.4289 87.6878 32.813 86.7913 33.0771C85.8949 33.3412 84.9267 33.4756 83.8869 33.4756C82.6933 33.4756 81.761 33.3268 81.09 33.0339C80.4189 32.741 79.9425 32.3425 79.6608 31.8383C79.379 31.3342 79.2202 30.7772 79.1895 30.1626C78.5338 31.1709 77.7142 31.9728 76.7307 32.5729C75.7471 33.1731 74.5075 33.4756 73.0168 33.4756L73.0219 33.4708ZM76.7358 30.4507C77.2122 30.4507 77.6374 30.3595 78.0113 30.177C78.3852 29.9946 78.7336 29.6825 79.0614 29.2359V20.5165C78.8207 20.9102 78.5031 21.28 78.0984 21.6257C77.6937 21.9762 77.2685 22.3267 76.8229 22.6724C76.3772 23.0229 75.952 23.407 75.5474 23.8247C75.1427 24.2424 74.8148 24.7418 74.5638 25.3132C74.3128 25.8845 74.1848 26.5759 74.1848 27.3874C74.1848 28.4773 74.4204 29.2599 74.9019 29.7353C75.3783 30.2106 75.9879 30.4459 76.7358 30.4459V30.4507Z" fill="#0A133A"/>
<path d="M99.8076 11.005V29.284C99.8076 30.4556 100.007 31.2526 100.412 31.6752C100.817 32.0929 101.508 32.3041 102.492 32.3041V33.1828C101.923 33.154 101.052 33.1204 99.8742 33.0772C98.696 33.034 97.5127 33.0148 96.3192 33.0148C95.1256 33.0148 93.9116 33.034 92.6719 33.0772C91.4323 33.1204 90.5051 33.154 89.875 33.1828V32.3041C90.8585 32.3041 91.5501 32.0929 91.9548 31.6752C92.3594 31.2574 92.5592 30.4604 92.5592 29.284V16.0369C92.5592 14.7789 92.3748 13.8522 92.0009 13.2472C91.6269 12.6471 90.92 12.3446 89.875 12.3446V11.4659C90.8278 11.5475 91.755 11.5907 92.6463 11.5907C93.9884 11.5907 95.2639 11.5427 96.4677 11.4419C97.6766 11.3459 98.7882 11.197 99.7974 11.0002L99.8076 11.005ZM95.8735 0.523438C97.2771 0.523438 98.3682 0.816325 99.1622 1.4021C99.9511 1.98788 100.345 2.84253 100.345 3.96127C100.345 5.08 99.9511 5.92985 99.1622 6.52043C98.3733 7.10621 97.2771 7.39909 95.8735 7.39909C94.4699 7.39909 93.3788 7.10621 92.5848 6.52043C91.796 5.93466 91.4015 5.08 91.4015 3.96127C91.4015 2.84253 91.796 1.99268 92.5848 1.4021C93.3737 0.816325 94.4699 0.523438 95.8735 0.523438Z" fill="#0A133A"/>
<path d="M120.964 10.8801C122.275 10.8801 123.325 11.0338 124.119 11.3411C124.908 11.6484 125.513 12.0421 125.933 12.5126C126.409 13.0456 126.757 13.7274 126.983 14.5676C127.208 15.4079 127.316 16.5362 127.316 17.9622V29.2792C127.316 30.4508 127.516 31.2478 127.92 31.6703C128.325 32.0881 129.016 32.2993 130 32.2993V33.178C129.406 33.1492 128.514 33.1156 127.341 33.0724C126.163 33.0292 125.021 33.0099 123.92 33.0099C122.695 33.0099 121.517 33.0292 120.385 33.0724C119.253 33.1156 118.403 33.1492 117.834 33.178V32.2993C118.669 32.2993 119.248 32.0881 119.581 31.6703C119.909 31.2526 120.072 30.4556 120.072 29.2792V15.9504C120.072 15.3071 119.996 14.7549 119.847 14.2939C119.699 13.833 119.442 13.4825 119.089 13.2472C118.73 13.012 118.223 12.8919 117.568 12.8919C116.912 12.8919 116.246 13.06 115.667 13.3961C115.088 13.7322 114.622 14.1979 114.279 14.7981C113.936 15.3983 113.767 16.0753 113.767 16.8291V29.2792C113.767 30.4508 113.931 31.2478 114.258 31.6703C114.586 32.0881 115.165 32.2993 116.005 32.2993V33.178C115.437 33.1492 114.617 33.1156 113.546 33.0724C112.471 33.0292 111.385 33.0099 110.283 33.0099C109.059 33.0099 107.84 33.0292 106.616 33.0724C105.391 33.1156 104.469 33.1492 103.844 33.178V32.2993C104.828 32.2993 105.519 32.0881 105.924 31.6703C106.329 31.2526 106.528 30.4556 106.528 29.2792V16.0321C106.528 14.7741 106.334 13.8474 105.95 13.2424C105.56 12.6423 104.858 12.3398 103.849 12.3398V11.4611C104.802 11.5427 105.729 11.5859 106.621 11.5859C107.963 11.5859 109.238 11.5379 110.442 11.4371C111.651 11.3411 112.763 11.1922 113.772 10.9954V14.39C114.489 13.1032 115.462 12.1957 116.702 11.6628C117.936 11.1346 119.36 10.8657 120.974 10.8657L120.964 10.8801Z" fill="#0A133A"/>
</g>
<defs>
<clipPath id="clip0_449_129">
<rect width="130" height="45.0474" fill="white" transform="translate(0 0.114746)"/>
</clipPath>
</defs>
</svg>
