<svg width="129" height="57" viewBox="0 0 129 57" fill="none" xmlns="http://www.w3.org/2000/svg">
<g clip-path="url(#clip0_1219_456)">
<path d="M15.599 10.844C16.5983 10.844 17.3906 11.0552 17.976 11.4825C18.5614 11.9048 18.9903 12.4478 19.2528 13.1064C19.5152 13.765 19.6514 14.4186 19.6514 15.0621C19.6514 16.2636 19.3083 17.2289 18.6169 17.9579C17.9255 18.6919 17.0222 19.0539 15.9069 19.0539C14.731 19.0539 13.8378 18.7824 13.217 18.2394C12.6014 17.6965 12.2935 16.9725 12.2935 16.0676C12.2935 15.1626 12.4903 14.4135 12.889 13.8303C13.2877 13.2472 13.7772 12.7494 14.3626 12.3372C13.9236 12.2769 13.4946 12.3372 13.0858 12.5132C12.6165 12.6288 12.1774 12.85 11.7636 13.1718C11.3498 13.4935 11.0016 13.8756 10.7038 14.313C10.4111 14.7504 10.184 15.228 10.0225 15.7408C9.86105 16.2536 9.7803 16.7714 9.7803 17.2993V29.6769C9.7803 31.0795 10.0932 32.0348 10.7291 32.5325C11.3599 33.0302 12.3642 33.2766 13.7469 33.2766V34.1966C13.0707 34.1664 12.0715 34.1312 10.7493 34.086C9.42704 34.0407 8.05941 34.0206 6.65141 34.0206C5.38977 34.0206 4.11802 34.0407 2.84123 34.086C1.56445 34.1312 0.615685 34.1664 0 34.1966V33.2766C0.968947 33.2766 1.65024 33.0553 2.04892 32.618C2.4476 32.1806 2.64442 31.346 2.64442 30.1143V16.2435C2.64442 14.9263 2.45265 13.956 2.07415 13.3226C1.69061 12.6941 0.999226 12.3774 0.0050466 12.3774V11.4574C0.943714 11.5429 1.85715 11.5881 2.73526 11.5881C4.05746 11.5881 5.31407 11.5378 6.50002 11.4323C7.69101 11.3317 8.78612 11.1759 9.7803 10.9697V14.5694C10.1336 13.8102 10.5979 13.1516 11.1681 12.5936C11.7384 12.0406 12.3995 11.6082 13.1514 11.2965C13.8983 10.9898 14.7159 10.834 15.599 10.834V10.844Z" fill="#0A133A"/>
<path d="M31.9451 10.8442C34.529 10.8442 36.5577 11.6033 38.0263 13.1266C39.4948 14.65 40.2316 17.1486 40.2316 20.6326H26.086L26.0406 19.7981H34.2363C34.2968 18.3653 34.2363 17.038 34.0596 15.8264C33.883 14.6148 33.5953 13.6394 33.2017 12.9054C32.803 12.1765 32.2832 11.8095 31.6373 11.8095C30.7541 11.8095 30.0072 12.4379 29.3915 13.6948C28.7759 14.9516 28.3923 17.0883 28.246 20.1048L28.4226 20.4114C28.362 20.7332 28.3368 21.065 28.3368 21.3968V22.4727C28.3368 24.4937 28.6093 26.1025 29.1493 27.299C29.6943 28.5006 30.3756 29.3452 31.1982 29.8429C32.0208 30.3407 32.8737 30.587 33.7518 30.587C34.2514 30.587 34.8116 30.5166 35.4273 30.3658C36.0429 30.22 36.6889 29.9133 37.3652 29.4458C38.0414 28.9782 38.6874 28.2895 39.303 27.3845L40.0499 27.6459C39.727 28.7872 39.1769 29.9083 38.3997 31.0043C37.6225 32.1003 36.6284 33.0102 35.4273 33.7241C34.2211 34.4431 32.7677 34.8 31.067 34.8C29.1291 34.8 27.3931 34.3978 25.869 33.5934C24.3399 32.789 23.1287 31.5171 22.2355 29.7726C21.3372 28.0331 20.8931 25.7556 20.8931 22.9453C20.8931 20.1349 21.3775 17.8826 22.3465 16.0979C23.3154 14.3131 24.6376 12.9909 26.3131 12.1262C27.9886 11.2615 29.8659 10.8291 31.9552 10.8291L31.9451 10.8442Z" fill="#0A133A"/>
<path d="M64.2884 31.7033C63.4759 30.7732 62.3657 30.0995 60.9577 29.6873C59.5446 29.275 57.9247 29.0689 56.0877 29.0689H51.354C50.1883 29.0689 49.6029 28.5812 49.6029 27.6059C49.6029 26.9926 49.8098 26.5049 50.2236 26.1379C50.5213 25.8715 50.8292 25.6352 51.1522 25.419C51.5004 25.4441 51.8587 25.4542 52.222 25.4542C54.0287 25.4542 55.6537 25.1927 57.092 24.6749C58.5303 24.1571 59.6658 23.3527 60.4934 22.2668C61.321 21.1859 61.7349 19.8033 61.7349 18.1241C61.7349 16.445 61.321 15.0674 60.4934 14.0016C60.3874 13.8709 60.2814 13.7352 60.1654 13.6145C59.9383 13.3581 59.691 13.1268 59.4286 12.9056C58.7675 12.3727 57.9903 11.9404 57.092 11.6186C55.6537 11.1008 54.0237 10.8394 52.222 10.8394C50.4204 10.8394 48.755 11.1008 47.3268 11.6186C45.8986 12.1364 44.7783 12.9308 43.9456 14.0016C43.118 15.0674 42.7042 16.4399 42.7042 18.1241C42.7042 19.8083 43.118 21.1859 43.9456 22.2668C44.7733 23.3527 45.8986 24.1571 47.3268 24.6749C48.1545 24.9766 49.0578 25.1877 50.0217 25.3184C48.639 25.9971 47.5186 26.7261 46.6556 27.4903C45.5858 28.4556 45.0508 29.6219 45.0508 30.9944C45.0508 31.9094 45.3031 32.6736 45.8078 33.2819C46.3125 33.8953 47.0392 34.3679 47.993 34.7047C48.9417 35.0415 50.0722 35.2074 51.3893 35.2074H54.059C56.0474 35.2074 57.3746 35.5091 58.0357 36.1224C58.6968 36.7308 59.0248 37.4798 59.0248 38.3647C59.0248 39.3098 58.7473 40.1343 58.1972 40.8382C57.6471 41.542 56.8649 42.08 55.8505 42.4621C54.8412 42.8441 53.6452 43.0352 52.2675 43.0352C50.274 43.0352 48.7096 42.6984 47.5741 42.0297C46.4437 41.361 45.8734 40.3958 45.8734 39.1439C45.8734 38.6512 45.9844 38.1586 46.1964 37.6558C46.4084 37.1531 46.7818 36.6403 47.3016 36.1224L46.8878 35.3884C45.1114 35.8158 43.7892 36.3989 42.9363 37.148C42.0733 37.8921 41.6494 38.7317 41.6494 39.6467C41.6494 40.5617 42.0632 41.2856 42.8909 41.9141C43.7135 42.5375 44.8792 43.0151 46.3831 43.3368C47.887 43.6536 49.6281 43.8144 51.6265 43.8144C54.8463 43.8144 57.4705 43.4273 59.5093 42.6481C61.5481 41.8688 63.0571 40.8382 64.0412 39.5562C65.0202 38.2792 65.5097 36.8715 65.5097 35.3432C65.5097 33.8148 65.1009 32.6334 64.2935 31.7033H64.2884ZM49.9712 18.1241C49.9712 15.6808 50.1681 13.9916 50.5667 13.0615C50.9654 12.1314 51.5155 11.6639 52.222 11.6639C52.9286 11.6639 53.4383 12.1314 53.8521 13.0615C54.271 13.9916 54.4728 15.6758 54.4728 18.1241C54.4728 20.5725 54.271 22.2617 53.8521 23.2019C53.4383 24.1521 52.8932 24.6246 52.222 24.6246C51.5155 24.6246 50.9654 24.1521 50.5667 23.2019C50.1681 22.2567 49.9712 20.5625 49.9712 18.1241Z" fill="#0A133A"/>
<path d="M71.9392 34.4986C70.5867 34.4986 69.4714 34.2422 68.5882 33.7294C67.7051 33.2166 67.0591 32.5379 66.6504 31.6883C66.2365 30.8386 66.0347 29.9337 66.0347 28.9684C66.0347 27.7417 66.3223 26.7312 66.8926 25.9419C67.4629 25.1526 68.2047 24.5141 69.1181 24.0315C70.0265 23.5488 70.9854 23.1466 71.9796 22.8249C72.9788 22.5031 73.9326 22.1864 74.846 21.8797C75.7544 21.573 76.4912 21.206 77.0514 20.7837C77.6065 20.3614 77.8891 19.8134 77.8891 19.1397V15.4948C77.8891 14.8513 77.7932 14.243 77.6015 13.6749C77.4097 13.1068 77.0716 12.6342 76.5871 12.2722C76.1026 11.9052 75.4365 11.7242 74.5836 11.7242C74.0537 11.7242 73.539 11.7997 73.0393 11.9455C72.5397 12.0912 72.1007 12.3275 71.7171 12.6493C72.6558 12.9711 73.3522 13.4537 73.8115 14.0972C74.2657 14.7407 74.4928 15.4596 74.4928 16.249C74.4928 17.3299 74.1193 18.1896 73.3674 18.818C72.6205 19.4464 71.7272 19.7631 70.7028 19.7631C69.5875 19.7631 68.7245 19.4112 68.124 18.7074C67.5234 18.0035 67.2206 17.1589 67.2206 16.1635C67.2206 15.2837 67.4427 14.5446 67.8817 13.9464C68.3208 13.3481 68.9667 12.8001 69.8196 12.3024C70.6725 11.8047 71.6969 11.4377 72.9031 11.2064C74.1092 10.9752 75.386 10.8545 76.7385 10.8545C78.091 10.8545 79.388 10.9953 80.5487 11.2718C81.7094 11.5483 82.6985 12.1013 83.5211 12.9157C84.1671 13.5894 84.5809 14.4089 84.7575 15.3742C84.9342 16.3394 85.02 17.5712 85.02 19.0593V30.909C85.02 31.643 85.0856 32.1458 85.2168 32.4223C85.348 32.6988 85.56 32.8396 85.8577 32.8396C86.1201 32.8396 86.3725 32.7692 86.6046 32.6184C86.8418 32.4726 87.0739 32.3117 87.3111 32.1357L87.7956 32.8798C87.1496 33.4077 86.3876 33.8099 85.5044 34.0864C84.6213 34.3629 83.6675 34.5036 82.643 34.5036C81.4672 34.5036 80.5487 34.3478 79.8876 34.0411C79.2265 33.7344 78.7571 33.3172 78.4796 32.7893C78.202 32.2614 78.0456 31.6782 78.0153 31.0347C77.3693 32.0905 76.5619 32.9301 75.5929 33.5585C74.624 34.1869 73.4027 34.5036 71.9341 34.5036L71.9392 34.4986ZM75.598 31.3364C76.0673 31.3364 76.4862 31.2408 76.8546 31.0498C77.223 30.8587 77.5661 30.532 77.8891 30.0644V20.9345C77.6519 21.3468 77.339 21.7339 76.9404 22.0959C76.5417 22.4629 76.1228 22.8299 75.6838 23.1919C75.2447 23.5589 74.8258 23.9611 74.4272 24.3985C74.0285 24.8358 73.7055 25.3587 73.4582 25.957C73.2109 26.5552 73.0848 27.2792 73.0848 28.1288C73.0848 29.2701 73.3169 30.0895 73.7913 30.5873C74.2606 31.085 74.8612 31.3313 75.598 31.3313V31.3364Z" fill="#0A133A"/>
<path d="M98.3278 10.9749V30.1145C98.3278 31.3412 98.5247 32.1757 98.9233 32.6181C99.322 33.0555 100.003 33.2767 100.972 33.2767V34.1968C100.412 34.1666 99.5542 34.1314 98.3934 34.0862C97.2327 34.0409 96.067 34.0208 94.8911 34.0208C93.7152 34.0208 92.5192 34.0409 91.2979 34.0862C90.0766 34.1314 89.1632 34.1666 88.5425 34.1968V33.2767C89.5114 33.2767 90.1927 33.0555 90.5914 32.6181C90.9901 32.1808 91.1869 31.3462 91.1869 30.1145V16.2437C91.1869 14.9265 91.0052 13.9562 90.6368 13.3228C90.2684 12.6943 89.572 12.3776 88.5425 12.3776V11.4576C89.4811 11.543 90.3946 11.5883 91.2727 11.5883C92.5949 11.5883 93.8515 11.538 95.0375 11.4324C96.2285 11.3319 97.3236 11.176 98.3177 10.9699L98.3278 10.9749ZM94.452 0C95.8348 0 96.9097 0.306675 97.692 0.920025C98.4691 1.53337 98.8577 2.42826 98.8577 3.59966C98.8577 4.77106 98.4691 5.66092 97.692 6.27929C96.9148 6.89264 95.8348 7.19932 94.452 7.19932C93.0693 7.19932 91.9944 6.89264 91.2121 6.27929C90.435 5.66594 90.0464 4.77106 90.0464 3.59966C90.0464 2.42826 90.435 1.5384 91.2121 0.920025C91.9893 0.306675 93.0693 0 94.452 0Z" fill="#0A133A"/>
<path d="M119.17 10.8442C120.462 10.8442 121.497 11.0051 122.279 11.3268C123.056 11.6486 123.652 12.0608 124.066 12.5535C124.535 13.1116 124.878 13.8255 125.1 14.7053C125.322 15.5851 125.428 16.7665 125.428 18.2597V30.1094C125.428 31.3361 125.625 32.1707 126.024 32.6131C126.422 33.0505 127.104 33.2717 128.073 33.2717V34.1917C127.487 34.1615 126.609 34.1263 125.453 34.0811C124.293 34.0358 123.167 34.0157 122.082 34.0157C120.876 34.0157 119.715 34.0358 118.6 34.0811C117.485 34.1263 116.647 34.1615 116.087 34.1917V33.2717C116.91 33.2717 117.48 33.0505 117.808 32.6131C118.131 32.1757 118.292 31.3411 118.292 30.1094V16.1532C118.292 15.4795 118.217 14.9013 118.07 14.4187C117.924 13.9361 117.672 13.5691 117.323 13.3227C116.97 13.0764 116.47 12.9507 115.825 12.9507C115.179 12.9507 114.522 13.1266 113.952 13.4786C113.382 13.8305 112.923 14.3182 112.585 14.9466C112.246 15.575 112.08 16.2839 112.08 17.0732V30.1094C112.08 31.3361 112.241 32.1707 112.564 32.6131C112.887 33.0505 113.458 33.2717 114.285 33.2717V34.1917C113.725 34.1615 112.918 34.1263 111.863 34.0811C110.803 34.0358 109.733 34.0157 108.648 34.0157C107.442 34.0157 106.241 34.0358 105.035 34.0811C103.829 34.1263 102.92 34.1615 102.305 34.1917V33.2717C103.274 33.2717 103.955 33.0505 104.354 32.6131C104.752 32.1757 104.949 31.3411 104.949 30.1094V16.2386C104.949 14.9215 104.757 13.9512 104.379 13.3177C103.995 12.6893 103.304 12.3725 102.31 12.3725V11.4525C103.248 11.538 104.162 11.5832 105.04 11.5832C106.362 11.5832 107.619 11.5329 108.805 11.4274C109.996 11.3268 111.091 11.171 112.085 10.9648V14.5193C112.792 13.1719 113.75 12.2217 114.972 11.6637C116.188 11.1106 117.591 10.8291 119.181 10.8291L119.17 10.8442Z" fill="#0A133A"/>
</g>
<g clip-path="url(#clip1_1219_456)">
<path d="M2.5133 50.5254L4.10827 55.0384C4.16932 55.2116 4.23801 55.3318 4.31432 55.396C4.39064 55.4603 4.45932 55.4966 4.52037 55.4994V55.6448C4.38809 55.6364 4.23546 55.628 4.05739 55.628C3.87933 55.628 3.70126 55.6252 3.52319 55.6252C3.32223 55.6252 3.13144 55.6252 2.95338 55.628C2.77277 55.628 2.63286 55.6364 2.52601 55.6448V55.4994C2.74987 55.4911 2.88978 55.4491 2.94829 55.3737C3.0068 55.2982 2.99408 55.139 2.90504 54.8931L1.79085 51.5426L1.90787 51.3553L0.910688 54.2112C0.814023 54.4767 0.755515 54.6919 0.737708 54.8595C0.717358 55.0272 0.730077 55.1585 0.770778 55.2479C0.811479 55.3402 0.880162 55.4016 0.974284 55.438C1.0684 55.4743 1.18033 55.4939 1.31261 55.4994V55.6448C1.16761 55.6364 1.03025 55.628 0.897969 55.628C0.76569 55.628 0.633412 55.6252 0.498589 55.6252C0.401924 55.6252 0.310346 55.6252 0.2264 55.628C0.13991 55.628 0.0661394 55.6364 0 55.6448V55.4994C0.0915776 55.4799 0.185699 55.4156 0.282364 55.3038C0.379029 55.1921 0.473151 55.0048 0.564728 54.7422L2.0605 50.5254C2.12918 50.531 2.20549 50.5338 2.2869 50.5338C2.3683 50.5338 2.44207 50.5338 2.5133 50.5254ZM2.97373 53.5685V53.7138H1.01753L1.08367 53.5685H2.97373Z" fill="#27343D"/>
<path d="M5.99826 51.8164C6.18141 51.8164 6.34167 51.8416 6.48158 51.8919C6.61895 51.9422 6.71816 51.9925 6.77921 52.04C6.92675 52.1517 7.02087 52.0791 7.05394 51.8248H7.19131C7.18368 51.9589 7.17605 52.1238 7.17096 52.3194C7.16587 52.515 7.16333 52.7721 7.16333 53.0935H7.02596C7.00307 52.9146 6.96237 52.7414 6.90132 52.5681C6.84026 52.3948 6.75123 52.2523 6.63676 52.1434C6.51974 52.0316 6.3722 51.9785 6.1865 51.9785C6.05931 51.9785 5.95247 52.0176 5.86598 52.0986C5.77949 52.1769 5.7337 52.2915 5.7337 52.4424C5.7337 52.5933 5.77186 52.7134 5.85072 52.8196C5.92958 52.9258 6.03133 53.032 6.15598 53.1298C6.28062 53.2276 6.41036 53.3338 6.54518 53.4428C6.69018 53.5629 6.81991 53.6831 6.93947 53.8004C7.05649 53.9178 7.15061 54.0463 7.22184 54.1861C7.29052 54.3258 7.32613 54.4907 7.32613 54.6835C7.32613 54.8986 7.27017 55.0887 7.1557 55.2507C7.04123 55.4128 6.89114 55.5358 6.70544 55.6224C6.51974 55.709 6.31369 55.7509 6.08475 55.7509C5.95247 55.7509 5.83545 55.737 5.7337 55.709C5.63195 55.6811 5.54291 55.6447 5.46914 55.6C5.41318 55.5721 5.35976 55.5442 5.30888 55.5162C5.25801 55.4911 5.21222 55.4659 5.16897 55.4463C5.12573 55.4324 5.08757 55.4463 5.0545 55.4966C5.02143 55.5442 4.99599 55.6112 4.97819 55.6978H4.84082C4.84845 55.5442 4.85608 55.3569 4.86117 55.1362C4.86626 54.9154 4.8688 54.622 4.8688 54.2559H5.00617C5.03161 54.5158 5.07994 54.7449 5.15117 54.9434C5.21985 55.1418 5.31651 55.2982 5.43607 55.4128C5.55563 55.5246 5.70826 55.5833 5.89142 55.5833C5.96519 55.5833 6.03896 55.5665 6.10764 55.533C6.17633 55.4994 6.23483 55.4436 6.28062 55.3681C6.32641 55.2927 6.34931 55.1921 6.34931 55.0719C6.34931 54.8595 6.28825 54.6863 6.16106 54.5465C6.03642 54.4068 5.8787 54.2559 5.68537 54.0911C5.54546 53.9653 5.41318 53.8424 5.28853 53.7194C5.16389 53.5964 5.06213 53.4623 4.98327 53.317C4.90442 53.1717 4.86626 53.004 4.86626 52.8168C4.86626 52.6016 4.91968 52.4172 5.02398 52.2691C5.12827 52.121 5.26818 52.0092 5.44116 51.9338C5.61414 51.8583 5.79984 51.822 5.99571 51.822L5.99826 51.8164Z" fill="#27343D"/>
<path d="M9.09689 51.8164C9.28005 51.8164 9.44031 51.8416 9.58022 51.8919C9.71758 51.9422 9.81679 51.9925 9.87785 52.04C10.0254 52.1517 10.1195 52.0791 10.1526 51.8248H10.2899C10.2823 51.9589 10.2747 52.1238 10.2696 52.3194C10.2645 52.515 10.262 52.7721 10.262 53.0935H10.1246C10.1017 52.9146 10.061 52.7414 9.99995 52.5681C9.9389 52.3948 9.84986 52.2523 9.73539 52.1434C9.61838 52.0316 9.47083 51.9785 9.28513 51.9785C9.15794 51.9785 9.0511 52.0176 8.96461 52.0986C8.87812 52.1769 8.83233 52.2915 8.83233 52.4424C8.83233 52.5933 8.87049 52.7134 8.94935 52.8196C9.02821 52.9258 9.12996 53.032 9.25461 53.1298C9.37926 53.2276 9.50899 53.3338 9.64381 53.4428C9.78881 53.5629 9.91855 53.6831 10.0381 53.8004C10.1551 53.9178 10.2492 54.0463 10.3205 54.1861C10.3892 54.3258 10.4248 54.4907 10.4248 54.6835C10.4248 54.8986 10.3688 55.0887 10.2543 55.2507C10.1399 55.4128 9.98977 55.5358 9.80407 55.6224C9.61838 55.709 9.41233 55.7509 9.18338 55.7509C9.0511 55.7509 8.93409 55.737 8.83233 55.709C8.73058 55.6811 8.64155 55.6447 8.56778 55.6C8.51181 55.5721 8.45839 55.5442 8.40752 55.5162C8.35664 55.4911 8.31085 55.4659 8.26761 55.4463C8.22436 55.4324 8.1862 55.4463 8.15313 55.4966C8.12006 55.5442 8.09463 55.6112 8.07682 55.6978H7.93945C7.94708 55.5442 7.95472 55.3569 7.9598 55.1362C7.96489 54.9154 7.96744 54.622 7.96744 54.2559H8.1048C8.13024 54.5158 8.17857 54.7449 8.2498 54.9434C8.31848 55.1418 8.41515 55.2982 8.53471 55.4128C8.65427 55.5246 8.8069 55.5833 8.99005 55.5833C9.06382 55.5833 9.13759 55.5665 9.20628 55.533C9.27496 55.4994 9.33347 55.4436 9.37926 55.3681C9.42504 55.2927 9.44794 55.1921 9.44794 55.0719C9.44794 54.8595 9.38689 54.6863 9.2597 54.5465C9.13505 54.4068 8.97733 54.2559 8.784 54.0911C8.64409 53.9653 8.51181 53.8424 8.38717 53.7194C8.26252 53.5964 8.16077 53.4623 8.08191 53.317C8.00305 53.1717 7.96489 53.004 7.96489 52.8168C7.96489 52.6016 8.01831 52.4172 8.12261 52.2691C8.22691 52.121 8.36682 52.0092 8.5398 51.9338C8.71277 51.8583 8.89847 51.822 9.09435 51.822L9.09689 51.8164Z" fill="#27343D"/>
<path d="M12.5867 51.8166C12.9708 51.8166 13.2735 51.9424 13.4923 52.1911C13.7111 52.4398 13.8205 52.8506 13.8205 53.4178H11.6607L11.648 53.2809H12.9937C12.9988 53.0462 12.9861 52.8282 12.9556 52.6298C12.925 52.4314 12.8767 52.2693 12.8106 52.1492C12.7444 52.029 12.6579 51.9703 12.5485 51.9703C12.3959 51.9703 12.2662 52.0765 12.1593 52.2889C12.0525 52.5013 11.9864 52.8506 11.966 53.3424L11.9864 53.3843C11.9813 53.443 11.9787 53.5017 11.9762 53.5631C11.9762 53.6246 11.9736 53.6917 11.9736 53.7587C11.9736 54.0913 12.0169 54.3595 12.1008 54.5663C12.1873 54.7731 12.2942 54.924 12.4264 55.0162C12.5587 55.1084 12.691 55.1559 12.8258 55.1559C12.9174 55.1559 13.0141 55.1392 13.1107 55.1084C13.2099 55.0777 13.3091 55.019 13.4084 54.9352C13.5101 54.8514 13.6042 54.7312 13.6907 54.5775L13.8077 54.6194C13.7543 54.8011 13.6729 54.9799 13.5584 55.1532C13.444 55.3264 13.299 55.4689 13.126 55.5779C12.9505 55.6897 12.7419 55.7428 12.4951 55.7428C12.1975 55.7428 11.9355 55.6729 11.7065 55.5332C11.4801 55.3935 11.2995 55.1811 11.1723 54.8989C11.0426 54.6166 10.979 54.2561 10.979 53.8174C10.979 53.3787 11.0477 52.9987 11.1851 52.6997C11.3224 52.4007 11.5132 52.1799 11.7549 52.0318C11.9965 51.8865 12.2738 51.811 12.5842 51.811L12.5867 51.8166Z" fill="#27343D"/>
<path d="M15.5656 51.8164C15.7488 51.8164 15.9091 51.8416 16.049 51.8919C16.1863 51.9422 16.2855 51.9925 16.3466 52.04C16.4941 52.1517 16.5883 52.0791 16.6213 51.8248H16.7587C16.7511 51.9589 16.7434 52.1238 16.7383 52.3194C16.7333 52.515 16.7307 52.7721 16.7307 53.0935H16.5933C16.5705 52.9146 16.5297 52.7414 16.4687 52.5681C16.4076 52.3948 16.3186 52.2523 16.2041 52.1434C16.0871 52.0316 15.9396 51.9785 15.7539 51.9785C15.6267 51.9785 15.5199 52.0176 15.4334 52.0986C15.3469 52.1769 15.3011 52.2915 15.3011 52.4424C15.3011 52.5933 15.3392 52.7134 15.4181 52.8196C15.497 52.9258 15.5987 53.032 15.7234 53.1298C15.848 53.2276 15.9777 53.3338 16.1126 53.4428C16.2576 53.5629 16.3873 53.6831 16.5069 53.8004C16.6239 53.9178 16.718 54.0463 16.7892 54.1861C16.8579 54.3258 16.8935 54.4907 16.8935 54.6835C16.8935 54.8986 16.8376 55.0887 16.7231 55.2507C16.6086 55.4128 16.4585 55.5358 16.2728 55.6224C16.0871 55.709 15.8811 55.7509 15.6521 55.7509C15.5199 55.7509 15.4028 55.737 15.3011 55.709C15.1993 55.6811 15.1103 55.6447 15.0365 55.6C14.9806 55.5721 14.9271 55.5442 14.8763 55.5162C14.8254 55.4911 14.7796 55.4659 14.7364 55.4463C14.6931 55.4324 14.655 55.4463 14.6219 55.4966C14.5888 55.5442 14.5634 55.6112 14.5456 55.6978H14.4082C14.4158 55.5442 14.4235 55.3569 14.4286 55.1362C14.4336 54.9154 14.4362 54.622 14.4362 54.2559H14.5736C14.599 54.5158 14.6473 54.7449 14.7185 54.9434C14.7872 55.1418 14.8839 55.2982 15.0035 55.4128C15.123 55.5246 15.2756 55.5833 15.4588 55.5833C15.5326 55.5833 15.6063 55.5665 15.675 55.533C15.7437 55.4994 15.8022 55.4436 15.848 55.3681C15.8938 55.2927 15.9167 55.1921 15.9167 55.0719C15.9167 54.8595 15.8556 54.6863 15.7284 54.5465C15.6038 54.4068 15.4461 54.2559 15.2528 54.0911C15.1128 53.9653 14.9806 53.8424 14.8559 53.7194C14.7313 53.5964 14.6295 53.4623 14.5507 53.317C14.4718 53.1717 14.4336 53.004 14.4336 52.8168C14.4336 52.6016 14.4871 52.4172 14.5914 52.2691C14.6957 52.121 14.8356 52.0092 15.0085 51.9338C15.1815 51.8583 15.3672 51.822 15.5631 51.822L15.5656 51.8164Z" fill="#27343D"/>
<path d="M18.6638 51.8164C18.8469 51.8164 19.0072 51.8416 19.1471 51.8919C19.2845 51.9422 19.3837 51.9925 19.4447 52.04C19.5923 52.1517 19.6864 52.0791 19.7195 51.8248H19.8568C19.8492 51.9589 19.8416 52.1238 19.8365 52.3194C19.8314 52.515 19.8289 52.7721 19.8289 53.0935H19.6915C19.6686 52.9146 19.6279 52.7414 19.5668 52.5681C19.5058 52.3948 19.4168 52.2523 19.3023 52.1434C19.1853 52.0316 19.0377 51.9785 18.852 51.9785C18.7248 51.9785 18.618 52.0176 18.5315 52.0986C18.445 52.1769 18.3992 52.2915 18.3992 52.4424C18.3992 52.5933 18.4374 52.7134 18.5162 52.8196C18.5951 52.9258 18.6969 53.032 18.8215 53.1298C18.9462 53.2276 19.0759 53.3338 19.2107 53.4428C19.3557 53.5629 19.4854 53.6831 19.605 53.8004C19.722 53.9178 19.8161 54.0463 19.8874 54.1861C19.956 54.3258 19.9917 54.4907 19.9917 54.6835C19.9917 54.8986 19.9357 55.0887 19.8212 55.2507C19.7068 55.4128 19.5567 55.5358 19.371 55.6224C19.1853 55.709 18.9792 55.7509 18.7503 55.7509C18.618 55.7509 18.501 55.737 18.3992 55.709C18.2975 55.6811 18.2084 55.6447 18.1347 55.6C18.0787 55.5721 18.0253 55.5442 17.9744 55.5162C17.9235 55.4911 17.8777 55.4659 17.8345 55.4463C17.7913 55.4324 17.7531 55.4463 17.72 55.4966C17.687 55.5442 17.6615 55.6112 17.6437 55.6978H17.5063C17.514 55.5442 17.5216 55.3569 17.5267 55.1362C17.5318 54.9154 17.5343 54.622 17.5343 54.2559H17.6717C17.6971 54.5158 17.7455 54.7449 17.8167 54.9434C17.8854 55.1418 17.982 55.2982 18.1016 55.4128C18.2212 55.5246 18.3738 55.5833 18.5569 55.5833C18.6307 55.5833 18.7045 55.5665 18.7732 55.533C18.8419 55.4994 18.9004 55.4436 18.9462 55.3681C18.9919 55.2927 19.0148 55.1921 19.0148 55.0719C19.0148 54.8595 18.9538 54.6863 18.8266 54.5465C18.7019 54.4068 18.5442 54.2559 18.3509 54.0911C18.211 53.9653 18.0787 53.8424 17.9541 53.7194C17.8294 53.5964 17.7277 53.4623 17.6488 53.317C17.5699 53.1717 17.5318 53.004 17.5318 52.8168C17.5318 52.6016 17.5852 52.4172 17.6895 52.2691C17.7938 52.121 17.9337 52.0092 18.1067 51.9338C18.2797 51.8583 18.4654 51.822 18.6612 51.822L18.6638 51.8164Z" fill="#27343D"/>
<path d="M23.65 50.5396C23.7594 50.5451 23.9069 50.5479 24.0926 50.5535C24.2783 50.5591 24.464 50.5619 24.6472 50.5619C24.8583 50.5619 25.0618 50.5619 25.2577 50.5535C25.4536 50.5451 25.5935 50.5451 25.6774 50.5451C26.0844 50.5451 26.4228 50.5954 26.6924 50.6932C26.9621 50.791 27.163 50.9336 27.2953 51.1236C27.4276 51.3108 27.4963 51.5372 27.4963 51.8026C27.4963 51.9647 27.4657 52.1296 27.4047 52.2972C27.3436 52.4649 27.2393 52.6158 27.0918 52.7583C26.9443 52.9008 26.7458 53.0126 26.4915 53.0964C26.2371 53.1803 25.9191 53.2222 25.5324 53.2222H24.9016V53.0769H25.4663C25.7232 53.0769 25.9191 53.0238 26.0539 52.9148C26.1862 52.8058 26.2803 52.6633 26.3286 52.4817C26.3795 52.3028 26.405 52.1016 26.405 51.8809C26.405 51.5008 26.3439 51.2074 26.2218 50.9978C26.0997 50.7883 25.8886 50.6849 25.5909 50.6849C25.4205 50.6849 25.3086 50.7268 25.2602 50.8078C25.2094 50.8889 25.1839 51.0565 25.1839 51.3052V54.8821C25.1839 55.0553 25.1966 55.1839 25.2195 55.2705C25.2424 55.3571 25.2908 55.4158 25.3595 55.4437C25.4281 55.4717 25.535 55.4912 25.6749 55.5024V55.6477C25.5579 55.6394 25.4078 55.631 25.2297 55.631C25.0491 55.631 24.8685 55.6282 24.6853 55.6282C24.4742 55.6282 24.2783 55.6282 24.0926 55.631C23.9069 55.631 23.7594 55.6394 23.65 55.6477V55.5024C23.7899 55.494 23.8942 55.4745 23.9654 55.4437C24.0341 55.4158 24.0825 55.3571 24.1053 55.2705C24.1282 55.1839 24.141 55.0553 24.141 54.8821V51.3052C24.141 51.1264 24.1282 50.9978 24.1053 50.9112C24.0825 50.8274 24.0341 50.7687 23.9604 50.738C23.8891 50.7072 23.7848 50.6877 23.6475 50.6849V50.5396H23.65ZM24.8914 53.0992C25.0796 53.1048 25.2424 53.1132 25.3798 53.1272C25.5172 53.1411 25.6393 53.1551 25.7436 53.1663C25.8479 53.1775 25.942 53.1859 26.0259 53.1914C26.4253 53.2306 26.7179 53.3228 26.9086 53.4737C27.0994 53.6218 27.2215 53.8453 27.28 54.1443L27.4301 54.8877C27.4683 55.0805 27.5115 55.2146 27.5548 55.2901C27.598 55.3683 27.6616 55.4046 27.7456 55.4046C27.8015 55.399 27.8499 55.3851 27.8855 55.3571C27.9236 55.332 27.9643 55.2901 28.0076 55.237L28.0991 55.3236C27.9821 55.4717 27.8549 55.5807 27.7176 55.6449C27.5828 55.7092 27.4174 55.7427 27.2266 55.7427C26.99 55.7427 26.7967 55.6869 26.6415 55.5779C26.4889 55.4661 26.3872 55.2621 26.3388 54.9659L26.2218 54.2449C26.1913 54.0437 26.1531 53.8677 26.1099 53.714C26.0666 53.5631 26.0056 53.4429 25.9293 53.3535C25.853 53.2641 25.7461 53.2194 25.6113 53.2194H24.9016L24.8888 53.0964L24.8914 53.0992Z" fill="#27343D"/>
<path d="M29.885 51.8161C30.2692 51.8161 30.5719 51.9419 30.7906 52.1906C31.0094 52.4393 31.1188 52.8501 31.1188 53.4173H28.9591L28.9464 53.2804H30.292C30.2971 53.0457 30.2844 52.8277 30.2539 52.6293C30.2234 52.4309 30.175 52.2688 30.1089 52.1487C30.0428 52.0285 29.9563 51.9698 29.8469 51.9698C29.6943 51.9698 29.5645 52.076 29.4577 52.2884C29.3508 52.5008 29.2847 52.8501 29.2643 53.3419L29.2847 53.3838C29.2796 53.4425 29.2771 53.5012 29.2745 53.5626C29.2745 53.6241 29.272 53.6912 29.272 53.7583C29.272 54.0908 29.3152 54.3591 29.3992 54.5658C29.4857 54.7726 29.5925 54.9235 29.7248 55.0157C29.8571 55.108 29.9893 55.1555 30.1242 55.1555C30.2157 55.1555 30.3124 55.1387 30.4091 55.108C30.5083 55.0772 30.6075 55.0185 30.7067 54.9347C30.8084 54.8509 30.9026 54.7307 30.9891 54.577L31.1061 54.6189C31.0527 54.8006 30.9713 54.9794 30.8568 55.1527C30.7423 55.3259 30.5973 55.4684 30.4243 55.5774C30.2488 55.6892 30.0402 55.7423 29.7935 55.7423C29.4958 55.7423 29.2338 55.6724 29.0049 55.5327C28.7785 55.393 28.5979 55.1806 28.4707 54.8984C28.3409 54.6161 28.2773 54.2557 28.2773 53.8169C28.2773 53.3782 28.346 52.9982 28.4834 52.6992C28.6208 52.4002 28.8115 52.1794 29.0532 52.0313C29.2949 51.886 29.5721 51.8105 29.8825 51.8105L29.885 51.8161Z" fill="#27343D"/>
<path d="M32.897 50.0083V52.4869C33.0064 52.2382 33.1539 52.0622 33.3396 51.9644C33.5253 51.8666 33.7339 51.8163 33.9654 51.8163C34.1536 51.8163 34.3037 51.8414 34.4182 51.8917C34.5327 51.942 34.6217 52.0119 34.6878 52.0985C34.7616 52.1907 34.815 52.3081 34.8481 52.4506C34.8812 52.5931 34.8964 52.7887 34.8964 53.0346V54.974C34.8964 55.1752 34.927 55.3121 34.9906 55.3847C35.0542 55.4574 35.161 55.4937 35.3162 55.4937V55.6446C35.2322 55.639 35.1076 55.6335 34.9397 55.6279C34.7718 55.6223 34.609 55.6167 34.4513 55.6167C34.2808 55.6167 34.1155 55.6195 33.9552 55.6279C33.795 55.6362 33.6754 55.6418 33.5966 55.6446V55.4937C33.7288 55.4937 33.8204 55.4574 33.8713 55.3847C33.9247 55.3121 33.9501 55.1752 33.9501 54.974V52.7329C33.9501 52.6127 33.94 52.5093 33.9171 52.4199C33.8942 52.3305 33.8535 52.2606 33.795 52.2103C33.7365 52.16 33.6525 52.1348 33.5431 52.1348C33.4261 52.1348 33.3167 52.1684 33.2175 52.2382C33.1183 52.3081 33.0395 52.4059 32.9809 52.5289C32.9224 52.6546 32.8919 52.7971 32.8919 52.962V54.974C32.8919 55.1752 32.9173 55.3121 32.9708 55.3847C33.0242 55.4574 33.1158 55.4937 33.2455 55.4937V55.6446C33.1666 55.639 33.0496 55.6335 32.897 55.6279C32.7444 55.6195 32.5892 55.6167 32.4315 55.6167C32.261 55.6167 32.0881 55.6195 31.9151 55.6279C31.7421 55.6362 31.6124 55.6418 31.5259 55.6446V55.4937C31.6785 55.4937 31.7879 55.4574 31.8515 55.3847C31.9151 55.3121 31.9456 55.1752 31.9456 54.974V50.8718C31.9456 50.6566 31.9151 50.4945 31.8566 50.3911C31.7981 50.2877 31.6861 50.2374 31.5259 50.2374V50.0865C31.6658 50.1005 31.8006 50.1089 31.9329 50.1089C32.1135 50.1089 32.2839 50.1005 32.4442 50.0837C32.607 50.067 32.7545 50.0418 32.8894 50.0083H32.897Z" fill="#27343D"/>
<path d="M36.5268 55.6948C36.331 55.6948 36.1656 55.6529 36.0359 55.5719C35.9061 55.4908 35.8095 55.3819 35.7459 55.2449C35.6848 55.108 35.6543 54.9571 35.6543 54.795C35.6543 54.5882 35.6975 54.4206 35.7815 54.2892C35.868 54.1607 35.9774 54.0545 36.1122 53.9707C36.247 53.8896 36.392 53.8226 36.5421 53.7695C36.6922 53.7164 36.8372 53.6661 36.9745 53.6158C37.1119 53.5655 37.2238 53.504 37.3103 53.4369C37.3968 53.3671 37.4375 53.2777 37.4375 53.1659V52.6042C37.4375 52.4785 37.4197 52.3667 37.3815 52.2689C37.3434 52.1711 37.2874 52.0956 37.2111 52.0425C37.1348 51.9894 37.0356 51.9643 36.9135 51.9643C36.827 51.9643 36.738 51.9783 36.6515 52.0034C36.565 52.0286 36.4912 52.0733 36.4352 52.1375C36.5574 52.1851 36.654 52.2577 36.7202 52.3583C36.7888 52.4561 36.8219 52.5679 36.8219 52.6936C36.8219 52.8557 36.771 52.987 36.6667 53.0821C36.565 53.1771 36.4429 53.2274 36.303 53.2274C36.1453 53.2274 36.0257 53.1743 35.9443 53.0653C35.8629 52.9563 35.8222 52.825 35.8222 52.6713C35.8222 52.5316 35.8527 52.417 35.9163 52.3248C35.9799 52.2326 36.0689 52.1459 36.1809 52.0649C36.303 51.9894 36.4505 51.928 36.6235 51.886C36.7965 51.8441 36.9822 51.8218 37.1857 51.8218C37.3892 51.8218 37.5673 51.8441 37.7301 51.8888C37.8929 51.9336 38.0277 52.0174 38.1371 52.1375C38.2388 52.2493 38.3024 52.3835 38.3329 52.5455C38.3635 52.7076 38.3787 52.9088 38.3787 53.1547V55.1164C38.3787 55.2365 38.3889 55.3204 38.4118 55.3651C38.4347 55.4098 38.4703 55.435 38.5237 55.435C38.5619 55.435 38.6026 55.4238 38.6382 55.3986C38.6764 55.3735 38.7171 55.3455 38.7603 55.312L38.8264 55.435C38.7349 55.5216 38.628 55.5886 38.5085 55.6334C38.3889 55.6781 38.2541 55.7032 38.104 55.7032C37.9412 55.7032 37.814 55.6781 37.7173 55.6278C37.6207 55.5775 37.552 55.5076 37.5113 55.421C37.4706 55.3344 37.4477 55.2338 37.4477 55.1192C37.3434 55.3008 37.2162 55.4461 37.0661 55.5495C36.9186 55.6529 36.7354 55.7032 36.5217 55.7032L36.5268 55.6948ZM36.9923 55.2338C37.0788 55.2338 37.1602 55.2114 37.2315 55.1639C37.3027 55.1192 37.3714 55.0437 37.4375 54.9375V53.4593C37.3994 53.532 37.3434 53.5962 37.2747 53.6549C37.2035 53.7136 37.1297 53.7723 37.0509 53.831C36.972 53.8924 36.8957 53.9567 36.8245 54.0294C36.7532 54.102 36.6947 54.1914 36.6515 54.2948C36.6082 54.401 36.5853 54.5268 36.5853 54.6777C36.5853 54.8649 36.6235 55.0046 36.6973 55.0968C36.771 55.189 36.8702 55.2338 36.9923 55.2338Z" fill="#27343D"/>
<path d="M40.3323 50.0083V55.5021C40.223 55.4826 40.111 55.4826 39.9966 55.5021C39.8821 55.5217 39.7778 55.5524 39.6811 55.5999C39.5845 55.6446 39.5031 55.7005 39.4395 55.762L39.3403 55.6977C39.3581 55.6307 39.3708 55.5636 39.3759 55.4965C39.3835 55.4295 39.386 55.3624 39.386 55.2953V50.8718C39.386 50.6566 39.3555 50.4945 39.297 50.3911C39.2385 50.2877 39.1266 50.2374 38.9663 50.2374V50.0865C39.1062 50.1005 39.241 50.1089 39.3733 50.1089C39.5539 50.1089 39.7244 50.1005 39.8846 50.0837C40.0474 50.067 40.195 50.0418 40.3298 50.0083H40.3323ZM41.3372 51.8191C41.678 51.8191 41.9604 51.9728 42.1868 52.2774C42.4132 52.582 42.5251 53.0514 42.5251 53.6857C42.5251 54.1859 42.4564 54.5855 42.3191 54.8901C42.1817 55.1919 41.9985 55.4127 41.7721 55.5468C41.5457 55.681 41.2965 55.748 41.0243 55.748C40.8437 55.748 40.6783 55.7145 40.5257 55.6474C40.373 55.5804 40.2408 55.4686 40.1314 55.3149L40.223 55.2786C40.3018 55.3847 40.3934 55.463 40.5028 55.5161C40.6096 55.5692 40.7165 55.5943 40.8208 55.5943C41.0624 55.5943 41.2405 55.4462 41.36 55.1472C41.4771 54.8482 41.5381 54.3955 41.5381 53.7836C41.5381 53.37 41.5152 53.043 41.4694 52.7999C41.4236 52.5568 41.3575 52.3836 41.2685 52.2802C41.182 52.1768 41.0751 52.1265 40.953 52.1265C40.8004 52.1265 40.6605 52.1963 40.5333 52.3333C40.4061 52.4702 40.3349 52.6602 40.3171 52.9061L40.284 52.6546C40.3629 52.3808 40.4951 52.174 40.6834 52.0315C40.8716 51.8889 41.0904 51.8191 41.3397 51.8191H41.3372Z" fill="#27343D"/>
<path d="M44.3616 51.8386V54.974C44.3616 55.1752 44.3922 55.3121 44.4558 55.3847C44.5194 55.4574 44.6262 55.4937 44.7814 55.4937V55.6446C44.6974 55.639 44.5753 55.6334 44.41 55.6279C44.2446 55.6223 44.0793 55.6167 43.9088 55.6167C43.7384 55.6167 43.5654 55.6195 43.3899 55.6279C43.2144 55.6362 43.0846 55.6418 42.9956 55.6446V55.4937C43.1482 55.4937 43.2576 55.4574 43.3212 55.3847C43.3848 55.3121 43.4153 55.1752 43.4153 54.974V52.7021C43.4153 52.4869 43.3848 52.3249 43.3263 52.2215C43.2678 52.1181 43.1559 52.0678 42.9956 52.0678V51.9169C43.1355 51.9308 43.2703 51.9392 43.4026 51.9392C43.5858 51.9392 43.7587 51.9308 43.919 51.9141C44.0793 51.8973 44.2268 51.8722 44.3616 51.8386ZM43.8503 50.0586C44.0335 50.0586 44.1785 50.1089 44.2879 50.2067C44.3947 50.3045 44.4481 50.4414 44.4481 50.6147C44.4481 50.7879 44.3947 50.9249 44.2879 51.0227C44.181 51.1205 44.036 51.1708 43.8503 51.1708C43.6646 51.1708 43.5222 51.1205 43.4128 51.0227C43.306 50.9249 43.2525 50.7879 43.2525 50.6147C43.2525 50.4414 43.306 50.3073 43.4128 50.2067C43.5196 50.1089 43.6646 50.0586 43.8503 50.0586Z" fill="#27343D"/>
<path d="M46.4682 50V54.9741C46.4682 55.1753 46.4987 55.3122 46.5623 55.3848C46.6259 55.4575 46.7327 55.4938 46.8879 55.4938V55.6447C46.804 55.6391 46.6793 55.6335 46.514 55.6279C46.3486 55.6196 46.1782 55.6168 46.0078 55.6168C45.8373 55.6168 45.6643 55.6196 45.4914 55.6279C45.3184 55.6363 45.1886 55.6419 45.0996 55.6447V55.4938C45.2522 55.4938 45.3616 55.4575 45.4252 55.3848C45.4888 55.3122 45.5193 55.1753 45.5193 54.9741V50.8663C45.5193 50.6511 45.4888 50.489 45.4303 50.3856C45.3718 50.2822 45.2599 50.2319 45.0996 50.2319V50.0782C45.2395 50.0922 45.3743 50.1006 45.5066 50.1006C45.6847 50.1006 45.8577 50.0922 46.0179 50.0754C46.1807 50.0587 46.3283 50.0335 46.4631 50H46.4682Z" fill="#27343D"/>
<path d="M48.6024 51.8386V54.974C48.6024 55.1752 48.6329 55.3121 48.6965 55.3847C48.7601 55.4574 48.8669 55.4937 49.0221 55.4937V55.6446C48.9381 55.639 48.816 55.6334 48.6507 55.6279C48.4853 55.6223 48.32 55.6167 48.1496 55.6167C47.9791 55.6167 47.8061 55.6195 47.6306 55.6279C47.4551 55.6362 47.3254 55.6418 47.2363 55.6446V55.4937C47.389 55.4937 47.4983 55.4574 47.5619 55.3847C47.6255 55.3121 47.6561 55.1752 47.6561 54.974V52.7021C47.6561 52.4869 47.6255 52.3249 47.567 52.2215C47.5085 52.1181 47.3966 52.0678 47.2363 52.0678V51.9169C47.3762 51.9308 47.5111 51.9392 47.6433 51.9392C47.8265 51.9392 47.9995 51.9308 48.1597 51.9141C48.32 51.8973 48.4675 51.8722 48.6024 51.8386ZM48.0911 50.0586C48.2742 50.0586 48.4192 50.1089 48.5286 50.2067C48.6354 50.3045 48.6888 50.4414 48.6888 50.6147C48.6888 50.7879 48.6354 50.9249 48.5286 51.0227C48.4217 51.1205 48.2768 51.1708 48.0911 51.1708C47.9054 51.1708 47.7629 51.1205 47.6535 51.0227C47.5467 50.9249 47.4933 50.7879 47.4933 50.6147C47.4933 50.4414 47.5467 50.3073 47.6535 50.2067C47.7604 50.1089 47.9054 50.0586 48.0911 50.0586Z" fill="#27343D"/>
<path d="M50.7008 50.7349V51.9169H51.4742V52.0622H50.7008V54.974C50.7008 55.1193 50.7237 55.2199 50.7721 55.2814C50.8204 55.3428 50.8916 55.3708 50.9883 55.3708C51.0672 55.3708 51.146 55.3373 51.2249 55.273C51.3037 55.2087 51.3724 55.0969 51.436 54.9377L51.5479 55.0019C51.4767 55.2171 51.3724 55.3959 51.23 55.5357C51.0875 55.6754 50.8942 55.7452 50.65 55.7452C50.505 55.7452 50.3778 55.7257 50.2684 55.6838C50.159 55.6418 50.0674 55.5804 49.9937 55.4993C49.897 55.3931 49.8334 55.2618 49.8029 55.1053C49.7724 54.9488 49.7571 54.7448 49.7571 54.4961V52.0622H49.2051V51.9169H49.7571V50.964C49.9402 50.964 50.1107 50.9472 50.2659 50.9109C50.421 50.8746 50.566 50.8159 50.7034 50.7349H50.7008Z" fill="#27343D"/>
<path d="M52.6494 55.6948C52.4535 55.6948 52.2882 55.6529 52.1584 55.5719C52.0287 55.4908 51.932 55.3819 51.8684 55.2449C51.8074 55.108 51.7769 54.9571 51.7769 54.795C51.7769 54.5882 51.8201 54.4206 51.904 54.2892C51.9905 54.1607 52.0999 54.0545 52.2347 53.9707C52.3696 53.8896 52.5146 53.8226 52.6647 53.7695C52.8147 53.7164 52.9597 53.6661 53.0971 53.6158C53.2345 53.5655 53.3464 53.504 53.4329 53.4369C53.5194 53.3671 53.5601 53.2777 53.5601 53.1659V52.6042C53.5601 52.4785 53.5423 52.3667 53.5041 52.2689C53.466 52.1711 53.41 52.0956 53.3337 52.0425C53.2574 51.9894 53.1582 51.9643 53.0361 51.9643C52.9496 51.9643 52.8605 51.9783 52.774 52.0034C52.6875 52.0286 52.6138 52.0733 52.5578 52.1375C52.6799 52.1851 52.7766 52.2577 52.8427 52.3583C52.9114 52.4561 52.9445 52.5679 52.9445 52.6936C52.9445 52.8557 52.8936 52.987 52.7893 53.0821C52.6875 53.1771 52.5654 53.2274 52.4255 53.2274C52.2678 53.2274 52.1483 53.1743 52.0669 53.0653C51.9854 52.9563 51.9447 52.825 51.9447 52.6713C51.9447 52.5316 51.9753 52.417 52.0389 52.3248C52.1025 52.2326 52.1915 52.1459 52.3034 52.0649C52.4255 51.9894 52.5731 51.928 52.7461 51.886C52.919 51.8441 53.1047 51.8218 53.3082 51.8218C53.5117 51.8218 53.6898 51.8441 53.8526 51.8888C54.0154 51.9336 54.1502 52.0174 54.2596 52.1375C54.3614 52.2493 54.425 52.3835 54.4555 52.5455C54.486 52.7076 54.5013 52.9088 54.5013 53.1547V55.1164C54.5013 55.2365 54.5115 55.3204 54.5344 55.3651C54.5573 55.4098 54.5929 55.435 54.6463 55.435C54.6844 55.435 54.7251 55.4238 54.7608 55.3986C54.7989 55.3735 54.8396 55.3455 54.8829 55.312L54.949 55.435C54.8574 55.5216 54.7506 55.5886 54.631 55.6334C54.5115 55.6781 54.3766 55.7032 54.2266 55.7032C54.0638 55.7032 53.9366 55.6781 53.8399 55.6278C53.7432 55.5775 53.6745 55.5076 53.6338 55.421C53.5931 55.3344 53.5703 55.2338 53.5703 55.1192C53.466 55.3008 53.3388 55.4461 53.1887 55.5495C53.0411 55.6529 52.858 55.7032 52.6443 55.7032L52.6494 55.6948ZM53.1149 55.2338C53.2014 55.2338 53.2828 55.2114 53.354 55.1639C53.4253 55.1192 53.4939 55.0437 53.5601 54.9375V53.4593C53.5219 53.532 53.466 53.5962 53.3973 53.6549C53.326 53.7136 53.2523 53.7723 53.1734 53.831C53.0946 53.8924 53.0182 53.9567 52.947 54.0294C52.8758 54.102 52.8173 54.1914 52.774 54.2948C52.7308 54.401 52.7079 54.5268 52.7079 54.6777C52.7079 54.8649 52.7461 55.0046 52.8198 55.0968C52.8936 55.189 52.9928 55.2338 53.1149 55.2338Z" fill="#27343D"/>
<path d="M56.5417 50.7349V51.9169H57.315V52.0622H56.5417V54.974C56.5417 55.1193 56.5646 55.2199 56.6129 55.2814C56.6612 55.3428 56.7325 55.3708 56.8291 55.3708C56.908 55.3708 56.9868 55.3373 57.0657 55.273C57.1446 55.2087 57.2132 55.0969 57.2768 54.9377L57.3888 55.0019C57.3175 55.2171 57.2132 55.3959 57.0708 55.5357C56.9283 55.6754 56.735 55.7452 56.4908 55.7452C56.3458 55.7452 56.2186 55.7257 56.1092 55.6838C55.9998 55.6418 55.9083 55.5804 55.8345 55.4993C55.7378 55.3931 55.6742 55.2618 55.6437 55.1053C55.6132 54.9488 55.5979 54.7448 55.5979 54.4961V52.0622H55.0459V51.9169H55.5979V50.964C55.7811 50.964 55.9515 50.9472 56.1067 50.9109C56.2618 50.8746 56.4068 50.8159 56.5442 50.7349H56.5417Z" fill="#27343D"/>
<path d="M59.2786 51.8161C59.6627 51.8161 59.9654 51.9419 60.1842 52.1906C60.403 52.4393 60.5123 52.8501 60.5123 53.4173H58.3526L58.3399 53.2804H59.6856C59.6907 53.0457 59.678 52.8277 59.6474 52.6293C59.6169 52.4309 59.5686 52.2688 59.5024 52.1487C59.4363 52.0285 59.3498 51.9698 59.2404 51.9698C59.0878 51.9698 58.9581 52.076 58.8512 52.2884C58.7444 52.5008 58.6782 52.8501 58.6579 53.3419L58.6782 53.3838C58.6732 53.4425 58.6706 53.5012 58.6681 53.5626C58.6681 53.6241 58.6655 53.6912 58.6655 53.7583C58.6655 54.0908 58.7088 54.3591 58.7927 54.5658C58.8792 54.7726 58.9861 54.9235 59.1183 55.0157C59.2506 55.108 59.3829 55.1555 59.5177 55.1555C59.6093 55.1555 59.706 55.1387 59.8026 55.108C59.9018 55.0772 60.001 55.0185 60.1002 54.9347C60.202 54.8509 60.2961 54.7307 60.3826 54.577L60.4996 54.6189C60.4462 54.8006 60.3648 54.9794 60.2503 55.1527C60.1359 55.3259 59.9909 55.4684 59.8179 55.5774C59.6424 55.6892 59.4338 55.7423 59.187 55.7423C58.8894 55.7423 58.6274 55.6724 58.3984 55.5327C58.172 55.393 57.9914 55.1806 57.8642 54.8984C57.7345 54.6161 57.6709 54.2557 57.6709 53.8169C57.6709 53.3782 57.7396 52.9982 57.8769 52.6992C58.0143 52.4002 58.2051 52.1794 58.4468 52.0313C58.6884 51.886 58.9657 51.8105 59.276 51.8105L59.2786 51.8161Z" fill="#27343D"/>
<path d="M65.6713 50.4473C65.9282 50.4473 66.1292 50.478 66.2691 50.5367C66.409 50.5982 66.5285 50.6596 66.6303 50.7267C66.6837 50.7602 66.7244 50.7854 66.7575 50.8022C66.7905 50.8189 66.8211 50.8273 66.8516 50.8273C66.8948 50.8273 66.9279 50.8022 66.9457 50.7491C66.9661 50.696 66.9813 50.6177 66.994 50.5115H67.1441C67.1391 50.6038 67.134 50.7127 67.1289 50.8385C67.1212 50.967 67.1187 51.1319 67.1162 51.3387C67.1162 51.5455 67.1136 51.8165 67.1136 52.1547H66.9635C66.9457 51.9059 66.8923 51.6628 66.8058 51.4253C66.7193 51.1906 66.5947 50.995 66.4344 50.8441C66.2742 50.6932 66.0783 50.6177 65.8468 50.6177C65.6357 50.6177 65.4627 50.682 65.3278 50.8133C65.193 50.9419 65.1243 51.1235 65.1243 51.3527C65.1243 51.5455 65.1676 51.7103 65.2566 51.8473C65.3431 51.9842 65.4729 52.1183 65.6407 52.2469C65.8086 52.3754 66.0147 52.5319 66.2538 52.7163C66.4649 52.8644 66.6506 53.0153 66.8185 53.1634C66.9839 53.3115 67.1187 53.482 67.2179 53.6692C67.3197 53.8564 67.368 54.08 67.368 54.3399C67.368 54.6556 67.2917 54.9183 67.1416 55.1251C66.9915 55.3319 66.7931 55.4856 66.5489 55.589C66.3047 55.6924 66.035 55.7427 65.7425 55.7427C65.4703 55.7427 65.2541 55.7147 65.0938 55.656C64.931 55.5974 64.7962 55.5387 64.6868 55.4772C64.5901 55.4101 64.5164 55.3766 64.463 55.3766C64.4197 55.3766 64.3866 55.4018 64.3688 55.4549C64.3485 55.5079 64.3332 55.5862 64.3205 55.6924H64.1704C64.178 55.5778 64.1857 55.4437 64.1857 55.29C64.1857 55.1363 64.1908 54.9351 64.1933 54.6892C64.1933 54.4405 64.1958 54.1275 64.1958 53.7475H64.3459C64.3637 54.0632 64.4121 54.3622 64.4935 54.6389C64.5749 54.9155 64.6995 55.1363 64.8674 55.3067C65.0353 55.4744 65.2592 55.5582 65.539 55.5582C65.6916 55.5582 65.829 55.5275 65.9485 55.4688C66.0681 55.4101 66.1673 55.3179 66.2411 55.1978C66.3149 55.0776 66.353 54.9295 66.353 54.7507C66.353 54.5495 66.3098 54.3734 66.2258 54.2253C66.1393 54.0772 66.0249 53.9375 65.8773 53.8061C65.7298 53.6776 65.5619 53.5435 65.3686 53.4093C65.1625 53.2612 64.9692 53.1103 64.7911 52.9622C64.6105 52.8141 64.468 52.6437 64.3612 52.4509C64.2544 52.258 64.2009 52.0317 64.2009 51.7662C64.2009 51.4644 64.2696 51.2157 64.407 51.0201C64.5444 50.8245 64.7275 50.682 64.9514 50.587C65.1778 50.492 65.4169 50.4473 65.6687 50.4473H65.6713Z" fill="#27343D"/>
<path d="M71.1301 51.8389V54.8596C71.1301 55.0748 71.1606 55.2369 71.2217 55.3403C71.2827 55.4437 71.3921 55.494 71.5498 55.494V55.6449C71.415 55.6309 71.2776 55.6225 71.1428 55.6225C70.9596 55.6225 70.7892 55.6309 70.6315 55.6449C70.4738 55.6588 70.3262 55.6868 70.1863 55.7231V55.0748C70.082 55.3151 69.937 55.4884 69.7488 55.589C69.5631 55.6924 69.357 55.7427 69.1281 55.7427C68.9449 55.7427 68.7949 55.7175 68.6829 55.6644C68.5685 55.6113 68.4794 55.5443 68.4133 55.4632C68.3395 55.371 68.2861 55.2508 68.2556 55.1027C68.225 54.9546 68.2098 54.7618 68.2098 54.5271V52.7023C68.2098 52.4872 68.1792 52.3251 68.1207 52.2217C68.0622 52.1183 67.9503 52.068 67.79 52.068V51.9171C67.9299 51.9311 68.0648 51.9395 68.1971 51.9395C68.3802 51.9395 68.5532 51.9311 68.7134 51.9143C68.8737 51.8975 69.0212 51.8724 69.1561 51.8389V54.8233C69.1561 54.9435 69.1663 55.0496 69.1866 55.1419C69.207 55.2341 69.2451 55.3039 69.3011 55.3542C69.357 55.4045 69.441 55.4297 69.5504 55.4297C69.6674 55.4297 69.7742 55.3934 69.8683 55.3207C69.9625 55.248 70.0388 55.1502 70.0973 55.0217C70.1558 54.8932 70.1863 54.7506 70.1863 54.5942V52.7051C70.1863 52.49 70.1558 52.3279 70.0973 52.2245C70.0388 52.1211 69.9269 52.0708 69.7666 52.0708V51.9199C69.9065 51.9339 70.0413 51.9423 70.1736 51.9423C70.3568 51.9423 70.5297 51.9339 70.69 51.9171C70.8503 51.9003 70.9978 51.8752 71.1326 51.8417L71.1301 51.8389Z" fill="#27343D"/>
<path d="M73.2443 51.8391V56.2375C73.2443 56.4639 73.2978 56.6148 73.4021 56.6874C73.5064 56.7629 73.6514 56.7992 73.8345 56.7992V56.9501C73.72 56.9445 73.5649 56.9389 73.3665 56.9333C73.168 56.9249 72.9569 56.9221 72.733 56.9221C72.5702 56.9221 72.4125 56.9249 72.2573 56.9333C72.1022 56.9417 71.9852 56.9473 71.9063 56.9501V56.7992C72.0513 56.7992 72.153 56.7657 72.2116 56.6986C72.2701 56.6315 72.3006 56.5002 72.3006 56.3102V52.7054C72.3006 52.4902 72.2701 52.3281 72.209 52.2247C72.148 52.1214 72.0386 52.0711 71.8809 52.0711V51.9202C72.0208 51.9341 72.1556 51.9425 72.2879 51.9425C72.4659 51.9425 72.6389 51.9341 72.7992 51.9174C72.962 51.9006 73.1095 51.8754 73.2443 51.8419V51.8391ZM74.2619 51.8168C74.4857 51.8168 74.6841 51.8838 74.8597 52.0152C75.0352 52.1465 75.1751 52.3477 75.2794 52.6132C75.3837 52.8786 75.4371 53.214 75.4371 53.6108C75.4371 53.9629 75.4015 54.2703 75.3277 54.5329C75.2565 54.7984 75.1522 55.0192 75.0199 55.2008C74.8877 55.3796 74.7274 55.5166 74.5417 55.6088C74.356 55.701 74.1474 55.7457 73.9159 55.7457C73.7455 55.7457 73.5903 55.7122 73.4504 55.6479C73.3105 55.5836 73.2036 55.4914 73.1299 55.3713L73.196 55.2762C73.2393 55.3629 73.3029 55.4299 73.3843 55.4774C73.4657 55.5249 73.5572 55.5501 73.6641 55.5501C73.8599 55.5501 74.0151 55.4774 74.1296 55.3293C74.2441 55.184 74.3255 54.9772 74.3763 54.709C74.4272 54.4435 74.4527 54.1249 74.4527 53.7533C74.4527 53.3397 74.4298 53.0156 74.3814 52.7808C74.3331 52.5461 74.267 52.3784 74.1856 52.275C74.1016 52.1744 74.0024 52.1241 73.8828 52.1241C73.7251 52.1241 73.5827 52.1912 73.4529 52.3253C73.3232 52.4595 73.2494 52.6523 73.2342 52.901L73.2011 52.6495C73.28 52.3756 73.4148 52.1689 73.6056 52.0263C73.7964 51.8838 74.0177 51.814 74.272 51.814L74.2619 51.8168Z" fill="#27343D"/>
<path d="M77.2458 51.8391V56.2375C77.2458 56.4639 77.2992 56.6148 77.4035 56.6874C77.5078 56.7629 77.6528 56.7992 77.836 56.7992V56.9501C77.7215 56.9445 77.5663 56.9389 77.3679 56.9333C77.1695 56.9249 76.9584 56.9221 76.7345 56.9221C76.5717 56.9221 76.414 56.9249 76.2588 56.9333C76.1036 56.9417 75.9866 56.9473 75.9078 56.9501V56.7992C76.0528 56.7992 76.1545 56.7657 76.213 56.6986C76.2715 56.6315 76.3021 56.5002 76.3021 56.3102V52.7054C76.3021 52.4902 76.2715 52.3281 76.2105 52.2247C76.1494 52.1214 76.04 52.0711 75.8823 52.0711V51.9202C76.0222 51.9341 76.1571 51.9425 76.2893 51.9425C76.4674 51.9425 76.6404 51.9341 76.8006 51.9174C76.9635 51.9006 77.111 51.8754 77.2458 51.8419V51.8391ZM78.2633 51.8168C78.4872 51.8168 78.6856 51.8838 78.8611 52.0152C79.0367 52.1465 79.1766 52.3477 79.2809 52.6132C79.3852 52.8786 79.4386 53.214 79.4386 53.6108C79.4386 53.9629 79.403 54.2703 79.3292 54.5329C79.258 54.7984 79.1537 55.0192 79.0214 55.2008C78.8891 55.3796 78.7289 55.5166 78.5432 55.6088C78.3575 55.701 78.1489 55.7457 77.9174 55.7457C77.7469 55.7457 77.5918 55.7122 77.4519 55.6479C77.312 55.5836 77.2051 55.4914 77.1313 55.3713L77.1975 55.2762C77.2407 55.3629 77.3043 55.4299 77.3857 55.4774C77.4671 55.5249 77.5587 55.5501 77.6655 55.5501C77.8614 55.5501 78.0166 55.4774 78.1311 55.3293C78.2455 55.184 78.3269 54.9772 78.3778 54.709C78.4287 54.4435 78.4541 54.1249 78.4541 53.7533C78.4541 53.3397 78.4312 53.0156 78.3829 52.7808C78.3346 52.5461 78.2684 52.3784 78.187 52.275C78.1031 52.1744 78.0039 52.1241 77.8843 52.1241C77.7266 52.1241 77.5841 52.1912 77.4544 52.3253C77.3247 52.4595 77.2509 52.6523 77.2356 52.901L77.2026 52.6495C77.2814 52.3756 77.4162 52.1689 77.607 52.0263C77.7978 51.8838 78.0191 51.814 78.2735 51.814L78.2633 51.8168Z" fill="#27343D"/>
<path d="M81.6032 51.8164C81.9237 51.8164 82.2035 51.8807 82.4427 52.012C82.6843 52.1406 82.8726 52.3501 83.0074 52.638C83.1422 52.9258 83.2109 53.3086 83.2109 53.7837C83.2109 54.2587 83.1422 54.6416 83.0074 54.9266C82.8726 55.2116 82.6843 55.4212 82.4427 55.5497C82.201 55.6783 81.9212 55.7453 81.6032 55.7453C81.2852 55.7453 81.0156 55.6811 80.7739 55.5497C80.5322 55.4184 80.3415 55.2116 80.2041 54.9266C80.0667 54.6416 79.998 54.2587 79.998 53.7837C79.998 53.3086 80.0667 52.9258 80.2041 52.638C80.3415 52.3501 80.5322 52.1406 80.7739 52.012C81.0156 51.8835 81.2929 51.8164 81.6032 51.8164ZM81.6032 51.9617C81.4277 51.9617 81.2827 52.1042 81.1631 52.3893C81.0461 52.6743 80.985 53.141 80.985 53.7837C80.985 54.4264 81.0436 54.8903 81.1631 55.1753C81.2801 55.4603 81.4277 55.6 81.6032 55.6C81.7787 55.6 81.9313 55.4575 82.0458 55.1753C82.1628 54.8931 82.2188 54.4292 82.2188 53.7837C82.2188 53.1382 82.1603 52.6743 82.0458 52.3893C81.9288 52.1042 81.7813 51.9617 81.6032 51.9617Z" fill="#27343D"/>
<path d="M85.9429 51.8164C86.0828 51.8164 86.1973 51.8499 86.2838 51.9142C86.3703 51.9785 86.4364 52.0623 86.4771 52.1629C86.5178 52.2635 86.5407 52.3697 86.5407 52.4787C86.5407 52.6575 86.4924 52.8028 86.4008 52.9146C86.3067 53.0264 86.182 53.0851 86.0294 53.0851C85.8768 53.0851 85.7572 53.0432 85.6707 52.9593C85.5842 52.8755 85.5435 52.7637 85.5435 52.624C85.5435 52.4843 85.5715 52.3781 85.6249 52.2887C85.6783 52.1992 85.7496 52.1238 85.831 52.0623C85.7699 52.0428 85.7089 52.0455 85.6478 52.0707C85.5639 52.0847 85.485 52.121 85.4112 52.1825C85.3375 52.244 85.2739 52.3166 85.2204 52.406C85.167 52.4954 85.1263 52.5905 85.0958 52.6939C85.0653 52.7972 85.05 52.8978 85.05 52.9929V54.9042C85.05 55.1362 85.1009 55.2899 85.2052 55.3737C85.3069 55.4547 85.4621 55.4966 85.6682 55.4966V55.6475C85.5664 55.642 85.4214 55.6364 85.2281 55.6308C85.0347 55.6224 84.8338 55.6196 84.6252 55.6196C84.4497 55.6196 84.2741 55.6224 84.0935 55.6308C83.9129 55.6392 83.7781 55.6447 83.6865 55.6475V55.4966C83.8392 55.4966 83.9485 55.4603 84.0121 55.3877C84.0757 55.315 84.1063 55.1781 84.1063 54.9769V52.705C84.1063 52.4899 84.0757 52.3278 84.0172 52.2244C83.9587 52.121 83.8468 52.0707 83.6865 52.0707V51.9198C83.8264 51.9338 83.9612 51.9422 84.0935 51.9422C84.2767 51.9422 84.4497 51.9338 84.6099 51.917C84.7702 51.9002 84.9177 51.8751 85.0526 51.8416V52.5122C85.106 52.3837 85.1747 52.2635 85.2637 52.1601C85.3502 52.0539 85.4519 51.9729 85.5664 51.9114C85.6809 51.8527 85.8081 51.822 85.948 51.822L85.9429 51.8164Z" fill="#27343D"/>
<path d="M88.1462 50.7349V51.9169H88.9195V52.0622H88.1462V54.974C88.1462 55.1193 88.1691 55.2199 88.2174 55.2814C88.2657 55.3428 88.3369 55.3708 88.4336 55.3708C88.5125 55.3708 88.5913 55.3373 88.6702 55.273C88.749 55.2087 88.8177 55.0969 88.8813 54.9377L88.9932 55.0019C88.922 55.2171 88.8177 55.3959 88.6753 55.5357C88.5328 55.6754 88.3395 55.7452 88.0953 55.7452C87.9503 55.7452 87.8231 55.7257 87.7137 55.6838C87.6043 55.6418 87.5127 55.5804 87.439 55.4993C87.3423 55.3931 87.2787 55.2618 87.2482 55.1053C87.2177 54.9488 87.2024 54.7448 87.2024 54.4961V52.0622H86.6504V51.9169H87.2024V50.964C87.3856 50.964 87.556 50.9472 87.7112 50.9109C87.8663 50.8746 88.0113 50.8159 88.1487 50.7349H88.1462Z" fill="#27343D"/>
<path d="M92.6485 50.5391C92.7579 50.5447 92.9055 50.5474 93.0912 50.553C93.2769 50.5586 93.4626 50.5614 93.6457 50.5614C93.8569 50.5614 94.0604 50.5614 94.2562 50.553C94.4521 50.5447 94.592 50.5447 94.676 50.5447C95.083 50.5447 95.4213 50.595 95.691 50.6928C95.9606 50.7906 96.1616 50.9331 96.2938 51.1231C96.4261 51.3103 96.4948 51.5367 96.4948 51.8021C96.4948 51.9642 96.4643 52.1291 96.4032 52.2967C96.3422 52.4644 96.2379 52.6153 96.0903 52.7578C95.9428 52.9003 95.7444 53.0121 95.49 53.0959C95.2356 53.1798 94.9176 53.2217 94.531 53.2217H93.9001V53.0764H94.4648C94.7218 53.0764 94.9176 53.0233 95.0524 52.9143C95.1847 52.8053 95.2788 52.6628 95.3272 52.4812C95.3781 52.3023 95.4035 52.1011 95.4035 51.8804C95.4035 51.5003 95.3424 51.2069 95.2203 50.9973C95.0982 50.7878 94.8871 50.6844 94.5895 50.6844C94.419 50.6844 94.3071 50.7263 94.2588 50.8073C94.2079 50.8884 94.1825 51.056 94.1825 51.3047V54.8816C94.1825 55.0548 94.1952 55.1834 94.2181 55.27C94.241 55.3566 94.2893 55.4153 94.358 55.4433C94.4267 55.4712 94.5335 55.4908 94.6734 55.5019V55.6472C94.5564 55.6389 94.4063 55.6305 94.2283 55.6305C94.0476 55.6305 93.867 55.6277 93.6839 55.6277C93.4727 55.6277 93.2769 55.6277 93.0912 55.6305C92.9055 55.6305 92.7579 55.6389 92.6485 55.6472V55.5019C92.7884 55.4936 92.8927 55.474 92.964 55.4433C93.0327 55.4153 93.081 55.3566 93.1039 55.27C93.1268 55.1834 93.1395 55.0548 93.1395 54.8816V51.3047C93.1395 51.1259 93.1268 50.9973 93.1039 50.9107C93.081 50.8269 93.0327 50.7682 92.9589 50.7375C92.8877 50.7067 92.7834 50.6872 92.646 50.6844V50.5391H92.6485ZM93.8899 53.0987C94.0782 53.1043 94.241 53.1127 94.3783 53.1267C94.5157 53.1407 94.6378 53.1546 94.7421 53.1658C94.8464 53.177 94.9405 53.1854 95.0245 53.191C95.4238 53.2301 95.7164 53.3223 95.9072 53.4732C96.098 53.6213 96.2201 53.8449 96.2786 54.1439L96.4287 54.8872C96.4668 55.08 96.5101 55.2141 96.5533 55.2896C96.5965 55.3678 96.6601 55.4041 96.7441 55.4041C96.8001 55.3985 96.8484 55.3846 96.884 55.3566C96.9222 55.3315 96.9629 55.2896 97.0061 55.2365L97.0977 55.3231C96.9807 55.4712 96.8535 55.5802 96.7161 55.6445C96.5813 55.7087 96.4159 55.7423 96.2251 55.7423C95.9886 55.7423 95.7952 55.6864 95.6401 55.5774C95.4874 55.4656 95.3857 55.2616 95.3374 54.9654L95.2203 54.2445C95.1898 54.0433 95.1517 53.8672 95.1084 53.7135C95.0652 53.5626 95.0041 53.4425 94.9278 53.353C94.8515 53.2636 94.7446 53.2189 94.6098 53.2189H93.9001L93.8874 53.0959L93.8899 53.0987Z" fill="#27343D"/>
<path d="M98.8836 51.8161C99.2677 51.8161 99.5704 51.9419 99.7892 52.1906C100.008 52.4393 100.117 52.8501 100.117 53.4173H97.9576L97.9449 53.2804H99.2906C99.2957 53.0457 99.283 52.8277 99.2524 52.6293C99.2219 52.4309 99.1736 52.2688 99.1074 52.1487C99.0413 52.0285 98.9548 51.9698 98.8454 51.9698C98.6928 51.9698 98.5631 52.076 98.4562 52.2884C98.3494 52.5008 98.2832 52.8501 98.2629 53.3419L98.2832 53.3838C98.2781 53.4425 98.2756 53.5012 98.2731 53.5626C98.2731 53.6241 98.2705 53.6912 98.2705 53.7583C98.2705 54.0908 98.3138 54.3591 98.3977 54.5658C98.4842 54.7726 98.591 54.9235 98.7233 55.0157C98.8556 55.108 98.9879 55.1555 99.1227 55.1555C99.2143 55.1555 99.3109 55.1387 99.4076 55.108C99.5068 55.0772 99.606 55.0185 99.7052 54.9347C99.807 54.8509 99.9011 54.7307 99.9876 54.577L100.105 54.6189C100.051 54.8006 99.9698 54.9794 99.8553 55.1527C99.7408 55.3259 99.5958 55.4684 99.4229 55.5774C99.2473 55.6892 99.0387 55.7423 98.792 55.7423C98.4944 55.7423 98.2324 55.6724 98.0034 55.5327C97.777 55.393 97.5964 55.1806 97.4692 54.8984C97.3395 54.6161 97.2759 54.2557 97.2759 53.8169C97.2759 53.3782 97.3446 52.9982 97.4819 52.6992C97.6193 52.4002 97.8101 52.1794 98.0517 52.0313C98.2934 51.886 98.5707 51.8105 98.881 51.8105L98.8836 51.8161Z" fill="#27343D"/>
<path d="M101.929 51.8386V54.974C101.929 55.1752 101.959 55.3121 102.023 55.3847C102.086 55.4574 102.193 55.4937 102.348 55.4937V55.6446C102.264 55.639 102.142 55.6334 101.977 55.6279C101.812 55.6223 101.646 55.6167 101.476 55.6167C101.305 55.6167 101.132 55.6195 100.957 55.6279C100.781 55.6362 100.652 55.6418 100.562 55.6446V55.4937C100.715 55.4937 100.825 55.4574 100.888 55.3847C100.952 55.3121 100.982 55.1752 100.982 54.974V52.7021C100.982 52.4869 100.952 52.3249 100.893 52.2215C100.835 52.1181 100.723 52.0678 100.562 52.0678V51.9169C100.702 51.9308 100.837 51.9392 100.97 51.9392C101.153 51.9392 101.326 51.9308 101.486 51.9141C101.646 51.8973 101.794 51.8722 101.929 51.8386ZM101.417 50.0586C101.6 50.0586 101.745 50.1089 101.855 50.2067C101.962 50.3045 102.015 50.4414 102.015 50.6147C102.015 50.7879 101.962 50.9249 101.855 51.0227C101.748 51.1205 101.603 51.1708 101.417 51.1708C101.232 51.1708 101.089 51.1205 100.98 51.0227C100.873 50.9249 100.819 50.7879 100.819 50.6147C100.819 50.4414 100.873 50.3073 100.98 50.2067C101.087 50.1089 101.232 50.0586 101.417 50.0586Z" fill="#27343D"/>
<path d="M105.136 51.8164C105.319 51.8164 105.47 51.8416 105.587 51.8919C105.704 51.9422 105.793 52.012 105.859 52.0986C105.93 52.1909 105.981 52.3082 106.014 52.4507C106.047 52.5933 106.062 52.7889 106.062 53.0348V54.9741C106.062 55.1753 106.093 55.3122 106.156 55.3849C106.22 55.4575 106.327 55.4939 106.482 55.4939V55.6447C106.398 55.6392 106.273 55.6336 106.108 55.628C105.943 55.6196 105.777 55.6168 105.617 55.6168C105.457 55.6168 105.289 55.6196 105.129 55.628C104.968 55.6364 104.846 55.642 104.765 55.6447V55.4939C104.897 55.4939 104.989 55.4575 105.04 55.3849C105.093 55.3122 105.119 55.1753 105.119 54.9741V52.733C105.119 52.6128 105.108 52.5094 105.085 52.42C105.063 52.3306 105.024 52.2607 104.968 52.2104C104.912 52.1601 104.826 52.135 104.711 52.135C104.597 52.135 104.485 52.1713 104.386 52.244C104.287 52.3166 104.208 52.4172 104.149 52.543C104.091 52.6715 104.06 52.814 104.06 52.9733V54.9769C104.06 55.1781 104.088 55.315 104.142 55.3877C104.195 55.4603 104.287 55.4966 104.414 55.4966V55.6475C104.335 55.642 104.221 55.6364 104.07 55.6308C103.92 55.6224 103.763 55.6196 103.602 55.6196C103.442 55.6196 103.267 55.6224 103.091 55.6308C102.916 55.6392 102.786 55.6447 102.697 55.6475V55.4966C102.849 55.4966 102.959 55.4603 103.022 55.3877C103.086 55.315 103.117 55.1781 103.117 54.9769V52.705C103.117 52.4899 103.086 52.3278 103.027 52.2244C102.969 52.121 102.857 52.0707 102.697 52.0707V51.9198C102.837 51.9338 102.972 51.9422 103.104 51.9422C103.287 51.9422 103.46 51.9338 103.62 51.917C103.78 51.9002 103.928 51.8751 104.063 51.8416V52.4899C104.172 52.244 104.32 52.0707 104.508 51.9701C104.696 51.8695 104.905 51.8192 105.139 51.8192L105.136 51.8164Z" fill="#27343D"/>
<path d="M108.123 50.7349V51.9169H108.896V52.0622H108.123V54.974C108.123 55.1193 108.146 55.2199 108.194 55.2814C108.242 55.3428 108.314 55.3708 108.41 55.3708C108.489 55.3708 108.568 55.3373 108.647 55.273C108.726 55.2087 108.794 55.0969 108.858 54.9377L108.97 55.0019C108.899 55.2171 108.794 55.3959 108.652 55.5357C108.509 55.6754 108.316 55.7452 108.072 55.7452C107.927 55.7452 107.8 55.7257 107.69 55.6838C107.581 55.6418 107.489 55.5804 107.416 55.4993C107.319 55.3931 107.255 55.2618 107.225 55.1053C107.194 54.9488 107.179 54.7448 107.179 54.4961V52.0622H106.627V51.9169H107.179V50.964C107.362 50.964 107.533 50.9472 107.688 50.9109C107.843 50.8746 107.988 50.8159 108.125 50.7349H108.123Z" fill="#27343D"/>
<path d="M110.86 51.8161C111.244 51.8161 111.546 51.9419 111.765 52.1906C111.984 52.4393 112.093 52.8501 112.093 53.4173H109.934L109.921 53.2804H111.267C111.272 53.0457 111.259 52.8277 111.228 52.6293C111.198 52.4309 111.15 52.2688 111.083 52.1487C111.017 52.0285 110.931 51.9698 110.821 51.9698C110.669 51.9698 110.539 52.076 110.432 52.2884C110.325 52.5008 110.259 52.8501 110.239 53.3419L110.259 53.3838C110.254 53.4425 110.252 53.5012 110.249 53.5626C110.249 53.6241 110.247 53.6912 110.247 53.7583C110.247 54.0908 110.29 54.3591 110.374 54.5658C110.46 54.7726 110.567 54.9235 110.699 55.0157C110.832 55.108 110.964 55.1555 111.099 55.1555C111.19 55.1555 111.287 55.1387 111.384 55.108C111.483 55.0772 111.582 55.0185 111.681 54.9347C111.783 54.8509 111.877 54.7307 111.964 54.577L112.081 54.6189C112.027 54.8006 111.946 54.9794 111.831 55.1527C111.717 55.3259 111.572 55.4684 111.399 55.5774C111.223 55.6892 111.015 55.7423 110.768 55.7423C110.47 55.7423 110.208 55.6724 109.979 55.5327C109.753 55.393 109.572 55.1806 109.445 54.8984C109.316 54.6161 109.252 54.2557 109.252 53.8169C109.252 53.3782 109.321 52.9982 109.458 52.6992C109.595 52.4002 109.786 52.1794 110.028 52.0313C110.269 51.886 110.547 51.8105 110.857 51.8105L110.86 51.8161Z" fill="#27343D"/>
<path d="M113.813 56.9997C113.541 56.9997 113.3 56.9745 113.088 56.9242C112.877 56.8739 112.709 56.7957 112.59 56.6923C112.47 56.5889 112.409 56.4632 112.409 56.3151C112.409 56.167 112.47 56.0328 112.592 55.9155C112.714 55.7981 112.898 55.7059 113.137 55.6388L113.195 55.7534C113.111 55.826 113.053 55.9043 113.015 55.9881C112.976 56.0719 112.959 56.1586 112.959 56.2508C112.959 56.452 113.043 56.6085 113.21 56.7147C113.378 56.8236 113.607 56.8767 113.897 56.8767C114.093 56.8767 114.271 56.8488 114.426 56.7901C114.582 56.7314 114.704 56.6448 114.793 56.5302C114.882 56.4157 114.928 56.2731 114.928 56.1055C114.928 55.9602 114.879 55.84 114.783 55.7422C114.686 55.6444 114.495 55.5941 114.205 55.5941H113.798C113.617 55.5941 113.462 55.5717 113.33 55.5298C113.198 55.4879 113.093 55.418 113.017 55.323C112.943 55.228 112.905 55.1107 112.905 54.9654C112.905 54.7642 112.976 54.5853 113.121 54.4316C113.266 54.2779 113.48 54.1326 113.765 53.9985L113.831 54.0572C113.747 54.1159 113.671 54.1773 113.597 54.2416C113.526 54.3059 113.488 54.3897 113.488 54.4903C113.488 54.644 113.574 54.7222 113.75 54.7222H114.465C114.706 54.7222 114.92 54.753 115.111 54.8173C115.302 54.8787 115.452 54.9821 115.564 55.1246C115.675 55.2672 115.731 55.4516 115.731 55.6751C115.731 55.8987 115.663 56.1306 115.525 56.3318C115.388 56.533 115.177 56.6951 114.892 56.818C114.607 56.941 114.246 57.0025 113.808 57.0025L113.813 56.9997ZM113.88 54.1103C113.63 54.1103 113.406 54.0683 113.21 53.9873C113.015 53.9063 112.859 53.7805 112.745 53.6129C112.63 53.4452 112.575 53.2272 112.575 52.9646C112.575 52.7019 112.63 52.4839 112.745 52.3135C112.859 52.143 113.015 52.0173 113.21 51.939C113.406 51.8608 113.63 51.8188 113.88 51.8188C114.129 51.8188 114.353 51.858 114.549 51.939C114.744 52.0173 114.9 52.143 115.014 52.3135C115.129 52.4839 115.184 52.7019 115.184 52.9646C115.184 53.2272 115.129 53.4452 115.014 53.6129C114.9 53.7805 114.744 53.9063 114.549 53.9873C114.353 54.0683 114.129 54.1103 113.88 54.1103ZM113.88 53.9817C113.997 53.9817 114.091 53.9091 114.154 53.761C114.22 53.6157 114.253 53.3502 114.253 52.9646C114.253 52.5789 114.22 52.3135 114.154 52.1681C114.088 52.0228 113.997 51.9474 113.88 51.9474C113.762 51.9474 113.676 52.02 113.607 52.1681C113.539 52.3135 113.506 52.5789 113.506 52.9646C113.506 53.3502 113.539 53.6157 113.607 53.761C113.676 53.9091 113.765 53.9817 113.88 53.9817Z" fill="#27343D"/>
<path d="M118.359 51.8164C118.499 51.8164 118.613 51.8499 118.7 51.9142C118.786 51.9785 118.852 52.0623 118.893 52.1629C118.934 52.2635 118.957 52.3697 118.957 52.4787C118.957 52.6575 118.908 52.8028 118.817 52.9146C118.723 53.0264 118.598 53.0851 118.445 53.0851C118.293 53.0851 118.173 53.0432 118.087 52.9593C118 52.8755 117.96 52.7637 117.96 52.624C117.96 52.4843 117.988 52.3781 118.041 52.2887C118.094 52.1992 118.166 52.1238 118.247 52.0623C118.186 52.0428 118.125 52.0455 118.064 52.0707C117.98 52.0847 117.901 52.121 117.827 52.1825C117.753 52.244 117.69 52.3166 117.636 52.406C117.583 52.4954 117.542 52.5905 117.512 52.6939C117.481 52.7972 117.466 52.8978 117.466 52.9929V54.9042C117.466 55.1362 117.517 55.2899 117.621 55.3737C117.723 55.4547 117.878 55.4966 118.084 55.4966V55.6475C117.982 55.642 117.837 55.6364 117.644 55.6308C117.451 55.6224 117.25 55.6196 117.041 55.6196C116.866 55.6196 116.69 55.6224 116.51 55.6308C116.329 55.6392 116.194 55.6447 116.103 55.6475V55.4966C116.255 55.4966 116.365 55.4603 116.428 55.3877C116.492 55.315 116.522 55.1781 116.522 54.9769V52.705C116.522 52.4899 116.492 52.3278 116.433 52.2244C116.375 52.121 116.263 52.0707 116.103 52.0707V51.9198C116.242 51.9338 116.377 51.9422 116.51 51.9422C116.693 51.9422 116.866 51.9338 117.026 51.917C117.186 51.9002 117.334 51.8751 117.469 51.8416V52.5122C117.522 52.3837 117.591 52.2635 117.68 52.1601C117.766 52.0539 117.868 51.9729 117.982 51.9114C118.097 51.8527 118.224 51.822 118.364 51.822L118.359 51.8164Z" fill="#27343D"/>
<path d="M120.14 55.6948C119.944 55.6948 119.778 55.6529 119.649 55.5719C119.519 55.4908 119.422 55.3819 119.359 55.2449C119.298 55.108 119.267 54.9571 119.267 54.795C119.267 54.5882 119.31 54.4206 119.394 54.2892C119.481 54.1607 119.59 54.0545 119.725 53.9707C119.86 53.8896 120.005 53.8226 120.155 53.7695C120.305 53.7164 120.45 53.6661 120.587 53.6158C120.725 53.5655 120.837 53.504 120.923 53.4369C121.01 53.3671 121.05 53.2777 121.05 53.1659V52.6042C121.05 52.4785 121.033 52.3667 120.994 52.2689C120.956 52.1711 120.9 52.0956 120.824 52.0425C120.748 51.9894 120.648 51.9643 120.526 51.9643C120.44 51.9643 120.351 51.9783 120.264 52.0034C120.178 52.0286 120.104 52.0733 120.048 52.1375C120.17 52.1851 120.267 52.2577 120.333 52.3583C120.402 52.4561 120.435 52.5679 120.435 52.6936C120.435 52.8557 120.384 52.987 120.28 53.0821C120.178 53.1771 120.056 53.2274 119.916 53.2274C119.758 53.2274 119.638 53.1743 119.557 53.0653C119.476 52.9563 119.435 52.825 119.435 52.6713C119.435 52.5316 119.466 52.417 119.529 52.3248C119.593 52.2326 119.682 52.1459 119.794 52.0649C119.916 51.9894 120.063 51.928 120.236 51.886C120.409 51.8441 120.595 51.8218 120.798 51.8218C121.002 51.8218 121.18 51.8441 121.343 51.8888C121.506 51.9336 121.64 52.0174 121.75 52.1375C121.852 52.2493 121.915 52.3835 121.946 52.5455C121.976 52.7076 121.992 52.9088 121.992 53.1547V55.1164C121.992 55.2365 122.002 55.3204 122.025 55.3651C122.047 55.4098 122.083 55.435 122.137 55.435C122.175 55.435 122.215 55.4238 122.251 55.3986C122.289 55.3735 122.33 55.3455 122.373 55.312L122.439 55.435C122.348 55.5216 122.241 55.5886 122.121 55.6334C122.002 55.6781 121.867 55.7032 121.717 55.7032C121.554 55.7032 121.427 55.6781 121.33 55.6278C121.233 55.5775 121.165 55.5076 121.124 55.421C121.083 55.3344 121.06 55.2338 121.06 55.1192C120.956 55.3008 120.829 55.4461 120.679 55.5495C120.531 55.6529 120.348 55.7032 120.135 55.7032L120.14 55.6948ZM120.605 55.2338C120.692 55.2338 120.773 55.2114 120.844 55.1639C120.915 55.1192 120.984 55.0437 121.05 54.9375V53.4593C121.012 53.532 120.956 53.5962 120.888 53.6549C120.816 53.7136 120.743 53.7723 120.664 53.831C120.585 53.8924 120.508 53.9567 120.437 54.0294C120.366 54.102 120.308 54.1914 120.264 54.2948C120.221 54.401 120.198 54.5268 120.198 54.6777C120.198 54.8649 120.236 55.0046 120.31 55.0968C120.384 55.189 120.483 55.2338 120.605 55.2338Z" fill="#27343D"/>
<path d="M124.029 50.7349V51.9169H124.802V52.0622H124.029V54.974C124.029 55.1193 124.052 55.2199 124.1 55.2814C124.149 55.3428 124.22 55.3708 124.316 55.3708C124.395 55.3708 124.474 55.3373 124.553 55.273C124.632 55.2087 124.701 55.0969 124.764 54.9377L124.876 55.0019C124.805 55.2171 124.701 55.3959 124.558 55.5357C124.416 55.6754 124.222 55.7452 123.978 55.7452C123.833 55.7452 123.706 55.7257 123.597 55.6838C123.487 55.6418 123.396 55.5804 123.322 55.4993C123.225 55.3931 123.162 55.2618 123.131 55.1053C123.1 54.9488 123.085 54.7448 123.085 54.4961V52.0622H122.533V51.9169H123.085V50.964C123.268 50.964 123.439 50.9472 123.594 50.9109C123.749 50.8746 123.894 50.8159 124.032 50.7349H124.029Z" fill="#27343D"/>
<path d="M126.766 51.8161C127.15 51.8161 127.453 51.9419 127.672 52.1906C127.891 52.4393 128 52.8501 128 53.4173H125.84L125.828 53.2804H127.173C127.178 53.0457 127.166 52.8277 127.135 52.6293C127.105 52.4309 127.056 52.2688 126.99 52.1487C126.924 52.0285 126.838 51.9698 126.728 51.9698C126.576 51.9698 126.446 52.076 126.339 52.2884C126.232 52.5008 126.166 52.8501 126.146 53.3419L126.166 53.3838C126.161 53.4425 126.158 53.5012 126.156 53.5626C126.156 53.6241 126.153 53.6912 126.153 53.7583C126.153 54.0908 126.197 54.3591 126.281 54.5658C126.367 54.7726 126.474 54.9235 126.606 55.0157C126.738 55.108 126.871 55.1555 127.006 55.1555C127.097 55.1555 127.194 55.1387 127.29 55.108C127.39 55.0772 127.489 55.0185 127.588 54.9347C127.69 54.8509 127.784 54.7307 127.87 54.577L127.987 54.6189C127.934 54.8006 127.853 54.9794 127.738 55.1527C127.624 55.3259 127.479 55.4684 127.306 55.5774C127.13 55.6892 126.922 55.7423 126.675 55.7423C126.377 55.7423 126.115 55.6724 125.886 55.5327C125.66 55.393 125.479 55.1806 125.352 54.8984C125.222 54.6161 125.159 54.2557 125.159 53.8169C125.159 53.3782 125.227 52.9982 125.365 52.6992C125.502 52.4002 125.693 52.1794 125.935 52.0313C126.176 51.886 126.453 51.8105 126.764 51.8105L126.766 51.8161Z" fill="#27343D"/>
<path d="M21.8232 54.0182C22.1042 54.0182 22.332 53.7679 22.332 53.4593C22.332 53.1506 22.1042 52.9004 21.8232 52.9004C21.5422 52.9004 21.3145 53.1506 21.3145 53.4593C21.3145 53.7679 21.5422 54.0182 21.8232 54.0182Z" fill="#27343D"/>
<path d="M62.3388 54.0182C62.6198 54.0182 62.8476 53.7679 62.8476 53.4593C62.8476 53.1506 62.6198 52.9004 62.3388 52.9004C62.0579 52.9004 61.8301 53.1506 61.8301 53.4593C61.8301 53.7679 62.0579 54.0182 62.3388 54.0182Z" fill="#27343D"/>
<path d="M90.8222 54.0182C91.1032 54.0182 91.331 53.7679 91.331 53.4593C91.331 53.1506 91.1032 52.9004 90.8222 52.9004C90.5413 52.9004 90.3135 53.1506 90.3135 53.4593C90.3135 53.7679 90.5413 54.0182 90.8222 54.0182Z" fill="#27343D"/>
</g>
<defs>
<clipPath id="clip0_1219_456">
<rect width="128.073" height="43.8143" fill="white"/>
</clipPath>
<clipPath id="clip1_1219_456">
<rect width="128" height="7" fill="white" transform="translate(0 50)"/>
</clipPath>
</defs>
</svg>
