<svg width="51" height="51" viewBox="0 0 51 51" fill="none" xmlns="http://www.w3.org/2000/svg">
<g clip-path="url(#clip0_170_1295)">
<path d="M25.5367 50.9998C12.8658 51.0037 2.10772 41.6716 0.262622 29.08C-1.7238 15.5341 7.78036 2.52406 21.2593 0.374321C22.5631 0.167118 23.8906 0.0615234 25.2123 0.00175309C26.512 -0.0560249 27.4296 0.770798 27.4495 1.87854C27.4694 3.00621 26.6334 3.73939 25.268 3.81311C15.9987 4.30721 9.24529 8.68438 5.56903 17.2236C0.0695528 29.9885 8.27796 44.6243 21.9838 46.8437C34.0795 48.8042 45.2994 40.5141 46.9813 28.3588C47.1087 27.4403 47.1266 26.5059 47.1883 25.5795C47.2679 24.3641 48.0103 23.5672 49.0811 23.5632C50.156 23.5592 51.0178 24.4558 50.9979 25.6671C50.8864 32.6204 48.3964 38.5954 43.5021 43.5305C38.7112 48.3599 32.2881 50.9978 25.5367 50.9998Z" fill="#2A3155"/>
<path d="M23.8194 30.1681C24.1717 29.7019 24.3628 29.3791 24.6175 29.1241C31.8009 21.9497 38.9882 14.7812 46.1775 7.61275C46.4582 7.33183 46.7348 7.03697 47.0493 6.79988C47.8395 6.20417 48.7949 6.26593 49.4975 6.92739C50.1563 7.549 50.2877 8.60295 49.7662 9.37996C49.5652 9.67881 49.2965 9.93583 49.0397 10.1928C41.2433 17.9729 33.4449 25.753 25.6466 33.5311C24.0801 35.0931 23.284 35.0792 21.7812 33.4515C18.7677 30.184 15.7483 26.9225 12.7587 23.6312C11.672 22.4338 12.1019 20.7622 13.5489 20.3737C14.4605 20.1306 15.1432 20.547 15.7423 21.2025C18.2064 23.8942 20.6825 26.5739 23.1486 29.2655C23.3477 29.4827 23.5029 29.7397 23.8194 30.1681Z" fill="#2A3155"/>
</g>
<defs>
<clipPath id="clip0_170_1295">
<rect width="51" height="51" fill="white"/>
</clipPath>
</defs>
</svg>
