<svg width="120" height="26" viewBox="0 0 120 26" fill="none" xmlns="http://www.w3.org/2000/svg">
<g clip-path="url(#clip0_1352_67)">
<path d="M2.83 25.2701C1.27 25.2701 0 24.0001 0 22.4301V3.66007C0 2.09007 1.26 0.820068 2.83 0.820068C4.4 0.820068 5.66 2.09007 5.66 3.66007V22.4201C5.66 23.9901 4.39 25.2601 2.83 25.2601V25.2701Z" fill="black"/>
<path d="M18.7201 24.9899C17.9201 24.9899 17.1201 24.6499 16.5601 23.9899L9.4201 15.5399C8.4101 14.3399 8.5501 12.5499 9.7401 11.5299C10.9301 10.5099 12.7101 10.6599 13.7301 11.8499L20.8701 20.2999C21.8801 21.4999 21.7401 23.2899 20.5501 24.3099C20.0201 24.7599 19.3701 24.9899 18.7201 24.9899Z" fill="black"/>
<path d="M7.99001 15.7199C6.30001 15.7199 4.51001 15.6099 2.64001 15.3999C1.09001 15.2199 -0.0199875 13.8499 0.170012 12.3399C0.360012 10.8299 1.76001 9.75991 3.31001 9.93991C12.33 10.9899 16.26 8.93991 16.63 8.21991C16.6 7.90991 16.51 7.63991 16.12 7.33991C13.94 5.62991 7.29001 5.69991 3.26001 6.29991C1.71001 6.51991 0.270012 5.48991 0.0400125 3.98991C-0.199988 2.48991 0.850013 1.07991 2.40001 0.849912C2.52001 0.829912 5.38001 0.409912 8.81001 0.409912H8.85001C13.8 0.409912 17.44 1.29991 19.67 3.03991C21.25 4.27991 22.16 5.95991 22.28 7.89991C22.39 9.55991 21.7 11.1599 20.34 12.3999C18 14.5499 13.56 15.7099 7.99001 15.7099V15.7199Z" fill="black"/>
<path d="M57.7105 24.3C56.0205 24.3 54.2305 24.19 52.3605 23.97C50.8105 23.78 49.7005 22.37 49.8905 20.82C50.0805 19.27 51.4905 18.15 53.0305 18.34C62.0505 19.43 65.9805 17.31 66.3505 16.57C66.3205 16.25 66.2305 15.98 65.8405 15.67C63.6605 13.91 57.0105 13.98 52.9805 14.6C51.4405 14.84 49.9905 13.78 49.7605 12.23C49.5205 10.68 50.5805 9.24004 52.1205 9.00004C52.2405 8.98004 55.1005 8.54004 58.5305 8.54004H58.5705C63.5205 8.54004 67.1605 9.45004 69.3905 11.26C70.9705 12.54 71.8805 14.27 72.0005 16.27C72.1105 17.98 71.4205 19.62 70.0605 20.91C67.7205 23.13 63.2805 24.32 57.7105 24.32V24.3Z" fill="black"/>
<path d="M59.8096 15.7701C54.8596 15.7701 51.2096 14.8601 48.9896 13.0501C47.4096 11.7701 46.4996 10.0401 46.3796 8.04011C46.2696 6.33011 46.9595 4.69011 48.3195 3.40011C51.3695 0.510112 57.9895 -0.639888 66.0195 0.320112C67.5695 0.510112 68.6795 1.92011 68.4895 3.47011C68.2995 5.02011 66.8895 6.13011 65.3495 5.95011C56.3295 4.86011 52.3995 6.98011 52.0295 7.72011C52.0595 8.04011 52.1496 8.31011 52.5396 8.63011C54.7296 10.4001 61.3796 10.3201 65.3996 9.70011C66.9496 9.46011 68.3895 10.5201 68.6295 12.0701C68.8695 13.6201 67.8095 15.0701 66.2695 15.3101C66.1495 15.3301 63.2895 15.7701 59.8595 15.7701H59.8096Z" fill="black"/>
<path d="M42.4897 6.05005H28.0497C26.4897 6.05005 25.2197 4.82005 25.2197 3.30005C25.2197 1.78005 26.4897 0.550049 28.0497 0.550049H42.4897C44.0497 0.550049 45.3197 1.78005 45.3197 3.30005C45.3197 4.82005 44.0497 6.05005 42.4897 6.05005Z" fill="black"/>
<path d="M42.4897 24.3101H28.0497C26.4897 24.3101 25.2197 23.0801 25.2197 21.5601C25.2197 20.0401 26.4897 18.8101 28.0497 18.8101H42.4897C44.0497 18.8101 45.3197 20.0401 45.3197 21.5601C45.3197 23.0801 44.0497 24.3101 42.4897 24.3101Z" fill="black"/>
<path d="M42.4897 15.22H28.0497C26.4897 15.22 25.2197 13.99 25.2197 12.47C25.2197 10.95 26.4897 9.71997 28.0497 9.71997H42.4897C44.0497 9.71997 45.3197 10.95 45.3197 12.47C45.3197 13.99 44.0497 15.22 42.4897 15.22Z" fill="black"/>
<path d="M91.5102 6.13989H77.0702C75.5102 6.13989 74.2402 4.90989 74.2402 3.38989C74.2402 1.86989 75.5102 0.639893 77.0702 0.639893H91.5102C93.0702 0.639893 94.3402 1.86989 94.3402 3.38989C94.3402 4.90989 93.0702 6.13989 91.5102 6.13989Z" fill="black"/>
<path d="M91.5102 24.3101H77.0702C75.5102 24.3101 74.2402 23.0801 74.2402 21.5601C74.2402 20.0401 75.5102 18.8101 77.0702 18.8101H91.5102C93.0702 18.8101 94.3402 20.0401 94.3402 21.5601C94.3402 23.0801 93.0702 24.3101 91.5102 24.3101Z" fill="black"/>
<path d="M91.5102 15.22H77.0702C75.5102 15.22 74.2402 13.99 74.2402 12.47C74.2402 10.95 75.5102 9.71997 77.0702 9.71997H91.5102C93.0702 9.71997 94.3402 10.95 94.3402 12.47C94.3402 13.99 93.0702 15.22 91.5102 15.22Z" fill="black"/>
<path d="M117.03 24.85C116.27 24.85 115.52 24.56 114.96 23.98L96.4403 4.64004C95.3703 3.53004 95.4403 1.79004 96.5803 0.750036C97.7203 -0.289964 99.5103 -0.229964 100.58 0.890036L119.1 20.23C120.17 21.34 120.1 23.08 118.96 24.12C118.42 24.61 117.72 24.86 117.03 24.86V24.85Z" fill="black"/>
<path d="M98.65 25.1199C97.96 25.1199 97.27 24.8699 96.72 24.3799C95.58 23.3399 95.51 21.5999 96.58 20.4899L115.1 1.14989C116.17 0.0398866 117.96 -0.0201133 119.1 1.00989C120.24 2.04989 120.31 3.78989 119.24 4.89989L100.72 24.2399C100.16 24.8199 99.41 25.1099 98.65 25.1099V25.1199Z" fill="black"/>
<path d="M77.0702 24.3099C75.5102 24.3099 74.2402 23.0799 74.2402 21.5599V3.38989C74.2402 1.86989 75.5102 0.639893 77.0702 0.639893C78.6302 0.639893 79.9002 1.86989 79.9002 3.38989V21.5599C79.9002 23.0799 78.6302 24.3099 77.0702 24.3099Z" fill="black"/>
<path d="M28.0605 24.3099C26.5005 24.3099 25.2305 23.0799 25.2305 21.5599V3.38989C25.2305 1.86989 26.5005 0.639893 28.0605 0.639893C29.6205 0.639893 30.8905 1.86989 30.8905 3.38989V21.5599C30.8905 23.0799 29.6205 24.3099 28.0605 24.3099Z" fill="black"/>
</g>
<defs>
<clipPath id="clip0_1352_67">
<rect width="120" height="25.27" fill="white"/>
</clipPath>
</defs>
</svg>
