<svg width="161" height="72" viewBox="0 0 161 72" fill="none" xmlns="http://www.w3.org/2000/svg">
<g clip-path="url(#clip0_222_1896)">
<path d="M19.6095 13.6323C20.8657 13.6323 21.8617 13.8977 22.5976 14.4349C23.3335 14.9658 23.8728 15.6484 24.2027 16.4763C24.5325 17.3042 24.7038 18.1258 24.7038 18.9348C24.7038 20.4452 24.2724 21.6587 23.4033 22.5751C22.5342 23.4978 21.3986 23.9529 19.9965 23.9529C18.5184 23.9529 17.3955 23.6116 16.6151 22.929C15.8412 22.2465 15.4542 21.3364 15.4542 20.1988C15.4542 19.0612 15.7016 18.1195 16.2028 17.3864C16.704 16.6532 17.3193 16.0276 18.0552 15.5093C17.5033 15.4335 16.9641 15.5093 16.4502 15.7305C15.8602 15.8759 15.3083 16.154 14.788 16.5584C14.2678 16.9629 13.8301 17.4432 13.4558 17.9931C13.0878 18.5429 12.8023 19.1433 12.5993 19.788C12.3963 20.4326 12.2948 21.0836 12.2948 21.7472V37.3071C12.2948 39.0703 12.6882 40.2711 13.4875 40.8968C14.2805 41.5225 15.543 41.8322 17.2813 41.8322V42.9887C16.4312 42.9508 15.175 42.9066 13.5129 42.8497C11.8507 42.7928 10.1315 42.7675 8.36149 42.7675C6.77548 42.7675 5.17677 42.7928 3.57172 42.8497C1.96666 42.9066 0.773977 42.9508 0 42.9887V41.8322C1.21806 41.8322 2.07451 41.5541 2.5757 41.0043C3.07688 40.4544 3.3243 39.4053 3.3243 37.8569V20.42C3.3243 18.7641 3.08322 17.5444 2.60742 16.748C2.12527 15.958 1.25613 15.5599 0.00634408 15.5599V14.4033C1.18634 14.5108 2.33462 14.5676 3.43849 14.5676C5.10064 14.5676 6.68031 14.5044 8.17117 14.3717C9.66837 14.2453 11.045 14.0494 12.2948 13.7903V18.3154C12.7389 17.3611 13.3226 16.5332 14.0394 15.8316C14.7563 15.1364 15.5874 14.5929 16.5327 14.2011C17.4716 13.8155 18.4993 13.6196 19.6095 13.6196V13.6323Z" fill="#0A133A"/>
<path d="M40.1579 13.6323C43.4061 13.6323 45.9564 14.5866 47.8025 16.5016C49.6487 18.4166 50.5749 21.5576 50.5749 25.9374H32.7925L32.7354 24.8883H43.0381C43.1143 23.087 43.0381 21.4186 42.8161 19.8954C42.5941 18.3723 42.2324 17.1462 41.7376 16.2235C41.2364 15.3071 40.583 14.8457 39.7709 14.8457C38.6607 14.8457 37.7218 15.6357 36.9478 17.2158C36.1739 18.7958 35.6917 21.4818 35.5077 25.2738L35.7298 25.6593C35.6536 26.0638 35.6219 26.4809 35.6219 26.898V28.2505C35.6219 30.7911 35.9645 32.8136 36.6433 34.3177C37.3285 35.8282 38.1849 36.89 39.219 37.5156C40.2531 38.1413 41.3252 38.451 42.4291 38.451C43.0572 38.451 43.7614 38.3625 44.5353 38.1729C45.3093 37.9896 46.1214 37.6041 46.9715 37.0164C47.8216 36.4286 48.6336 35.5628 49.4076 34.4252L50.3465 34.7538C49.9405 36.1884 49.249 37.5978 48.272 38.9756C47.295 40.3533 46.0452 41.4973 44.5353 42.3947C43.0191 43.2985 41.192 43.7472 39.0541 43.7472C36.6179 43.7472 34.4356 43.2416 32.5197 42.2304C30.5974 41.2192 29.0748 39.6202 27.9519 37.4272C26.8227 35.2404 26.2644 32.3775 26.2644 28.8446C26.2644 25.3117 26.8734 22.4803 28.0915 20.2367C29.3096 17.9931 30.9717 16.3309 33.0779 15.2439C35.1842 14.1569 37.5442 13.6133 40.1706 13.6133L40.1579 13.6323Z" fill="#0A133A"/>
<path d="M80.8172 39.854C79.7958 38.6848 78.4001 37.838 76.6301 37.3197C74.8538 36.8015 72.8173 36.5424 70.5081 36.5424H64.5573C63.0918 36.5424 62.3559 35.9293 62.3559 34.7032C62.3559 33.9322 62.616 33.3192 63.1363 32.8578C63.5106 32.5228 63.8975 32.2258 64.3036 31.954C64.7413 31.9856 65.1917 31.9983 65.6485 31.9983C67.9197 31.9983 69.9625 31.6696 71.7705 31.0187C73.5786 30.3677 75.006 29.3565 76.0465 27.9914C77.0869 26.6326 77.6071 24.8946 77.6071 22.7837C77.6071 20.6728 77.0869 18.9411 76.0465 17.6013C75.9132 17.4369 75.78 17.2663 75.6341 17.1146C75.3486 16.7923 75.0377 16.5016 74.7079 16.2235C73.8768 15.5536 72.8998 15.0101 71.7705 14.6056C69.9625 13.9546 67.9133 13.626 65.6485 13.626C63.3837 13.626 61.2901 13.9546 59.4948 14.6056C57.6994 15.2565 56.291 16.2551 55.2442 17.6013C54.2038 18.9411 53.6836 20.6665 53.6836 22.7837C53.6836 24.9009 54.2038 26.6326 55.2442 27.9914C56.2847 29.3565 57.6994 30.3677 59.4948 31.0187C60.5352 31.3979 61.6708 31.6633 62.8825 31.8276C61.1442 32.6808 59.7358 33.5972 58.651 34.5579C57.306 35.7713 56.6336 37.2376 56.6336 38.9629C56.6336 40.1132 56.9508 41.0738 57.5852 41.8385C58.2196 42.6096 59.1331 43.2037 60.3322 43.6271C61.5249 44.0505 62.9459 44.2591 64.6017 44.2591H67.9578C70.4573 44.2591 72.1258 44.6383 72.9569 45.4093C73.788 46.1741 74.2003 47.1157 74.2003 48.2281C74.2003 49.4162 73.8514 50.4527 73.1599 51.3375C72.4684 52.2223 71.4851 52.8986 70.2099 53.3789C68.9411 53.8592 67.4375 54.0994 65.7056 54.0994C63.1997 54.0994 61.233 53.6759 59.8056 52.8354C58.3845 51.9948 57.6677 50.7814 57.6677 49.2077C57.6677 48.5883 57.8072 47.969 58.0737 47.3369C58.3401 46.7049 58.8096 46.0603 59.463 45.4093L58.9428 44.4866C56.7097 45.0238 55.0476 45.7569 53.9754 46.6986C52.8906 47.634 52.3577 48.6894 52.3577 49.8397C52.3577 50.9899 52.8779 51.9 53.9183 52.69C54.9524 53.4737 56.4179 54.0741 58.3084 54.4786C60.1989 54.8767 62.3877 55.079 64.8999 55.079C68.9474 55.079 72.2463 54.5923 74.8094 53.6127C77.3724 52.6331 79.2692 51.3375 80.5063 49.7259C81.7371 48.1206 82.3525 46.351 82.3525 44.4297C82.3525 42.5085 81.8386 41.0233 80.8235 39.854H80.8172ZM62.819 22.7837C62.819 19.7122 63.0665 17.5886 63.5676 16.4194C64.0688 15.2502 64.7603 14.6625 65.6485 14.6625C66.5367 14.6625 67.1774 15.2502 67.6976 16.4194C68.2242 17.5886 68.478 19.7058 68.478 22.7837C68.478 25.8615 68.2242 27.9851 67.6976 29.1669C67.1774 30.3614 66.4923 30.9555 65.6485 30.9555C64.7603 30.9555 64.0688 30.3614 63.5676 29.1669C63.0665 27.9787 62.819 25.8489 62.819 22.7837Z" fill="#0A133A"/>
<path d="M90.4348 43.3679C88.7346 43.3679 87.3325 43.0456 86.2223 42.401C85.1121 41.7563 84.3001 40.9031 83.7862 39.835C83.266 38.767 83.0122 37.6294 83.0122 36.4159C83.0122 34.8738 83.3738 33.6035 84.0907 32.6113C84.8076 31.619 85.7402 30.8164 86.8884 30.2097C88.0304 29.6029 89.2357 29.0973 90.4855 28.6929C91.7417 28.2884 92.9407 27.8902 94.089 27.5047C95.2309 27.1192 96.1571 26.6578 96.8613 26.1269C97.5592 25.596 97.9144 24.9072 97.9144 24.0603V19.4783C97.9144 18.6693 97.7939 17.9046 97.5528 17.1904C97.3118 16.4763 96.8867 15.8822 96.2777 15.4271C95.6686 14.9658 94.8312 14.7383 93.7591 14.7383C93.0929 14.7383 92.4458 14.8331 91.8178 15.0163C91.1897 15.1996 90.6378 15.4967 90.1556 15.9011C91.3356 16.3056 92.2111 16.9123 92.7884 17.7213C93.3594 18.5303 93.6449 19.434 93.6449 20.4263C93.6449 21.7851 93.1754 22.8658 92.2302 23.6558C91.2912 24.4458 90.1683 24.844 88.8805 24.844C87.4784 24.844 86.3936 24.4016 85.6387 23.5168C84.8837 22.632 84.5031 21.5702 84.5031 20.3188C84.5031 19.2128 84.7822 18.2838 85.3341 17.5317C85.8861 16.7796 86.6981 16.0907 87.7703 15.4651C88.8424 14.8394 90.1303 14.378 91.6465 14.0873C93.1627 13.7966 94.7678 13.6449 96.468 13.6449C98.1682 13.6449 99.7986 13.8219 101.258 14.1695C102.717 14.5171 103.96 15.2123 104.994 16.2361C105.806 17.083 106.327 18.1131 106.549 19.3266C106.771 20.54 106.879 22.0884 106.879 23.9592V38.8554C106.879 39.7782 106.961 40.4102 107.126 40.7578C107.291 41.1054 107.557 41.2823 107.932 41.2823C108.262 41.2823 108.579 41.1938 108.871 41.0042C109.169 40.821 109.461 40.6187 109.759 40.3975L110.368 41.3329C109.556 41.9965 108.598 42.5021 107.488 42.8497C106.377 43.1973 105.178 43.3743 103.891 43.3743C102.412 43.3743 101.258 43.1783 100.427 42.7928C99.5956 42.4073 99.0056 41.8827 98.6567 41.2191C98.3078 40.5555 98.1111 39.8224 98.073 39.0134C97.261 40.3406 96.2459 41.3961 95.0279 42.1861C93.8098 42.9761 92.2746 43.3743 90.4284 43.3743L90.4348 43.3679ZM95.0342 39.3926C95.6242 39.3926 96.1508 39.2726 96.6139 39.0324C97.077 38.7922 97.5084 38.3814 97.9144 37.7937V26.3165C97.6163 26.8348 97.2229 27.3214 96.7218 27.7765C96.2206 28.2378 95.694 28.6992 95.1421 29.1542C94.5901 29.6156 94.0636 30.1212 93.5624 30.671C93.0612 31.2209 92.6552 31.8781 92.3443 32.6302C92.0335 33.3823 91.8749 34.2924 91.8749 35.3605C91.8749 36.7951 92.1667 37.8253 92.7631 38.451C93.3531 39.0766 94.108 39.3863 95.0342 39.3863V39.3926Z" fill="#0A133A"/>
<path d="M123.608 13.7966V37.8569C123.608 39.399 123.855 40.4481 124.357 41.0043C124.858 41.5541 125.714 41.8322 126.932 41.8322V42.9888C126.228 42.9508 125.15 42.9066 123.691 42.8497C122.231 42.7928 120.766 42.7676 119.288 42.7676C117.81 42.7676 116.306 42.7928 114.771 42.8497C113.235 42.9066 112.087 42.9508 111.307 42.9888V41.8322C112.525 41.8322 113.381 41.5541 113.883 41.0043C114.384 40.4544 114.631 39.4053 114.631 37.8569V20.42C114.631 18.7641 114.403 17.5444 113.94 16.748C113.477 15.958 112.601 15.5599 111.307 15.5599V14.4033C112.487 14.5108 113.635 14.5676 114.739 14.5676C116.401 14.5676 117.981 14.5044 119.472 14.3717C120.969 14.2453 122.346 14.0494 123.595 13.7903L123.608 13.7966ZM118.736 0C120.474 0 121.825 0.385521 122.809 1.15656C123.786 1.92761 124.274 3.05257 124.274 4.52513C124.274 5.9977 123.786 7.11634 122.809 7.8937C121.832 8.66474 120.474 9.05027 118.736 9.05027C116.998 9.05027 115.646 8.66474 114.663 7.8937C113.686 7.12266 113.197 5.9977 113.197 4.52513C113.197 3.05257 113.686 1.93393 114.663 1.15656C115.64 0.385521 116.998 0 118.736 0Z" fill="#0A133A"/>
<path d="M149.809 13.6323C151.433 13.6323 152.734 13.8345 153.717 14.239C154.694 14.6435 155.443 15.1617 155.963 15.7811C156.553 16.4826 156.984 17.3801 157.263 18.4861C157.543 19.5921 157.676 21.0773 157.676 22.9543V37.8506C157.676 39.3927 157.923 40.4418 158.424 40.998C158.926 41.5478 159.782 41.8259 161 41.8259V42.9825C160.264 42.9445 159.16 42.9003 157.707 42.8434C156.248 42.7865 154.834 42.7613 153.47 42.7613C151.953 42.7613 150.494 42.7865 149.092 42.8434C147.69 42.9003 146.637 42.9445 145.933 42.9825V41.8259C146.967 41.8259 147.684 41.5478 148.096 40.998C148.502 40.4481 148.705 39.399 148.705 37.8506V20.3062C148.705 19.4594 148.61 18.7326 148.426 18.1258C148.242 17.5191 147.925 17.0578 147.487 16.7481C147.043 16.4384 146.415 16.2804 145.603 16.2804C144.791 16.2804 143.966 16.5016 143.249 16.944C142.532 17.3864 141.955 17.9994 141.53 18.7894C141.105 19.5794 140.896 20.4706 140.896 21.4628V37.8506C140.896 39.3927 141.099 40.4418 141.505 40.998C141.911 41.5478 142.628 41.8259 143.668 41.8259V42.9825C142.964 42.9445 141.949 42.9003 140.623 42.8434C139.291 42.7865 137.946 42.7613 136.582 42.7613C135.065 42.7613 133.556 42.7865 132.039 42.8434C130.523 42.9003 129.381 42.9445 128.607 42.9825V41.8259C129.825 41.8259 130.682 41.5478 131.183 40.998C131.684 40.4481 131.931 39.399 131.931 37.8506V20.4137C131.931 18.7578 131.69 17.5381 131.215 16.7418C130.732 15.9517 129.863 15.5536 128.614 15.5536V14.397C129.794 14.5045 130.942 14.5613 132.046 14.5613C133.708 14.5613 135.287 14.4981 136.778 14.3654C138.276 14.239 139.652 14.0431 140.902 13.784V18.2522C141.79 16.5585 142.996 15.364 144.531 14.6625C146.06 13.9673 147.823 13.6133 149.822 13.6133L149.809 13.6323Z" fill="#0A133A"/>
</g>
<g clip-path="url(#clip1_222_1896)">
<path d="M3.16125 64.1356L5.16744 69.1434C5.24423 69.3356 5.33062 69.469 5.42661 69.5403C5.5226 69.6116 5.60899 69.6519 5.68578 69.655V69.8163C5.5194 69.807 5.32742 69.7976 5.10344 69.7976C4.87947 69.7976 4.65549 69.7945 4.43152 69.7945C4.17874 69.7945 3.93877 69.7945 3.71479 69.7976C3.48762 69.7976 3.31164 69.807 3.17725 69.8163V69.655C3.45882 69.6457 3.6348 69.5992 3.70839 69.5155C3.78199 69.4318 3.76599 69.255 3.654 68.9821L2.25255 65.2643L2.39974 65.0565L1.14547 68.2255C1.02389 68.5201 0.950296 68.7589 0.927899 68.9449C0.902301 69.131 0.9183 69.2767 0.969494 69.3759C1.02069 69.4783 1.10708 69.5465 1.22547 69.5868C1.34385 69.6271 1.48464 69.6488 1.65102 69.655V69.8163C1.46864 69.807 1.29586 69.7976 1.12948 69.7976C0.963095 69.7976 0.796713 69.7945 0.627131 69.7945C0.505545 69.7945 0.390357 69.7945 0.284769 69.7976C0.175981 69.7976 0.0831909 69.807 0 69.8163V69.655C0.115187 69.6333 0.233574 69.562 0.355161 69.438C0.476748 69.3139 0.595135 69.1062 0.710322 68.8147L2.59172 64.1356C2.67811 64.1418 2.7741 64.1449 2.87649 64.1449C2.97887 64.1449 3.07166 64.1449 3.16125 64.1356ZM3.74039 67.5123V67.6736H1.27986L1.36305 67.5123H3.74039Z" fill="#27343D"/>
<path d="M7.54471 65.5681C7.77508 65.5681 7.97666 65.596 8.15264 65.6518C8.32542 65.7077 8.45021 65.7635 8.527 65.8162C8.71258 65.9402 8.83097 65.8596 8.87256 65.5774H9.04534C9.03575 65.7263 9.02615 65.9092 9.01975 66.1263C9.01335 66.3433 9.01015 66.6286 9.01015 66.9852H8.83737C8.80857 66.7867 8.75738 66.5945 8.68058 66.4022C8.60379 66.21 8.4918 66.0518 8.34782 65.9309C8.20064 65.8069 8.01506 65.748 7.78148 65.748C7.6215 65.748 7.48711 65.7914 7.37833 65.8813C7.26954 65.9681 7.21194 66.0953 7.21194 66.2627C7.21194 66.4301 7.25994 66.5635 7.35913 66.6813C7.45832 66.7991 7.5863 66.917 7.74309 67.0255C7.89987 67.134 8.06305 67.2519 8.23263 67.3728C8.41501 67.5061 8.5782 67.6395 8.72858 67.7697C8.87576 67.8999 8.99415 68.0426 9.08374 68.1976C9.17013 68.3526 9.21493 68.5356 9.21493 68.7496C9.21493 68.9883 9.14453 69.1992 9.00055 69.379C8.85656 69.5589 8.66779 69.6953 8.43421 69.7914C8.20064 69.8876 7.94146 69.9341 7.6535 69.9341C7.48711 69.9341 7.33993 69.9186 7.21194 69.8876C7.08396 69.8565 6.97197 69.8162 6.87918 69.7666C6.80879 69.7356 6.7416 69.7046 6.6776 69.6736C6.61361 69.6457 6.55602 69.6178 6.50162 69.5961C6.44723 69.5806 6.39923 69.5961 6.35764 69.6519C6.31604 69.7046 6.28405 69.779 6.26165 69.8751H6.08887C6.09847 69.7046 6.10807 69.4968 6.11446 69.2519C6.12086 69.0069 6.12406 68.6813 6.12406 68.2751H6.29684C6.32884 68.5635 6.38963 68.8178 6.47922 69.0379C6.56561 69.2581 6.6872 69.4317 6.83759 69.5589C6.98797 69.6829 7.17995 69.748 7.41032 69.748C7.50311 69.748 7.5959 69.7294 7.68229 69.6922C7.76868 69.655 7.84228 69.593 7.89987 69.5093C7.95746 69.4255 7.98626 69.3139 7.98626 69.1806C7.98626 68.9449 7.90947 68.7527 7.74949 68.5976C7.5927 68.4426 7.39432 68.2751 7.15115 68.0922C6.97517 67.9526 6.80879 67.8162 6.65201 67.6798C6.49522 67.5433 6.36724 67.3945 6.26805 67.2333C6.16886 67.072 6.12086 66.886 6.12086 66.6782C6.12086 66.4394 6.18806 66.2348 6.31924 66.0704C6.45043 65.9061 6.62641 65.7821 6.84398 65.6983C7.06156 65.6146 7.29514 65.5743 7.54151 65.5743L7.54471 65.5681Z" fill="#27343D"/>
<path d="M11.4419 65.5681C11.6723 65.5681 11.8739 65.596 12.0499 65.6518C12.2226 65.7077 12.3474 65.7635 12.4242 65.8162C12.6098 65.9402 12.7282 65.8596 12.7698 65.5774H12.9426C12.933 65.7263 12.9234 65.9092 12.917 66.1263C12.9106 66.3433 12.9074 66.6286 12.9074 66.9852H12.7346C12.7058 66.7867 12.6546 66.5945 12.5778 66.4022C12.501 66.21 12.389 66.0518 12.245 65.9309C12.0979 65.8069 11.9123 65.748 11.6787 65.748C11.5187 65.748 11.3843 65.7914 11.2755 65.8813C11.1668 65.9681 11.1092 66.0953 11.1092 66.2627C11.1092 66.4301 11.1572 66.5635 11.2563 66.6813C11.3555 66.7991 11.4835 66.917 11.6403 67.0255C11.7971 67.134 11.9603 67.2519 12.1298 67.3728C12.3122 67.5061 12.4754 67.6395 12.6258 67.7697C12.773 67.8999 12.8914 68.0426 12.981 68.1976C13.0673 68.3526 13.1121 68.5356 13.1121 68.7496C13.1121 68.9883 13.0418 69.1992 12.8978 69.379C12.7538 69.5589 12.565 69.6953 12.3314 69.7914C12.0979 69.8876 11.8387 69.9341 11.5507 69.9341C11.3843 69.9341 11.2371 69.9186 11.1092 69.8876C10.9812 69.8565 10.8692 69.8162 10.7764 69.7666C10.706 69.7356 10.6388 69.7046 10.5748 69.6736C10.5108 69.6457 10.4532 69.6178 10.3988 69.5961C10.3444 69.5806 10.2965 69.5961 10.2549 69.6519C10.2133 69.7046 10.1813 69.779 10.1589 69.8751H9.98608C9.99568 69.7046 10.0053 69.4968 10.0117 69.2519C10.0181 69.0069 10.0213 68.6813 10.0213 68.2751H10.1941C10.2261 68.5635 10.2869 68.8178 10.3764 69.0379C10.4628 69.2581 10.5844 69.4317 10.7348 69.5589C10.8852 69.6829 11.0772 69.748 11.3075 69.748C11.4003 69.748 11.4931 69.7294 11.5795 69.6922C11.6659 69.655 11.7395 69.593 11.7971 69.5093C11.8547 69.4255 11.8835 69.3139 11.8835 69.1806C11.8835 68.9449 11.8067 68.7527 11.6467 68.5976C11.4899 68.4426 11.2915 68.2751 11.0484 68.0922C10.8724 67.9526 10.706 67.8162 10.5492 67.6798C10.3924 67.5433 10.2645 67.3945 10.1653 67.2333C10.0661 67.072 10.0181 66.886 10.0181 66.6782C10.0181 66.4394 10.0853 66.2348 10.2165 66.0704C10.3476 65.9061 10.5236 65.7821 10.7412 65.6983C10.9588 65.6146 11.1924 65.5743 11.4387 65.5743L11.4419 65.5681Z" fill="#27343D"/>
<path d="M15.8317 65.5682C16.3149 65.5682 16.6957 65.7077 16.9708 65.9837C17.246 66.2596 17.3836 66.7155 17.3836 67.3449H14.6671L14.6511 67.193H16.3437C16.3501 66.9325 16.3341 66.6906 16.2957 66.4705C16.2573 66.2503 16.1965 66.0705 16.1133 65.9371C16.0301 65.8038 15.9213 65.7387 15.7838 65.7387C15.5918 65.7387 15.4286 65.8565 15.2942 66.0922C15.1598 66.3279 15.0766 66.7155 15.051 67.2612L15.0766 67.3077C15.0702 67.3728 15.067 67.4379 15.0638 67.5062C15.0638 67.5744 15.0606 67.6488 15.0606 67.7232C15.0606 68.0922 15.115 68.3899 15.2206 68.6194C15.3294 68.8488 15.4638 69.0163 15.6302 69.1186C15.7966 69.2209 15.9629 69.2736 16.1325 69.2736C16.2477 69.2736 16.3693 69.255 16.4909 69.2209C16.6157 69.1868 16.7404 69.1217 16.8652 69.0287C16.9932 68.9356 17.1116 68.8023 17.2204 68.6318L17.3676 68.6783C17.3004 68.8798 17.198 69.0783 17.054 69.2705C16.91 69.4628 16.7277 69.6209 16.5101 69.7419C16.2893 69.8659 16.0269 69.9248 15.7166 69.9248C15.3422 69.9248 15.0126 69.8473 14.7247 69.6922C14.4399 69.5372 14.2127 69.3015 14.0527 68.9884C13.8896 68.6752 13.8096 68.2752 13.8096 67.7883C13.8096 67.3015 13.896 66.8798 14.0687 66.548C14.2415 66.2162 14.4815 65.9713 14.7855 65.8069C15.0894 65.6457 15.4382 65.562 15.8285 65.562L15.8317 65.5682Z" fill="#27343D"/>
<path d="M19.5786 65.5681C19.809 65.5681 20.0106 65.596 20.1866 65.6518C20.3594 65.7077 20.4841 65.7635 20.5609 65.8162C20.7465 65.9402 20.8649 65.8596 20.9065 65.5774H21.0793C21.0697 65.7263 21.0601 65.9092 21.0537 66.1263C21.0473 66.3433 21.0441 66.6286 21.0441 66.9852H20.8713C20.8425 66.7867 20.7913 66.5945 20.7145 66.4022C20.6377 66.21 20.5257 66.0518 20.3818 65.9309C20.2346 65.8069 20.049 65.748 19.8154 65.748C19.6554 65.748 19.521 65.7914 19.4123 65.8813C19.3035 65.9681 19.2459 66.0953 19.2459 66.2627C19.2459 66.4301 19.2939 66.5635 19.3931 66.6813C19.4923 66.7991 19.6202 66.917 19.777 67.0255C19.9338 67.134 20.097 67.2519 20.2666 67.3728C20.4489 67.5061 20.6121 67.6395 20.7625 67.7697C20.9097 67.8999 21.0281 68.0426 21.1177 68.1976C21.2041 68.3526 21.2489 68.5356 21.2489 68.7496C21.2489 68.9883 21.1785 69.1992 21.0345 69.379C20.8905 69.5589 20.7017 69.6953 20.4681 69.7914C20.2346 69.8876 19.9754 69.9341 19.6874 69.9341C19.521 69.9341 19.3739 69.9186 19.2459 69.8876C19.1179 69.8565 19.0059 69.8162 18.9131 69.7666C18.8427 69.7356 18.7755 69.7046 18.7115 69.6736C18.6475 69.6457 18.59 69.6178 18.5356 69.5961C18.4812 69.5806 18.4332 69.5961 18.3916 69.6519C18.35 69.7046 18.318 69.779 18.2956 69.8751H18.1228C18.1324 69.7046 18.142 69.4968 18.1484 69.2519C18.1548 69.0069 18.158 68.6813 18.158 68.2751H18.3308C18.3628 68.5635 18.4236 68.8178 18.5132 69.0379C18.5996 69.2581 18.7211 69.4317 18.8715 69.5589C19.0219 69.6829 19.2139 69.748 19.4443 69.748C19.537 69.748 19.6298 69.7294 19.7162 69.6922C19.8026 69.655 19.8762 69.593 19.9338 69.5093C19.9914 69.4255 20.0202 69.3139 20.0202 69.1806C20.0202 68.9449 19.9434 68.7527 19.7834 68.5976C19.6266 68.4426 19.4283 68.2751 19.1851 68.0922C19.0091 67.9526 18.8427 67.8162 18.6859 67.6798C18.5292 67.5433 18.4012 67.3945 18.302 67.2333C18.2028 67.072 18.1548 66.886 18.1548 66.6782C18.1548 66.4394 18.222 66.2348 18.3532 66.0704C18.4844 65.9061 18.6603 65.7821 18.8779 65.6983C19.0955 65.6146 19.3291 65.5743 19.5754 65.5743L19.5786 65.5681Z" fill="#27343D"/>
<path d="M23.4759 65.5681C23.7062 65.5681 23.9078 65.596 24.0838 65.6518C24.2566 65.7077 24.3814 65.7635 24.4582 65.8162C24.6437 65.9402 24.7621 65.8596 24.8037 65.5774H24.9765C24.9669 65.7263 24.9573 65.9092 24.9509 66.1263C24.9445 66.3433 24.9413 66.6286 24.9413 66.9852H24.7685C24.7397 66.7867 24.6885 66.5945 24.6117 66.4022C24.5349 66.21 24.423 66.0518 24.279 65.9309C24.1318 65.8069 23.9462 65.748 23.7126 65.748C23.5527 65.748 23.4183 65.7914 23.3095 65.8813C23.2007 65.9681 23.1431 66.0953 23.1431 66.2627C23.1431 66.4301 23.1911 66.5635 23.2903 66.6813C23.3895 66.7991 23.5175 66.917 23.6742 67.0255C23.831 67.134 23.9942 67.2519 24.1638 67.3728C24.3462 67.5061 24.5093 67.6395 24.6597 67.7697C24.8069 67.8999 24.9253 68.0426 25.0149 68.1976C25.1013 68.3526 25.1461 68.5356 25.1461 68.7496C25.1461 68.9883 25.0757 69.1992 24.9317 69.379C24.7877 69.5589 24.5989 69.6953 24.3654 69.7914C24.1318 69.8876 23.8726 69.9341 23.5846 69.9341C23.4183 69.9341 23.2711 69.9186 23.1431 69.8876C23.0151 69.8565 22.9031 69.8162 22.8103 69.7666C22.7399 69.7356 22.6727 69.7046 22.6088 69.6736C22.5448 69.6457 22.4872 69.6178 22.4328 69.5961C22.3784 69.5806 22.3304 69.5961 22.2888 69.6519C22.2472 69.7046 22.2152 69.779 22.1928 69.8751H22.02C22.0296 69.7046 22.0392 69.4968 22.0456 69.2519C22.052 69.0069 22.0552 68.6813 22.0552 68.2751H22.228C22.26 68.5635 22.3208 68.8178 22.4104 69.0379C22.4968 69.2581 22.6184 69.4317 22.7687 69.5589C22.9191 69.6829 23.1111 69.748 23.3415 69.748C23.4343 69.748 23.5271 69.7294 23.6134 69.6922C23.6998 69.655 23.7734 69.593 23.831 69.5093C23.8886 69.4255 23.9174 69.3139 23.9174 69.1806C23.9174 68.9449 23.8406 68.7527 23.6806 68.5976C23.5239 68.4426 23.3255 68.2751 23.0823 68.0922C22.9063 67.9526 22.7399 67.8162 22.5832 67.6798C22.4264 67.5433 22.2984 67.3945 22.1992 67.2333C22.1 67.072 22.052 66.886 22.052 66.6782C22.052 66.4394 22.1192 66.2348 22.2504 66.0704C22.3816 65.9061 22.5576 65.7821 22.7751 65.6983C22.9927 65.6146 23.2263 65.5743 23.4727 65.5743L23.4759 65.5681Z" fill="#27343D"/>
<path d="M29.7471 64.1511C29.8847 64.1573 30.0703 64.1604 30.3038 64.1666C30.5374 64.1728 30.771 64.1759 31.0014 64.1759C31.2669 64.1759 31.5229 64.1759 31.7693 64.1666C32.0156 64.1573 32.1916 64.1573 32.2972 64.1573C32.8092 64.1573 33.2347 64.2131 33.5739 64.3216C33.913 64.4301 34.1658 64.5883 34.3322 64.7991C34.4986 65.0069 34.585 65.2581 34.585 65.5526C34.585 65.7325 34.5466 65.9154 34.4698 66.1015C34.393 66.2875 34.2618 66.455 34.0762 66.6131C33.8906 66.7713 33.6411 66.8953 33.3211 66.9883C33.0011 67.0813 32.6012 67.1278 32.1148 67.1278H31.3213V66.9666H32.0316C32.3548 66.9666 32.6012 66.9077 32.7708 66.7868C32.9371 66.6658 33.0555 66.5077 33.1163 66.3061C33.1803 66.1077 33.2123 65.8844 33.2123 65.6395C33.2123 65.2177 33.1355 64.8922 32.9819 64.6596C32.8284 64.427 32.5628 64.3123 32.1884 64.3123C31.9741 64.3123 31.8333 64.3588 31.7725 64.4487C31.7085 64.5387 31.6765 64.7247 31.6765 65.0007V68.9697C31.6765 69.162 31.6925 69.3046 31.7213 69.4007C31.7501 69.4969 31.8109 69.562 31.8973 69.593C31.9837 69.624 32.118 69.6457 32.294 69.6581V69.8194C32.1468 69.8101 31.9581 69.8007 31.7341 69.8007C31.5069 69.8007 31.2797 69.7976 31.0494 69.7976C30.7838 69.7976 30.5374 69.7976 30.3038 69.8007C30.0703 69.8007 29.8847 69.8101 29.7471 69.8194V69.6581C29.9231 69.6488 30.0543 69.6271 30.1439 69.593C30.2302 69.562 30.291 69.4969 30.3198 69.4007C30.3486 69.3046 30.3646 69.162 30.3646 68.9697V65.0007C30.3646 64.8022 30.3486 64.6596 30.3198 64.5635C30.291 64.4704 30.2302 64.4053 30.1375 64.3712C30.0479 64.3371 29.9167 64.3154 29.7439 64.3123V64.1511H29.7471ZM31.3085 66.9914C31.5453 66.9976 31.7501 67.0069 31.9229 67.0224C32.0956 67.0379 32.2492 67.0534 32.3804 67.0658C32.5116 67.0782 32.63 67.0875 32.7356 67.0937C33.2379 67.1371 33.6059 67.2395 33.8458 67.4069C34.0858 67.5713 34.2394 67.8193 34.313 68.1511L34.5018 68.9759C34.5498 69.1899 34.6042 69.3387 34.6586 69.4224C34.713 69.5093 34.7929 69.5496 34.8985 69.5496C34.9689 69.5434 35.0297 69.5279 35.0745 69.4969C35.1225 69.469 35.1737 69.4224 35.2281 69.3635L35.3433 69.4597C35.1961 69.624 35.0361 69.7449 34.8633 69.8163C34.6938 69.8876 34.4858 69.9248 34.2458 69.9248C33.9482 69.9248 33.7051 69.8628 33.5099 69.7418C33.3179 69.6178 33.1899 69.3914 33.1291 69.0628L32.9819 68.2627C32.9435 68.0395 32.8956 67.8441 32.8412 67.6736C32.7868 67.5061 32.71 67.3728 32.614 67.2736C32.518 67.1744 32.3836 67.1247 32.214 67.1247H31.3213L31.3053 66.9883L31.3085 66.9914Z" fill="#27343D"/>
<path d="M37.5896 65.5682C38.0727 65.5682 38.4535 65.7077 38.7286 65.9837C39.0038 66.2596 39.1414 66.7155 39.1414 67.3449H36.4249L36.4089 67.193H38.1015C38.1079 66.9325 38.0919 66.6906 38.0535 66.4705C38.0151 66.2503 37.9543 66.0705 37.8711 65.9371C37.7879 65.8038 37.6792 65.7387 37.5416 65.7387C37.3496 65.7387 37.1864 65.8565 37.052 66.0922C36.9176 66.3279 36.8344 66.7155 36.8088 67.2612L36.8344 67.3077C36.828 67.3728 36.8248 67.4379 36.8216 67.5062C36.8216 67.5744 36.8184 67.6488 36.8184 67.7232C36.8184 68.0922 36.8728 68.3899 36.9784 68.6194C37.0872 68.8488 37.2216 69.0163 37.388 69.1186C37.5544 69.2209 37.7207 69.2736 37.8903 69.2736C38.0055 69.2736 38.1271 69.255 38.2487 69.2209C38.3735 69.1868 38.4983 69.1217 38.623 69.0287C38.751 68.9356 38.8694 68.8023 38.9782 68.6318L39.1254 68.6783C39.0582 68.8798 38.9558 69.0783 38.8118 69.2705C38.6678 69.4628 38.4855 69.6209 38.2679 69.7419C38.0471 69.8659 37.7847 69.9248 37.4744 69.9248C37.1 69.9248 36.7704 69.8473 36.4825 69.6922C36.1977 69.5372 35.9705 69.3015 35.8106 68.9884C35.6474 68.6752 35.5674 68.2752 35.5674 67.7883C35.5674 67.3015 35.6538 66.8798 35.8266 66.548C35.9993 66.2162 36.2393 65.9713 36.5433 65.8069C36.8472 65.6457 37.196 65.562 37.5864 65.562L37.5896 65.5682Z" fill="#27343D"/>
<path d="M41.3779 63.5619V66.3123C41.5155 66.0363 41.7011 65.841 41.9347 65.7325C42.1682 65.6239 42.4306 65.5681 42.7218 65.5681C42.9586 65.5681 43.1473 65.596 43.2913 65.6518C43.4353 65.7077 43.5473 65.7852 43.6305 65.8813C43.7233 65.9836 43.7905 66.1139 43.8321 66.272C43.8737 66.4301 43.8929 66.6472 43.8929 66.9201V69.072C43.8929 69.2953 43.9313 69.4472 44.0112 69.5279C44.0912 69.6085 44.2256 69.6488 44.4208 69.6488V69.8162C44.3152 69.81 44.1584 69.8038 43.9473 69.7976C43.7361 69.7914 43.5313 69.7852 43.3329 69.7852C43.1185 69.7852 42.9106 69.7883 42.709 69.7976C42.5074 69.8069 42.357 69.8131 42.2578 69.8162V69.6488C42.4242 69.6488 42.5394 69.6085 42.6034 69.5279C42.6706 69.4472 42.7026 69.2953 42.7026 69.072V66.5852C42.7026 66.4519 42.6898 66.3371 42.661 66.2379C42.6322 66.1387 42.581 66.0611 42.5074 66.0053C42.4338 65.9495 42.3282 65.9216 42.1906 65.9216C42.0435 65.9216 41.9059 65.9588 41.7811 66.0363C41.6563 66.1139 41.5571 66.2224 41.4835 66.3588C41.4099 66.4984 41.3715 66.6565 41.3715 66.8395V69.072C41.3715 69.2953 41.4035 69.4472 41.4707 69.5279C41.5379 69.6085 41.6531 69.6488 41.8163 69.6488V69.8162C41.7171 69.81 41.5699 69.8038 41.3779 69.7976C41.186 69.7883 40.9908 69.7852 40.7924 69.7852C40.578 69.7852 40.3604 69.7883 40.1429 69.7976C39.9253 69.8069 39.7621 69.8131 39.6533 69.8162V69.6488C39.8453 69.6488 39.9829 69.6085 40.0629 69.5279C40.1429 69.4472 40.1813 69.2953 40.1813 69.072V64.52C40.1813 64.2813 40.1429 64.1014 40.0693 63.9867C39.9957 63.872 39.8549 63.8162 39.6533 63.8162V63.6487C39.8293 63.6642 39.9989 63.6735 40.1653 63.6735C40.3924 63.6735 40.6068 63.6642 40.8084 63.6456C41.0132 63.627 41.1987 63.5991 41.3683 63.5619H41.3779Z" fill="#27343D"/>
<path d="M45.9437 69.8721C45.6973 69.8721 45.4893 69.8256 45.3261 69.7356C45.163 69.6457 45.0414 69.5248 44.9614 69.3728C44.8846 69.2209 44.8462 69.0535 44.8462 68.8736C44.8462 68.6441 44.9006 68.4581 45.0062 68.3124C45.115 68.1697 45.2525 68.0519 45.4221 67.9589C45.5917 67.8689 45.7741 67.7945 45.9629 67.7356C46.1516 67.6767 46.334 67.6209 46.5068 67.5651C46.6796 67.5092 46.8204 67.441 46.9292 67.3666C47.038 67.2891 47.0891 67.1899 47.0891 67.0658V66.4426C47.0891 66.303 47.0667 66.179 47.0188 66.0705C46.9708 65.9619 46.9004 65.8782 46.8044 65.8193C46.7084 65.7604 46.5836 65.7325 46.43 65.7325C46.3212 65.7325 46.2092 65.748 46.1005 65.7759C45.9917 65.8038 45.8989 65.8534 45.8285 65.9247C45.9821 65.9774 46.1037 66.0581 46.1868 66.1697C46.2732 66.2782 46.3148 66.4023 46.3148 66.5418C46.3148 66.7216 46.2508 66.8674 46.1197 66.9728C45.9917 67.0782 45.8381 67.1341 45.6621 67.1341C45.4637 67.1341 45.3133 67.0751 45.211 66.9542C45.1086 66.8333 45.0574 66.6875 45.0574 66.517C45.0574 66.3619 45.0958 66.2348 45.1758 66.1325C45.2557 66.0302 45.3677 65.934 45.5085 65.8441C45.6621 65.7604 45.8477 65.6922 46.0653 65.6457C46.2828 65.5991 46.5164 65.5743 46.7724 65.5743C47.0283 65.5743 47.2523 65.5991 47.4571 65.6488C47.6619 65.6984 47.8315 65.7914 47.969 65.9247C48.097 66.0488 48.177 66.1976 48.2154 66.3775C48.2538 66.5573 48.273 66.7806 48.273 67.0534V69.2302C48.273 69.3635 48.2858 69.4566 48.3146 69.5062C48.3434 69.5558 48.3882 69.5837 48.4554 69.5837C48.5034 69.5837 48.5546 69.5713 48.5994 69.5434C48.6474 69.5155 48.6986 69.4845 48.753 69.4473L48.8362 69.5837C48.721 69.6798 48.5866 69.7542 48.4362 69.8039C48.2858 69.8535 48.1162 69.8814 47.9275 69.8814C47.7227 69.8814 47.5627 69.8535 47.4411 69.7977C47.3195 69.7418 47.2331 69.6643 47.1819 69.5682C47.1307 69.4721 47.1019 69.3604 47.1019 69.2333C46.9708 69.4349 46.8108 69.5961 46.622 69.7108C46.4364 69.8256 46.206 69.8814 45.9373 69.8814L45.9437 69.8721ZM46.5292 69.3604C46.638 69.3604 46.7404 69.3356 46.83 69.2829C46.9196 69.2333 47.006 69.1496 47.0891 69.0318V67.3914C47.0411 67.472 46.9708 67.5434 46.8844 67.6085C46.7948 67.6736 46.702 67.7387 46.6028 67.8038C46.5036 67.872 46.4076 67.9434 46.318 68.024C46.2284 68.1046 46.1548 68.2038 46.1005 68.3186C46.0461 68.4364 46.0173 68.5759 46.0173 68.7434C46.0173 68.9511 46.0653 69.1062 46.158 69.2085C46.2508 69.3108 46.3756 69.3604 46.5292 69.3604Z" fill="#27343D"/>
<path d="M50.7304 63.5619V69.6581C50.5928 69.6364 50.4521 69.6364 50.3081 69.6581C50.1641 69.6798 50.0329 69.7139 49.9113 69.7666C49.7897 69.8162 49.6873 69.8783 49.6073 69.9465L49.4826 69.8752C49.505 69.8007 49.521 69.7263 49.5274 69.6519C49.5369 69.5775 49.5402 69.5031 49.5402 69.4286V64.52C49.5402 64.2813 49.5018 64.1014 49.4282 63.9867C49.3546 63.872 49.2138 63.8162 49.0122 63.8162V63.6487C49.1882 63.6642 49.3578 63.6735 49.5242 63.6735C49.7513 63.6735 49.9657 63.6642 50.1673 63.6456C50.3721 63.627 50.5576 63.5991 50.7272 63.5619H50.7304ZM51.9943 65.5712C52.423 65.5712 52.7782 65.7418 53.063 66.0798C53.3477 66.4177 53.4885 66.9387 53.4885 67.6426C53.4885 68.1976 53.4021 68.641 53.2293 68.979C53.0566 69.3139 52.8262 69.5589 52.5414 69.7077C52.2567 69.8565 51.9431 69.931 51.6007 69.931C51.3736 69.931 51.1656 69.8938 50.9736 69.8193C50.7816 69.7449 50.6152 69.6209 50.4776 69.4503L50.5928 69.41C50.692 69.5279 50.8072 69.6147 50.9448 69.6736C51.0792 69.7325 51.2136 69.7604 51.3448 69.7604C51.6487 69.7604 51.8727 69.5961 52.0231 69.2643C52.1703 68.9325 52.2471 68.4302 52.2471 67.7511C52.2471 67.2922 52.2183 66.9294 52.1607 66.6596C52.1031 66.3898 52.0199 66.1976 51.9079 66.0829C51.7991 65.9681 51.6647 65.9123 51.5111 65.9123C51.3192 65.9123 51.1432 65.9898 50.9832 66.1418C50.8232 66.2937 50.7336 66.5046 50.7112 66.7774L50.6696 66.4984C50.7688 66.1945 50.9352 65.965 51.172 65.8069C51.4087 65.6487 51.6839 65.5712 51.9975 65.5712H51.9943Z" fill="#27343D"/>
<path d="M55.7985 65.593V69.0721C55.7985 69.2953 55.8369 69.4473 55.9169 69.5279C55.9969 69.6085 56.1313 69.6488 56.3265 69.6488V69.8163C56.2209 69.8101 56.0673 69.8039 55.8593 69.7977C55.6513 69.7915 55.4434 69.7853 55.229 69.7853C55.0146 69.7853 54.797 69.7884 54.5763 69.7977C54.3555 69.807 54.1923 69.8132 54.0803 69.8163V69.6488C54.2723 69.6488 54.4099 69.6085 54.4899 69.5279C54.5699 69.4473 54.6083 69.2953 54.6083 69.0721V66.5511C54.6083 66.3123 54.5699 66.1325 54.4963 66.0178C54.4227 65.903 54.2819 65.8472 54.0803 65.8472V65.6798C54.2563 65.6953 54.4259 65.7046 54.5923 65.7046C54.8226 65.7046 55.0402 65.6953 55.2418 65.6767C55.4434 65.6581 55.629 65.6302 55.7985 65.593ZM55.1554 63.6177C55.3858 63.6177 55.5682 63.6736 55.7057 63.7821C55.8401 63.8906 55.9073 64.0425 55.9073 64.2348C55.9073 64.427 55.8401 64.579 55.7057 64.6875C55.5714 64.796 55.389 64.8519 55.1554 64.8519C54.9218 64.8519 54.7426 64.796 54.6051 64.6875C54.4707 64.579 54.4035 64.427 54.4035 64.2348C54.4035 64.0425 54.4707 63.8937 54.6051 63.7821C54.7395 63.6736 54.9218 63.6177 55.1554 63.6177Z" fill="#27343D"/>
<path d="M58.448 63.5526V69.0721C58.448 69.2953 58.4864 69.4473 58.5664 69.5279C58.6464 69.6085 58.7807 69.6488 58.9759 69.6488V69.8163C58.8703 69.8101 58.7135 69.8039 58.5056 69.7977C58.2976 69.7884 58.0832 69.7853 57.8688 69.7853C57.6545 69.7853 57.4369 69.7884 57.2193 69.7977C57.0017 69.807 56.8386 69.8132 56.7266 69.8163V69.6488C56.9185 69.6488 57.0561 69.6085 57.1361 69.5279C57.2161 69.4473 57.2545 69.2953 57.2545 69.0721V64.5139C57.2545 64.2751 57.2161 64.0953 57.1425 63.9805C57.0689 63.8658 56.9281 63.81 56.7266 63.81V63.6394C56.9025 63.6549 57.0721 63.6642 57.2385 63.6642C57.4625 63.6642 57.6801 63.6549 57.8816 63.6363C58.0864 63.6177 58.272 63.5898 58.4416 63.5526H58.448Z" fill="#27343D"/>
<path d="M61.1325 65.593V69.0721C61.1325 69.2953 61.1709 69.4473 61.2509 69.5279C61.3309 69.6085 61.4653 69.6488 61.6605 69.6488V69.8163C61.5549 69.8101 61.4013 69.8039 61.1933 69.7977C60.9853 69.7915 60.7774 69.7853 60.563 69.7853C60.3486 69.7853 60.131 69.7884 59.9103 69.7977C59.6895 69.807 59.5263 69.8132 59.4143 69.8163V69.6488C59.6063 69.6488 59.7439 69.6085 59.8239 69.5279C59.9039 69.4473 59.9422 69.2953 59.9422 69.0721V66.5511C59.9422 66.3123 59.9039 66.1325 59.8303 66.0178C59.7567 65.903 59.6159 65.8472 59.4143 65.8472V65.6798C59.5903 65.6953 59.7599 65.7046 59.9262 65.7046C60.1566 65.7046 60.3742 65.6953 60.5758 65.6767C60.7774 65.6581 60.9629 65.6302 61.1325 65.593ZM60.4894 63.6177C60.7198 63.6177 60.9021 63.6736 61.0397 63.7821C61.1741 63.8906 61.2413 64.0425 61.2413 64.2348C61.2413 64.427 61.1741 64.579 61.0397 64.6875C60.9053 64.796 60.723 64.8519 60.4894 64.8519C60.2558 64.8519 60.0766 64.796 59.939 64.6875C59.8047 64.579 59.7375 64.427 59.7375 64.2348C59.7375 64.0425 59.8047 63.8937 59.939 63.7821C60.0734 63.6736 60.2558 63.6177 60.4894 63.6177Z" fill="#27343D"/>
<path d="M63.7723 64.3681V65.6797H64.745V65.841H63.7723V69.072C63.7723 69.2333 63.8011 69.3449 63.8619 69.4131C63.9226 69.4813 64.0122 69.5124 64.1338 69.5124C64.233 69.5124 64.3322 69.4751 64.4314 69.4038C64.5306 69.3325 64.617 69.2085 64.697 69.0317L64.8377 69.103C64.7482 69.3418 64.617 69.5403 64.4378 69.6953C64.2586 69.8503 64.0154 69.9279 63.7083 69.9279C63.5259 69.9279 63.3659 69.9062 63.2283 69.8596C63.0907 69.8131 62.9756 69.7449 62.8828 69.655C62.7612 69.5372 62.6812 69.3914 62.6428 69.2178C62.6044 69.0441 62.5852 68.8178 62.5852 68.5418V65.841H61.8909V65.6797H62.5852V64.6224C62.8156 64.6224 63.0299 64.6038 63.2251 64.5635C63.4203 64.5231 63.6027 64.458 63.7755 64.3681H63.7723Z" fill="#27343D"/>
<path d="M66.2232 69.8721C65.9768 69.8721 65.7689 69.8256 65.6057 69.7356C65.4425 69.6457 65.3209 69.5248 65.2409 69.3728C65.1641 69.2209 65.1257 69.0535 65.1257 68.8736C65.1257 68.6441 65.1801 68.4581 65.2857 68.3124C65.3945 68.1697 65.5321 68.0519 65.7017 67.9589C65.8713 67.8689 66.0536 67.7945 66.2424 67.7356C66.4312 67.6767 66.6136 67.6209 66.7864 67.5651C66.9591 67.5092 67.0999 67.441 67.2087 67.3666C67.3175 67.2891 67.3687 67.1899 67.3687 67.0658V66.4426C67.3687 66.303 67.3463 66.179 67.2983 66.0705C67.2503 65.9619 67.1799 65.8782 67.0839 65.8193C66.9879 65.7604 66.8631 65.7325 66.7096 65.7325C66.6008 65.7325 66.4888 65.748 66.38 65.7759C66.2712 65.8038 66.1784 65.8534 66.108 65.9247C66.2616 65.9774 66.3832 66.0581 66.4664 66.1697C66.5528 66.2782 66.5944 66.4023 66.5944 66.5418C66.5944 66.7216 66.5304 66.8674 66.3992 66.9728C66.2712 67.0782 66.1176 67.1341 65.9416 67.1341C65.7433 67.1341 65.5929 67.0751 65.4905 66.9542C65.3881 66.8333 65.3369 66.6875 65.3369 66.517C65.3369 66.3619 65.3753 66.2348 65.4553 66.1325C65.5353 66.0302 65.6473 65.934 65.7881 65.8441C65.9416 65.7604 66.1272 65.6922 66.3448 65.6457C66.5624 65.5991 66.796 65.5743 67.0519 65.5743C67.3079 65.5743 67.5319 65.5991 67.7366 65.6488C67.9414 65.6984 68.111 65.7914 68.2486 65.9247C68.3766 66.0488 68.4566 66.1976 68.495 66.3775C68.5334 66.5573 68.5526 66.7806 68.5526 67.0534V69.2302C68.5526 69.3635 68.5654 69.4566 68.5942 69.5062C68.623 69.5558 68.6677 69.5837 68.7349 69.5837C68.7829 69.5837 68.8341 69.5713 68.8789 69.5434C68.9269 69.5155 68.9781 69.4845 69.0325 69.4473L69.1157 69.5837C69.0005 69.6798 68.8661 69.7542 68.7157 69.8039C68.5654 69.8535 68.3958 69.8814 68.207 69.8814C68.0022 69.8814 67.8422 69.8535 67.7206 69.7977C67.5991 69.7418 67.5127 69.6643 67.4615 69.5682C67.4103 69.4721 67.3815 69.3604 67.3815 69.2333C67.2503 69.4349 67.0903 69.5961 66.9015 69.7108C66.716 69.8256 66.4856 69.8814 66.2168 69.8814L66.2232 69.8721ZM66.8088 69.3604C66.9175 69.3604 67.0199 69.3356 67.1095 69.2829C67.1991 69.2333 67.2855 69.1496 67.3687 69.0318V67.3914C67.3207 67.472 67.2503 67.5434 67.1639 67.6085C67.0743 67.6736 66.9815 67.7387 66.8823 67.8038C66.7832 67.872 66.6872 67.9434 66.5976 68.024C66.508 68.1046 66.4344 68.2038 66.38 68.3186C66.3256 68.4364 66.2968 68.5759 66.2968 68.7434C66.2968 68.9511 66.3448 69.1062 66.4376 69.2085C66.5304 69.3108 66.6552 69.3604 66.8088 69.3604Z" fill="#27343D"/>
<path d="M71.1187 64.3681V65.6797H72.0914V65.841H71.1187V69.072C71.1187 69.2333 71.1475 69.3449 71.2083 69.4131C71.2691 69.4813 71.3587 69.5124 71.4803 69.5124C71.5794 69.5124 71.6786 69.4751 71.7778 69.4038C71.877 69.3325 71.9634 69.2085 72.0434 69.0317L72.1842 69.103C72.0946 69.3418 71.9634 69.5403 71.7842 69.6953C71.605 69.8503 71.3619 69.9279 71.0547 69.9279C70.8723 69.9279 70.7123 69.9062 70.5748 69.8596C70.4372 69.8131 70.322 69.7449 70.2292 69.655C70.1076 69.5372 70.0276 69.3914 69.9892 69.2178C69.9508 69.0441 69.9316 68.8178 69.9316 68.5418V65.841H69.2373V65.6797H69.9316V64.6224C70.162 64.6224 70.3764 64.6038 70.5716 64.5635C70.7667 64.5231 70.9491 64.458 71.1219 64.3681H71.1187Z" fill="#27343D"/>
<path d="M74.5615 65.5682C75.0446 65.5682 75.4254 65.7077 75.7006 65.9837C75.9757 66.2596 76.1133 66.7155 76.1133 67.3449H73.3968L73.3808 67.193H75.0734C75.0798 66.9325 75.0638 66.6906 75.0254 66.4705C74.987 66.2503 74.9262 66.0705 74.8431 65.9371C74.7599 65.8038 74.6511 65.7387 74.5135 65.7387C74.3215 65.7387 74.1583 65.8565 74.0239 66.0922C73.8896 66.3279 73.8064 66.7155 73.7808 67.2612L73.8064 67.3077C73.8 67.3728 73.7968 67.4379 73.7936 67.5062C73.7936 67.5744 73.7904 67.6488 73.7904 67.7232C73.7904 68.0922 73.8448 68.3899 73.9503 68.6194C74.0591 68.8488 74.1935 69.0163 74.3599 69.1186C74.5263 69.2209 74.6927 69.2736 74.8623 69.2736C74.9774 69.2736 75.099 69.255 75.2206 69.2209C75.3454 69.1868 75.4702 69.1217 75.595 69.0287C75.723 68.9356 75.8413 68.8023 75.9501 68.6318L76.0973 68.6783C76.0301 68.8798 75.9277 69.0783 75.7838 69.2705C75.6398 69.4628 75.4574 69.6209 75.2398 69.7419C75.019 69.8659 74.7567 69.9248 74.4463 69.9248C74.0719 69.9248 73.7424 69.8473 73.4544 69.6922C73.1696 69.5372 72.9425 69.3015 72.7825 68.9884C72.6193 68.6752 72.5393 68.2752 72.5393 67.7883C72.5393 67.3015 72.6257 66.8798 72.7985 66.548C72.9713 66.2162 73.2112 65.9713 73.5152 65.8069C73.8192 65.6457 74.1679 65.562 74.5583 65.562L74.5615 65.5682Z" fill="#27343D"/>
<path d="M82.6022 64.0488C82.9253 64.0488 83.1781 64.0829 83.3541 64.148C83.5301 64.2162 83.6804 64.2844 83.8084 64.3588C83.8756 64.3961 83.9268 64.424 83.9684 64.4426C84.01 64.4612 84.0484 64.4705 84.0868 64.4705C84.1412 64.4705 84.1828 64.4426 84.2052 64.3837C84.2308 64.3247 84.25 64.2379 84.266 64.1201H84.4548C84.4484 64.2224 84.442 64.3433 84.4356 64.4829C84.426 64.6255 84.4228 64.8085 84.4196 65.0379C84.4196 65.2674 84.4163 65.5682 84.4163 65.9434H84.2276C84.2052 65.6674 84.138 65.3976 84.0292 65.1341C83.9204 64.8736 83.7636 64.6565 83.562 64.4891C83.3605 64.3216 83.1141 64.2379 82.8229 64.2379C82.5574 64.2379 82.3398 64.3092 82.1702 64.455C82.0006 64.5976 81.9142 64.7992 81.9142 65.0534C81.9142 65.2674 81.9686 65.4503 82.0806 65.6023C82.1894 65.7542 82.3526 65.9031 82.5638 66.0457C82.7749 66.1883 83.0341 66.362 83.3349 66.5666C83.6004 66.731 83.834 66.8984 84.0452 67.0628C84.2532 67.2271 84.4227 67.4163 84.5475 67.624C84.6755 67.8318 84.7363 68.0798 84.7363 68.3682C84.7363 68.7186 84.6403 69.0101 84.4515 69.2395C84.2628 69.469 84.0132 69.6395 83.706 69.7543C83.3989 69.869 83.0597 69.9248 82.6917 69.9248C82.3494 69.9248 82.0774 69.8938 81.8758 69.8287C81.6711 69.7636 81.5015 69.6985 81.3639 69.6302C81.2423 69.5558 81.1495 69.5186 81.0823 69.5186C81.0279 69.5186 80.9863 69.5465 80.9639 69.6054C80.9383 69.6643 80.9191 69.7512 80.9031 69.869H80.7144C80.724 69.7419 80.7336 69.593 80.7336 69.4225C80.7336 69.2519 80.74 69.0287 80.7432 68.7558C80.7432 68.4798 80.7464 68.1325 80.7464 67.7108H80.9351C80.9575 68.0612 81.0183 68.393 81.1207 68.7C81.2231 69.007 81.3799 69.2519 81.5911 69.4411C81.8022 69.6271 82.0838 69.7202 82.4358 69.7202C82.6278 69.7202 82.8005 69.686 82.9509 69.6209C83.1013 69.5558 83.2261 69.4535 83.3189 69.3202C83.4117 69.1868 83.4597 69.0225 83.4597 68.824C83.4597 68.6008 83.4053 68.4054 83.2997 68.2411C83.1909 68.0767 83.0469 67.9217 82.8613 67.7759C82.6757 67.6333 82.4646 67.4845 82.2214 67.3356C81.9622 67.1713 81.719 67.0038 81.4951 66.8395C81.2679 66.6752 81.0887 66.486 80.9543 66.2721C80.8199 66.0581 80.7528 65.8069 80.7528 65.5124C80.7528 65.1775 80.8391 64.9015 81.0119 64.6844C81.1847 64.4674 81.4151 64.3092 81.6967 64.2038C81.9814 64.0984 82.2822 64.0488 82.5989 64.0488H82.6022Z" fill="#27343D"/>
<path d="M89.4685 65.593V68.9449C89.4685 69.1837 89.5069 69.3635 89.5837 69.4783C89.6605 69.593 89.798 69.6488 89.9964 69.6488V69.8163C89.8268 69.8008 89.6541 69.7915 89.4845 69.7915C89.2541 69.7915 89.0397 69.8008 88.8413 69.8163C88.643 69.8318 88.4574 69.8628 88.2814 69.9031V69.1837C88.1502 69.4504 87.9678 69.6426 87.7311 69.7543C87.4975 69.869 87.2383 69.9248 86.9504 69.9248C86.72 69.9248 86.5312 69.8969 86.3904 69.838C86.2464 69.7791 86.1344 69.7046 86.0513 69.6147C85.9585 69.5124 85.8913 69.3791 85.8529 69.2147C85.8145 69.0504 85.7953 68.8364 85.7953 68.5759V66.5511C85.7953 66.3123 85.7569 66.1325 85.6833 66.0178C85.6097 65.903 85.4689 65.8472 85.2673 65.8472V65.6798C85.4433 65.6953 85.6129 65.7046 85.7793 65.7046C86.0097 65.7046 86.2272 65.6953 86.4288 65.6767C86.6304 65.6581 86.816 65.6302 86.9855 65.593V68.9046C86.9855 69.038 86.9984 69.1558 87.0239 69.2581C87.0495 69.3604 87.0975 69.438 87.1679 69.4938C87.2383 69.5496 87.3439 69.5775 87.4815 69.5775C87.6287 69.5775 87.7631 69.5372 87.8815 69.4566C87.9998 69.376 88.0958 69.2674 88.1694 69.1248C88.243 68.9821 88.2814 68.824 88.2814 68.6504V66.5542C88.2814 66.3154 88.243 66.1356 88.1694 66.0209C88.0958 65.9061 87.955 65.8503 87.7535 65.8503V65.6829C87.9294 65.6984 88.099 65.7077 88.2654 65.7077C88.4958 65.7077 88.7134 65.6984 88.9149 65.6798C89.1165 65.6612 89.3021 65.6333 89.4717 65.5961L89.4685 65.593Z" fill="#27343D"/>
<path d="M92.1276 65.593V70.4737C92.1276 70.7248 92.1948 70.8923 92.326 70.9729C92.4572 71.0566 92.6396 71.0969 92.8699 71.0969V71.2644C92.7259 71.2582 92.5308 71.252 92.2812 71.2458C92.0316 71.2365 91.7661 71.2334 91.4845 71.2334C91.2797 71.2334 91.0813 71.2365 90.8861 71.2458C90.691 71.2551 90.5438 71.2613 90.4446 71.2644V71.0969C90.627 71.0969 90.755 71.0597 90.8285 70.9853C90.9021 70.9109 90.9405 70.7651 90.9405 70.5543V66.5542C90.9405 66.3155 90.9021 66.1356 90.8253 66.0209C90.7486 65.9062 90.611 65.8503 90.4126 65.8503V65.6829C90.5886 65.6984 90.7582 65.7077 90.9245 65.7077C91.1485 65.7077 91.3661 65.6984 91.5677 65.6798C91.7724 65.6612 91.958 65.6333 92.1276 65.5961V65.593ZM93.4075 65.5682C93.689 65.5682 93.9386 65.6426 94.1594 65.7883C94.3802 65.9341 94.5561 66.1573 94.6873 66.4519C94.8185 66.7465 94.8857 67.1186 94.8857 67.5589C94.8857 67.9496 94.8409 68.2907 94.7481 68.5822C94.6585 68.8767 94.5273 69.1217 94.361 69.3233C94.1946 69.5217 93.993 69.6736 93.7594 69.776C93.5259 69.8783 93.2635 69.9279 92.9723 69.9279C92.7579 69.9279 92.5628 69.8907 92.3868 69.8194C92.2108 69.7481 92.0764 69.6457 91.9836 69.5124L92.0668 69.407C92.1212 69.5031 92.2012 69.5775 92.3036 69.6302C92.406 69.6829 92.5212 69.7109 92.6555 69.7109C92.9019 69.7109 93.0971 69.6302 93.2411 69.4659C93.3851 69.3046 93.4875 69.0752 93.5515 68.7775C93.6154 68.4829 93.6474 68.1294 93.6474 67.717C93.6474 67.2581 93.6186 66.8984 93.5578 66.6379C93.4971 66.3775 93.4139 66.1914 93.3115 66.0767C93.2059 65.9651 93.0811 65.9093 92.9307 65.9093C92.7323 65.9093 92.5532 65.9837 92.39 66.1325C92.2268 66.2814 92.134 66.4953 92.1148 66.7713L92.0732 66.4922C92.1724 66.1883 92.342 65.9589 92.582 65.8007C92.8219 65.6426 93.1003 65.5651 93.4203 65.5651L93.4075 65.5682Z" fill="#27343D"/>
<path d="M97.1606 65.593V70.4737C97.1606 70.7248 97.2278 70.8923 97.359 70.9729C97.4901 71.0566 97.6725 71.0969 97.9029 71.0969V71.2644C97.7589 71.2582 97.5637 71.252 97.3142 71.2458C97.0646 71.2365 96.799 71.2334 96.5174 71.2334C96.3127 71.2334 96.1143 71.2365 95.9191 71.2458C95.7239 71.2551 95.5767 71.2613 95.4776 71.2644V71.0969C95.6599 71.0969 95.7879 71.0597 95.8615 70.9853C95.9351 70.9109 95.9735 70.7651 95.9735 70.5543V66.5542C95.9735 66.3155 95.9351 66.1356 95.8583 66.0209C95.7815 65.9062 95.6439 65.8503 95.4456 65.8503V65.6829C95.6215 65.6984 95.7911 65.7077 95.9575 65.7077C96.1815 65.7077 96.3991 65.6984 96.6006 65.6798C96.8054 65.6612 96.991 65.6333 97.1606 65.5961V65.593ZM98.4404 65.5682C98.722 65.5682 98.9716 65.6426 99.1924 65.7883C99.4131 65.9341 99.5891 66.1573 99.7203 66.4519C99.8515 66.7465 99.9187 67.1186 99.9187 67.5589C99.9187 67.9496 99.8739 68.2907 99.7811 68.5822C99.6915 68.8767 99.5603 69.1217 99.3939 69.3233C99.2276 69.5217 99.026 69.6736 98.7924 69.776C98.5588 69.8783 98.2964 69.9279 98.0053 69.9279C97.7909 69.9279 97.5957 69.8907 97.4197 69.8194C97.2438 69.7481 97.1094 69.6457 97.0166 69.5124L97.0998 69.407C97.1542 69.5031 97.2342 69.5775 97.3366 69.6302C97.4389 69.6829 97.5541 69.7109 97.6885 69.7109C97.9349 69.7109 98.1301 69.6302 98.2741 69.4659C98.418 69.3046 98.5204 69.0752 98.5844 68.7775C98.6484 68.4829 98.6804 68.1294 98.6804 67.717C98.6804 67.2581 98.6516 66.8984 98.5908 66.6379C98.53 66.3775 98.4468 66.1914 98.3444 66.0767C98.2389 65.9651 98.1141 65.9093 97.9637 65.9093C97.7653 65.9093 97.5861 65.9837 97.4229 66.1325C97.2598 66.2814 97.167 66.4953 97.1478 66.7713L97.1062 66.4922C97.2054 66.1883 97.3749 65.9589 97.6149 65.8007C97.8549 65.6426 98.1333 65.5651 98.4532 65.5651L98.4404 65.5682Z" fill="#27343D"/>
<path d="M102.642 65.5682C103.045 65.5682 103.397 65.6395 103.697 65.7852C104.001 65.9279 104.238 66.1604 104.408 66.4798C104.577 66.7992 104.664 67.224 104.664 67.7512C104.664 68.2783 104.577 68.7031 104.408 69.0194C104.238 69.3357 104.001 69.5682 103.697 69.7109C103.393 69.8535 103.041 69.9279 102.642 69.9279C102.242 69.9279 101.902 69.8566 101.598 69.7109C101.294 69.5651 101.055 69.3357 100.882 69.0194C100.709 68.7031 100.623 68.2783 100.623 67.7512C100.623 67.224 100.709 66.7992 100.882 66.4798C101.055 66.1604 101.294 65.9279 101.598 65.7852C101.902 65.6426 102.251 65.5682 102.642 65.5682ZM102.642 65.7294C102.421 65.7294 102.238 65.8876 102.088 66.2038C101.941 66.5201 101.864 67.038 101.864 67.7512C101.864 68.4643 101.938 68.9791 102.088 69.2954C102.235 69.6116 102.421 69.7667 102.642 69.7667C102.862 69.7667 103.054 69.6085 103.198 69.2954C103.345 68.9822 103.416 68.4674 103.416 67.7512C103.416 67.0349 103.342 66.5201 103.198 66.2038C103.051 65.8876 102.866 65.7294 102.642 65.7294Z" fill="#27343D"/>
<path d="M108.1 65.5682C108.276 65.5682 108.42 65.6054 108.529 65.6767C108.638 65.748 108.721 65.841 108.772 65.9527C108.823 66.0643 108.852 66.1821 108.852 66.3031C108.852 66.5015 108.791 66.6628 108.676 66.7868C108.558 66.9108 108.401 66.9759 108.209 66.9759C108.017 66.9759 107.866 66.9294 107.758 66.8364C107.649 66.7434 107.598 66.6194 107.598 66.4643C107.598 66.3093 107.633 66.1914 107.7 66.0922C107.767 65.993 107.857 65.9093 107.959 65.841C107.882 65.8193 107.806 65.8224 107.729 65.8504C107.623 65.8659 107.524 65.9062 107.431 65.9744C107.339 66.0426 107.259 66.1232 107.191 66.2224C107.124 66.3217 107.073 66.4271 107.035 66.5418C106.996 66.6566 106.977 66.7682 106.977 66.8736V68.9946C106.977 69.2519 107.041 69.4225 107.172 69.5155C107.3 69.6054 107.495 69.652 107.754 69.652V69.8194C107.626 69.8132 107.444 69.807 107.201 69.8008C106.958 69.7915 106.705 69.7884 106.443 69.7884C106.222 69.7884 106.001 69.7915 105.774 69.8008C105.547 69.8101 105.377 69.8163 105.262 69.8194V69.652C105.454 69.652 105.592 69.6116 105.672 69.531C105.752 69.4504 105.79 69.2985 105.79 69.0752V66.5542C105.79 66.3155 105.752 66.1356 105.678 66.0209C105.604 65.9062 105.464 65.8504 105.262 65.8504V65.6829C105.438 65.6984 105.608 65.7077 105.774 65.7077C106.004 65.7077 106.222 65.6984 106.423 65.6798C106.625 65.6612 106.811 65.6333 106.98 65.5961V66.3403C107.047 66.1976 107.134 66.0643 107.246 65.9496C107.355 65.8317 107.483 65.7418 107.626 65.6736C107.77 65.6085 107.93 65.5744 108.106 65.5744L108.1 65.5682Z" fill="#27343D"/>
<path d="M110.871 64.3682V65.6798H111.844V65.8411H110.871V69.0721C110.871 69.2333 110.9 69.345 110.961 69.4132C111.022 69.4814 111.111 69.5124 111.233 69.5124C111.332 69.5124 111.431 69.4752 111.53 69.4039C111.629 69.3326 111.716 69.2085 111.796 69.0318L111.937 69.1031C111.847 69.3419 111.716 69.5403 111.537 69.6954C111.357 69.8504 111.114 69.9279 110.807 69.9279C110.625 69.9279 110.465 69.9062 110.327 69.8597C110.19 69.8132 110.074 69.745 109.982 69.6551C109.86 69.5372 109.78 69.3915 109.742 69.2178C109.703 69.0442 109.684 68.8178 109.684 68.5419V65.8411H108.99V65.6798H109.684V64.6224C109.914 64.6224 110.129 64.6038 110.324 64.5635C110.519 64.5232 110.702 64.4581 110.874 64.3682H110.871Z" fill="#27343D"/>
<path d="M116.534 64.1511C116.672 64.1573 116.858 64.1604 117.091 64.1666C117.325 64.1728 117.558 64.1759 117.789 64.1759C118.054 64.1759 118.31 64.1759 118.557 64.1666C118.803 64.1573 118.979 64.1573 119.085 64.1573C119.597 64.1573 120.022 64.2131 120.361 64.3216C120.7 64.4301 120.953 64.5883 121.12 64.7991C121.286 65.0069 121.372 65.2581 121.372 65.5526C121.372 65.7325 121.334 65.9154 121.257 66.1015C121.18 66.2875 121.049 66.455 120.864 66.6131C120.678 66.7713 120.428 66.8953 120.108 66.9883C119.788 67.0813 119.389 67.1278 118.902 67.1278H118.109V66.9666H118.819C119.142 66.9666 119.389 66.9077 119.558 66.7868C119.724 66.6658 119.843 66.5077 119.904 66.3061C119.968 66.1077 120 65.8844 120 65.6395C120 65.2177 119.923 64.8922 119.769 64.6596C119.616 64.427 119.35 64.3123 118.976 64.3123C118.761 64.3123 118.621 64.3588 118.56 64.4487C118.496 64.5387 118.464 64.7247 118.464 65.0007V68.9697C118.464 69.162 118.48 69.3046 118.509 69.4007C118.537 69.4969 118.598 69.562 118.685 69.593C118.771 69.624 118.905 69.6457 119.081 69.6581V69.8194C118.934 69.8101 118.745 69.8007 118.521 69.8007C118.294 69.8007 118.067 69.7976 117.837 69.7976C117.571 69.7976 117.325 69.7976 117.091 69.8007C116.858 69.8007 116.672 69.8101 116.534 69.8194V69.6581C116.71 69.6488 116.842 69.6271 116.931 69.593C117.018 69.562 117.078 69.4969 117.107 69.4007C117.136 69.3046 117.152 69.162 117.152 68.9697V65.0007C117.152 64.8022 117.136 64.6596 117.107 64.5635C117.078 64.4704 117.018 64.4053 116.925 64.3712C116.835 64.3371 116.704 64.3154 116.531 64.3123V64.1511H116.534ZM118.096 66.9914C118.333 66.9976 118.537 67.0069 118.71 67.0224C118.883 67.0379 119.037 67.0534 119.168 67.0658C119.299 67.0782 119.417 67.0875 119.523 67.0937C120.025 67.1371 120.393 67.2395 120.633 67.4069C120.873 67.5713 121.027 67.8193 121.1 68.1511L121.289 68.9759C121.337 69.1899 121.392 69.3387 121.446 69.4224C121.5 69.5093 121.58 69.5496 121.686 69.5496C121.756 69.5434 121.817 69.5279 121.862 69.4969C121.91 69.469 121.961 69.4224 122.015 69.3635L122.131 69.4597C121.983 69.624 121.823 69.7449 121.651 69.8163C121.481 69.8876 121.273 69.9248 121.033 69.9248C120.736 69.9248 120.492 69.8628 120.297 69.7418C120.105 69.6178 119.977 69.3914 119.916 69.0628L119.769 68.2627C119.731 68.0395 119.683 67.8441 119.629 67.6736C119.574 67.5061 119.497 67.3728 119.401 67.2736C119.305 67.1744 119.171 67.1247 119.001 67.1247H118.109L118.093 66.9883L118.096 66.9914Z" fill="#27343D"/>
<path d="M124.377 65.5682C124.86 65.5682 125.241 65.7077 125.516 65.9837C125.791 66.2596 125.929 66.7155 125.929 67.3449H123.212L123.196 67.193H124.889C124.895 66.9325 124.879 66.6906 124.841 66.4705C124.802 66.2503 124.741 66.0705 124.658 65.9371C124.575 65.8038 124.466 65.7387 124.329 65.7387C124.137 65.7387 123.974 65.8565 123.839 66.0922C123.705 66.3279 123.622 66.7155 123.596 67.2612L123.622 67.3077C123.615 67.3728 123.612 67.4379 123.609 67.5062C123.609 67.5744 123.606 67.6488 123.606 67.7232C123.606 68.0922 123.66 68.3899 123.766 68.6194C123.874 68.8488 124.009 69.0163 124.175 69.1186C124.341 69.2209 124.508 69.2736 124.677 69.2736C124.793 69.2736 124.914 69.255 125.036 69.2209C125.161 69.1868 125.285 69.1217 125.41 69.0287C125.538 68.9356 125.657 68.8023 125.765 68.6318L125.913 68.6783C125.845 68.8798 125.743 69.0783 125.599 69.2705C125.455 69.4628 125.273 69.6209 125.055 69.7419C124.834 69.8659 124.572 69.9248 124.261 69.9248C123.887 69.9248 123.558 69.8473 123.27 69.6922C122.985 69.5372 122.758 69.3015 122.598 68.9884C122.434 68.6752 122.354 68.2752 122.354 67.7883C122.354 67.3015 122.441 66.8798 122.614 66.548C122.786 66.2162 123.026 65.9713 123.33 65.8069C123.634 65.6457 123.983 65.562 124.373 65.562L124.377 65.5682Z" fill="#27343D"/>
<path d="M128.207 65.593V69.0721C128.207 69.2953 128.245 69.4473 128.325 69.5279C128.405 69.6085 128.539 69.6488 128.735 69.6488V69.8163C128.629 69.8101 128.476 69.8039 128.268 69.7977C128.06 69.7915 127.852 69.7853 127.637 69.7853C127.423 69.7853 127.205 69.7884 126.984 69.7977C126.764 69.807 126.601 69.8132 126.489 69.8163V69.6488C126.681 69.6488 126.818 69.6085 126.898 69.5279C126.978 69.4473 127.016 69.2953 127.016 69.0721V66.5511C127.016 66.3123 126.978 66.1325 126.904 66.0178C126.831 65.903 126.69 65.8472 126.489 65.8472V65.6798C126.665 65.6953 126.834 65.7046 127 65.7046C127.231 65.7046 127.448 65.6953 127.65 65.6767C127.852 65.6581 128.037 65.6302 128.207 65.593ZM127.564 63.6177C127.794 63.6177 127.976 63.6736 128.114 63.7821C128.248 63.8906 128.316 64.0425 128.316 64.2348C128.316 64.427 128.248 64.579 128.114 64.6875C127.98 64.796 127.797 64.8519 127.564 64.8519C127.33 64.8519 127.151 64.796 127.013 64.6875C126.879 64.579 126.812 64.427 126.812 64.2348C126.812 64.0425 126.879 63.8937 127.013 63.7821C127.148 63.6736 127.33 63.6177 127.564 63.6177Z" fill="#27343D"/>
<path d="M132.242 65.5682C132.472 65.5682 132.661 65.5961 132.808 65.6519C132.955 65.7077 133.067 65.7852 133.15 65.8814C133.24 65.9837 133.304 66.1139 133.345 66.2721C133.387 66.4302 133.406 66.6473 133.406 66.9201V69.0721C133.406 69.2954 133.445 69.4473 133.525 69.5279C133.605 69.6085 133.739 69.6488 133.934 69.6488V69.8163C133.829 69.8101 133.672 69.8039 133.464 69.7977C133.256 69.7884 133.048 69.7853 132.846 69.7853C132.645 69.7853 132.434 69.7884 132.232 69.7977C132.03 69.807 131.877 69.8132 131.774 69.8163V69.6488C131.941 69.6488 132.056 69.6085 132.12 69.5279C132.187 69.4473 132.219 69.2954 132.219 69.0721V66.5852C132.219 66.4519 132.206 66.3372 132.178 66.238C132.149 66.1387 132.101 66.0612 132.03 66.0054C131.96 65.9496 131.851 65.9217 131.707 65.9217C131.563 65.9217 131.422 65.962 131.298 66.0426C131.173 66.1232 131.074 66.2349 131 66.3744C130.927 66.517 130.888 66.6752 130.888 66.8519V69.0752C130.888 69.2985 130.923 69.4504 130.991 69.531C131.058 69.6116 131.173 69.652 131.333 69.652V69.8194C131.234 69.8132 131.09 69.807 130.901 69.8008C130.712 69.7915 130.514 69.7884 130.312 69.7884C130.111 69.7884 129.89 69.7915 129.669 69.8008C129.448 69.8101 129.285 69.8163 129.173 69.8194V69.652C129.365 69.652 129.503 69.6116 129.583 69.531C129.663 69.4504 129.701 69.2985 129.701 69.0752V66.5542C129.701 66.3155 129.663 66.1356 129.589 66.0209C129.515 65.9062 129.375 65.8504 129.173 65.8504V65.6829C129.349 65.6984 129.519 65.7077 129.685 65.7077C129.915 65.7077 130.133 65.6984 130.335 65.6798C130.536 65.6612 130.722 65.6333 130.891 65.5961V66.3155C131.029 66.0426 131.214 65.8504 131.451 65.7387C131.688 65.6271 131.95 65.5713 132.245 65.5713L132.242 65.5682Z" fill="#27343D"/>
<path d="M135.998 64.3682V65.6798H136.971V65.8411H135.998V69.0721C135.998 69.2333 136.027 69.345 136.087 69.4132C136.148 69.4814 136.238 69.5124 136.359 69.5124C136.459 69.5124 136.558 69.4752 136.657 69.4039C136.756 69.3326 136.843 69.2085 136.923 69.0318L137.063 69.1031C136.974 69.3419 136.843 69.5403 136.663 69.6954C136.484 69.8504 136.241 69.9279 135.934 69.9279C135.751 69.9279 135.591 69.9062 135.454 69.8597C135.316 69.8132 135.201 69.745 135.108 69.6551C134.987 69.5372 134.907 69.3915 134.868 69.2178C134.83 69.0442 134.811 68.8178 134.811 68.5419V65.8411H134.116V65.6798H134.811V64.6224C135.041 64.6224 135.256 64.6038 135.451 64.5635C135.646 64.5232 135.828 64.4581 136.001 64.3682H135.998Z" fill="#27343D"/>
<path d="M139.441 65.5682C139.924 65.5682 140.305 65.7077 140.58 65.9837C140.855 66.2596 140.992 66.7155 140.992 67.3449H138.276L138.26 67.193H139.953C139.959 66.9325 139.943 66.6906 139.905 66.4705C139.866 66.2503 139.805 66.0705 139.722 65.9371C139.639 65.8038 139.53 65.7387 139.393 65.7387C139.201 65.7387 139.037 65.8565 138.903 66.0922C138.769 66.3279 138.686 66.7155 138.66 67.2612L138.686 67.3077C138.679 67.3728 138.676 67.4379 138.673 67.5062C138.673 67.5744 138.67 67.6488 138.67 67.7232C138.67 68.0922 138.724 68.3899 138.83 68.6194C138.938 68.8488 139.073 69.0163 139.239 69.1186C139.405 69.2209 139.572 69.2736 139.741 69.2736C139.857 69.2736 139.978 69.255 140.1 69.2209C140.225 69.1868 140.349 69.1217 140.474 69.0287C140.602 68.9356 140.72 68.8023 140.829 68.6318L140.976 68.6783C140.909 68.8798 140.807 69.0783 140.663 69.2705C140.519 69.4628 140.337 69.6209 140.119 69.7419C139.898 69.8659 139.636 69.9248 139.325 69.9248C138.951 69.9248 138.622 69.8473 138.334 69.6922C138.049 69.5372 137.822 69.3015 137.662 68.9884C137.498 68.6752 137.418 68.2752 137.418 67.7883C137.418 67.3015 137.505 66.8798 137.678 66.548C137.85 66.2162 138.09 65.9713 138.394 65.8069C138.698 65.6457 139.047 65.562 139.437 65.562L139.441 65.5682Z" fill="#27343D"/>
<path d="M143.156 71.3201C142.813 71.3201 142.509 71.2922 142.244 71.2364C141.978 71.1806 141.767 71.0938 141.617 70.9791C141.466 70.8643 141.389 70.7248 141.389 70.5604C141.389 70.3961 141.466 70.2473 141.62 70.117C141.773 69.9868 142.004 69.8845 142.304 69.81L142.378 69.9372C142.273 70.0178 142.199 70.1046 142.151 70.1976C142.103 70.2907 142.081 70.3868 142.081 70.4891C142.081 70.7124 142.186 70.886 142.397 71.0039C142.608 71.1248 142.896 71.1837 143.261 71.1837C143.508 71.1837 143.732 71.1527 143.927 71.0876C144.122 71.0225 144.275 70.9263 144.387 70.7992C144.499 70.6721 144.557 70.5139 144.557 70.3279C144.557 70.1666 144.496 70.0333 144.375 69.9248C144.253 69.8162 144.013 69.7604 143.648 69.7604H143.136C142.909 69.7604 142.714 69.7356 142.548 69.6891C142.381 69.6426 142.25 69.5651 142.154 69.4597C142.061 69.3542 142.013 69.224 142.013 69.0627C142.013 68.8395 142.103 68.641 142.285 68.4705C142.468 68.2999 142.736 68.1387 143.095 67.9899L143.178 68.055C143.072 68.1201 142.976 68.1883 142.884 68.2596C142.794 68.331 142.746 68.424 142.746 68.5356C142.746 68.7062 142.855 68.793 143.076 68.793H143.975C144.279 68.793 144.547 68.8271 144.787 68.8984C145.027 68.9666 145.216 69.0814 145.357 69.2395C145.498 69.3976 145.568 69.6023 145.568 69.8504C145.568 70.0984 145.482 70.3558 145.309 70.579C145.136 70.8023 144.871 70.9822 144.512 71.1186C144.154 71.255 143.7 71.3232 143.149 71.3232L143.156 71.3201ZM143.239 68.1139C142.925 68.1139 142.644 68.0674 142.397 67.9775C142.151 67.8875 141.956 67.748 141.812 67.562C141.668 67.3759 141.597 67.134 141.597 66.8426C141.597 66.5511 141.668 66.3092 141.812 66.1201C141.956 65.9309 142.151 65.7914 142.397 65.7046C142.644 65.6177 142.925 65.5712 143.239 65.5712C143.552 65.5712 143.834 65.6146 144.08 65.7046C144.327 65.7914 144.522 65.9309 144.666 66.1201C144.81 66.3092 144.88 66.5511 144.88 66.8426C144.88 67.134 144.81 67.3759 144.666 67.562C144.522 67.748 144.327 67.8875 144.08 67.9775C143.834 68.0674 143.552 68.1139 143.239 68.1139ZM143.239 67.9713C143.386 67.9713 143.504 67.8906 143.584 67.7263C143.668 67.5651 143.709 67.2705 143.709 66.8426C143.709 66.4146 143.668 66.1201 143.584 65.9588C143.501 65.7976 143.386 65.7139 143.239 65.7139C143.092 65.7139 142.983 65.7945 142.896 65.9588C142.81 66.1201 142.768 66.4146 142.768 66.8426C142.768 67.2705 142.81 67.5651 142.896 67.7263C142.983 67.8906 143.095 67.9713 143.239 67.9713Z" fill="#27343D"/>
<path d="M148.873 65.5682C149.049 65.5682 149.193 65.6054 149.302 65.6767C149.411 65.748 149.494 65.841 149.545 65.9527C149.596 66.0643 149.625 66.1821 149.625 66.3031C149.625 66.5015 149.564 66.6628 149.449 66.7868C149.331 66.9108 149.174 66.9759 148.982 66.9759C148.79 66.9759 148.64 66.9294 148.531 66.8364C148.422 66.7434 148.371 66.6194 148.371 66.4643C148.371 66.3093 148.406 66.1914 148.473 66.0922C148.54 65.993 148.63 65.9093 148.732 65.841C148.656 65.8193 148.579 65.8224 148.502 65.8504C148.396 65.8659 148.297 65.9062 148.205 65.9744C148.112 66.0426 148.032 66.1232 147.965 66.2224C147.897 66.3217 147.846 66.4271 147.808 66.5418C147.769 66.6566 147.75 66.7682 147.75 66.8736V68.9946C147.75 69.2519 147.814 69.4225 147.945 69.5155C148.073 69.6054 148.269 69.652 148.528 69.652V69.8194C148.4 69.8132 148.217 69.807 147.974 69.8008C147.731 69.7915 147.478 69.7884 147.216 69.7884C146.995 69.7884 146.774 69.7915 146.547 69.8008C146.32 69.8101 146.15 69.8163 146.035 69.8194V69.652C146.227 69.652 146.365 69.6116 146.445 69.531C146.525 69.4504 146.563 69.2985 146.563 69.0752V66.5542C146.563 66.3155 146.525 66.1356 146.451 66.0209C146.378 65.9062 146.237 65.8504 146.035 65.8504V65.6829C146.211 65.6984 146.381 65.7077 146.547 65.7077C146.777 65.7077 146.995 65.6984 147.197 65.6798C147.398 65.6612 147.584 65.6333 147.753 65.5961V66.3403C147.821 66.1976 147.907 66.0643 148.019 65.9496C148.128 65.8317 148.256 65.7418 148.4 65.6736C148.544 65.6085 148.704 65.5744 148.88 65.5744L148.873 65.5682Z" fill="#27343D"/>
<path d="M151.113 69.8721C150.867 69.8721 150.659 69.8256 150.496 69.7356C150.332 69.6457 150.211 69.5248 150.131 69.3728C150.054 69.2209 150.016 69.0535 150.016 68.8736C150.016 68.6441 150.07 68.4581 150.176 68.3124C150.284 68.1697 150.422 68.0519 150.592 67.9589C150.761 67.8689 150.944 67.7945 151.132 67.7356C151.321 67.6767 151.503 67.6209 151.676 67.5651C151.849 67.5092 151.99 67.441 152.099 67.3666C152.207 67.2891 152.259 67.1899 152.259 67.0658V66.4426C152.259 66.303 152.236 66.179 152.188 66.0705C152.14 65.9619 152.07 65.8782 151.974 65.8193C151.878 65.7604 151.753 65.7325 151.599 65.7325C151.491 65.7325 151.379 65.748 151.27 65.7759C151.161 65.8038 151.068 65.8534 150.998 65.9247C151.152 65.9774 151.273 66.0581 151.356 66.1697C151.443 66.2782 151.484 66.4023 151.484 66.5418C151.484 66.7216 151.42 66.8674 151.289 66.9728C151.161 67.0782 151.008 67.1341 150.832 67.1341C150.633 67.1341 150.483 67.0751 150.38 66.9542C150.278 66.8333 150.227 66.6875 150.227 66.517C150.227 66.3619 150.265 66.2348 150.345 66.1325C150.425 66.0302 150.537 65.934 150.678 65.8441C150.832 65.7604 151.017 65.6922 151.235 65.6457C151.452 65.5991 151.686 65.5743 151.942 65.5743C152.198 65.5743 152.422 65.5991 152.627 65.6488C152.831 65.6984 153.001 65.7914 153.138 65.9247C153.266 66.0488 153.346 66.1976 153.385 66.3775C153.423 66.5573 153.442 66.7806 153.442 67.0534V69.2302C153.442 69.3635 153.455 69.4566 153.484 69.5062C153.513 69.5558 153.558 69.5837 153.625 69.5837C153.673 69.5837 153.724 69.5713 153.769 69.5434C153.817 69.5155 153.868 69.4845 153.922 69.4473L154.006 69.5837C153.89 69.6798 153.756 69.7542 153.606 69.8039C153.455 69.8535 153.286 69.8814 153.097 69.8814C152.892 69.8814 152.732 69.8535 152.611 69.7977C152.489 69.7418 152.403 69.6643 152.351 69.5682C152.3 69.4721 152.271 69.3604 152.271 69.2333C152.14 69.4349 151.98 69.5961 151.791 69.7108C151.606 69.8256 151.375 69.8814 151.107 69.8814L151.113 69.8721ZM151.699 69.3604C151.807 69.3604 151.91 69.3356 151.999 69.2829C152.089 69.2333 152.175 69.1496 152.259 69.0318V67.3914C152.211 67.472 152.14 67.5434 152.054 67.6085C151.964 67.6736 151.871 67.7387 151.772 67.8038C151.673 67.872 151.577 67.9434 151.487 68.024C151.398 68.1046 151.324 68.2038 151.27 68.3186C151.215 68.4364 151.187 68.5759 151.187 68.7434C151.187 68.9511 151.235 69.1062 151.327 69.2085C151.42 69.3108 151.545 69.3604 151.699 69.3604Z" fill="#27343D"/>
<path d="M156.005 64.3682V65.6798H156.978V65.8411H156.005V69.0721C156.005 69.2333 156.034 69.345 156.095 69.4132C156.156 69.4814 156.245 69.5124 156.367 69.5124C156.466 69.5124 156.565 69.4752 156.665 69.4039C156.764 69.3326 156.85 69.2085 156.93 69.0318L157.071 69.1031C156.981 69.3419 156.85 69.5403 156.671 69.6954C156.492 69.8504 156.249 69.9279 155.941 69.9279C155.759 69.9279 155.599 69.9062 155.461 69.8597C155.324 69.8132 155.209 69.745 155.116 69.6551C154.994 69.5372 154.914 69.3915 154.876 69.2178C154.838 69.0442 154.818 68.8178 154.818 68.5419V65.8411H154.124V65.6798H154.818V64.6224C155.049 64.6224 155.263 64.6038 155.458 64.5635C155.653 64.5232 155.836 64.4581 156.009 64.3682H156.005Z" fill="#27343D"/>
<path d="M159.448 65.5682C159.931 65.5682 160.312 65.7077 160.587 65.9837C160.862 66.2596 161 66.7155 161 67.3449H158.284L158.268 67.193H159.96C159.967 66.9325 159.951 66.6906 159.912 66.4705C159.874 66.2503 159.813 66.0705 159.73 65.9371C159.647 65.8038 159.538 65.7387 159.4 65.7387C159.208 65.7387 159.045 65.8565 158.911 66.0922C158.776 66.3279 158.693 66.7155 158.667 67.2612L158.693 67.3077C158.687 67.3728 158.683 67.4379 158.68 67.5062C158.68 67.5744 158.677 67.6488 158.677 67.7232C158.677 68.0922 158.731 68.3899 158.837 68.6194C158.946 68.8488 159.08 69.0163 159.247 69.1186C159.413 69.2209 159.579 69.2736 159.749 69.2736C159.864 69.2736 159.986 69.255 160.107 69.2209C160.232 69.1868 160.357 69.1217 160.482 69.0287C160.61 68.9356 160.728 68.8023 160.837 68.6318L160.984 68.6783C160.917 68.8798 160.814 69.0783 160.67 69.2705C160.526 69.4628 160.344 69.6209 160.127 69.7419C159.906 69.8659 159.643 69.9248 159.333 69.9248C158.959 69.9248 158.629 69.8473 158.341 69.6922C158.056 69.5372 157.829 69.3015 157.669 68.9884C157.506 68.6752 157.426 68.2752 157.426 67.7883C157.426 67.3015 157.512 66.8798 157.685 66.548C157.858 66.2162 158.098 65.9713 158.402 65.8069C158.706 65.6457 159.055 65.562 159.445 65.562L159.448 65.5682Z" fill="#27343D"/>
<path d="M27.4497 68.0116C27.8032 68.0116 28.0897 67.7339 28.0897 67.3914C28.0897 67.0489 27.8032 66.7712 27.4497 66.7712C27.0963 66.7712 26.8098 67.0489 26.8098 67.3914C26.8098 67.7339 27.0963 68.0116 27.4497 68.0116Z" fill="#27343D"/>
<path d="M78.4107 68.0116C78.7641 68.0116 79.0506 67.7339 79.0506 67.3914C79.0506 67.0489 78.7641 66.7712 78.4107 66.7712C78.0573 66.7712 77.7708 67.0489 77.7708 67.3914C77.7708 67.7339 78.0573 68.0116 78.4107 68.0116Z" fill="#27343D"/>
<path d="M114.237 68.0116C114.591 68.0116 114.877 67.7339 114.877 67.3914C114.877 67.0489 114.591 66.7712 114.237 66.7712C113.884 66.7712 113.597 67.0489 113.597 67.3914C113.597 67.7339 113.884 68.0116 114.237 68.0116Z" fill="#27343D"/>
</g>
<defs>
<clipPath id="clip0_222_1896">
<rect width="161" height="55.0789" fill="white"/>
</clipPath>
<clipPath id="clip1_222_1896">
<rect width="161" height="7.76754" fill="white" transform="translate(0 63.5526)"/>
</clipPath>
</defs>
</svg>
